/* XPM */
static char *_ccd20beeb3346b0c30ce7cac685846evHuq4oVaZcO0xqLF[] = {
/* columns rows colors chars-per-pixel */
"32 32 188 2 ",
"   c #0E122B",
".  c #13152C",
"X  c #1C182D",
"o  c #181933",
"O  c #161C3C",
"+  c #1A1F3E",
"@  c #251B33",
"#  c #2D1E35",
"$  c #301F37",
"%  c #1D223E",
"&  c #1E3430",
"*  c #24382F",
"=  c #2B2135",
"-  c #3A2539",
";  c #38273A",
":  c #223631",
">  c #223831",
",  c #2F3A34",
"<  c #383C37",
"1  c #39393A",
"2  c #472A39",
"3  c #413F39",
"4  c #3B4237",
"5  c #3E4438",
"6  c #335634",
"7  c #385936",
"8  c #41423A",
"9  c #4D453D",
"0  c #53483F",
"q  c #4A6B3A",
"w  c #4C733C",
"e  c #1D314B",
"r  c #1D344E",
"t  c #262944",
"y  c #3A3D42",
"u  c #393549",
"i  c #282F53",
"p  c #2F3456",
"a  c #343B57",
"s  c #2F3961",
"d  c #333B62",
"f  c #363F68",
"g  c #473B46",
"h  c #4B3E49",
"j  c #573143",
"k  c #5E3B45",
"l  c #673844",
"z  c #743F4E",
"x  c #3B4242",
"c  c #3F4659",
"v  c #3A4269",
"b  c #3D4772",
"n  c #3F4873",
"m  c #3C5E7A",
"M  c #4D414A",
"N  c #464B48",
"B  c #594448",
"V  c #4D5246",
"C  c #5E584C",
"Z  c #474456",
"A  c #534754",
"S  c #564A57",
"D  c #554B5E",
"F  c #664A4F",
"G  c #73434B",
"H  c #7B4E4C",
"J  c #684A57",
"K  c #7E4E52",
"L  c #5E6640",
"P  c #616941",
"I  c #454769",
"U  c #554A66",
"Y  c #4B526B",
"T  c #5A5468",
"R  c #414A74",
"E  c #464E79",
"W  c #465377",
"Q  c #4B537D",
"!  c #655562",
"~  c #7A5964",
"^  c #635F7A",
"/  c #56607A",
"(  c #7B6360",
")  c #6B6076",
"_  c #70687F",
"`  c #84444E",
"'  c #894A54",
"]  c #995556",
"[  c #97555A",
"{  c #A55D5A",
"}  c #A6625E",
"|  c #865966",
" . c #916C6C",
".. c #8A6D74",
"X. c #A66A65",
"o. c #A96E6D",
"O. c #BA6A64",
"+. c #A57777",
"@. c #B57774",
"#. c #C6786C",
"$. c #4D863A",
"%. c #4F893A",
"&. c #518D3A",
"*. c #56893C",
"=. c #54923C",
"-. c #5DA33E",
";. c #5FA93E",
":. c #63AC3F",
">. c #7C854C",
",. c #699A42",
"<. c #68AE40",
"1. c #66B040",
"2. c #6BB241",
"3. c #75B344",
"4. c #7CB546",
"5. c #7DB947",
"6. c #848A4D",
"7. c #849B4A",
"8. c #8FBD4C",
"9. c #90BE4C",
"0. c #9ABC4F",
"q. c #9BA550",
"w. c #9EA952",
"e. c #A1AB52",
"r. c #A7B354",
"t. c #AAB555",
"y. c #ADB856",
"u. c #9F8171",
"i. c #A6837A",
"p. c #BE8A7B",
"a. c #CE8C7B",
"s. c #E2947E",
"d. c #92C14D",
"f. c #9DC450",
"g. c #ADC455",
"h. c #B2CC56",
"j. c #B6CD58",
"k. c #B9CD59",
"l. c #BAD159",
"z. c #C1CD5B",
"x. c #C4D35C",
"c. c #C9D55D",
"v. c #CCD85E",
"b. c #D1DD5F",
"n. c #3D778F",
"m. c #525982",
"M. c #585F8A",
"N. c #5A628C",
"B. c #5B6888",
"V. c #716980",
"C. c #616993",
"Z. c #8F7F8B",
"A. c #AE7D80",
"S. c #3D8198",
"D. c #468599",
"F. c #60869A",
"G. c #5C91A1",
"H. c #6F9DAC",
"J. c #6FAEBF",
"K. c #71B8C9",
"L. c #93808A",
"P. c #878D97",
"I. c #AB8B87",
"U. c #BA9189",
"Y. c #B29FA9",
"T. c #9CAAB6",
"R. c #B8A6AE",
"E. c #B1B2BE",
"W. c #C99886",
"Q. c #CB9C88",
"!. c #D59A84",
"~. c #DAA78E",
"^. c #CAA393",
"/. c #D7A895",
"(. c #DAAC9A",
"). c #E9AD94",
"_. c #FCBC9B",
"`. c #C6A6AC",
"'. c #C2B4B7",
"]. c #F9BFA2",
"[. c #FFC4A1",
"{. c #FFCEA9",
"}. c #B4B8C3",
"|. c #CFBFC8",
" X c #BFD8E3",
".X c #CFC2C8",
"XX c #C0D8E3",
"oX c #EAEBF3",
/* pixels */
"c.c.c.c.c.c.c.v.b.e.8   . . . . . . .     5 e.b.v.c.c.c.c.c.c.c.",
"c.c.c.c.c.c.c.z.t.>.x % % % % % % t t t t N 6.t.z.c.c.c.c.c.c.c.",
"c.c.c.c.c.c.v.t.P x a d d d d d d v Q m.m.Y N P t.v.c.c.c.c.c.c.",
"c.c.c.c.c.k.t.>.y t f R R E Q Q Q m.N.C.C.Q i y >.t.k.c.c.c.c.c.",
"c.c.c.c.c.r.P y a f b R n E N.C.C.N.m.Q Q E v a y P r.c.c.c.c.c.",
"c.c.c.c.v.q.4 O d n n R E m.N.C.C.M.E b n R R d O 4 q.v.c.c.c.c.",
"c.c.c.c.v.q.4 O s b b E M.N.m.Q Q Q R n n R R d + 4 q.v.c.c.c.c.",
"c.c.c.c.v.q.5 t T V.V.V.C.N.E b n n R R R R R d + 5 q.v.c.c.c.c.",
"c.c.c.c.v.q.4 u i.(.(.U.V.E R n n R R R R R R d + 5 q.v.c.c.c.c.",
"c.c.c.c.v.q.4 h W.[.).I.T f b R n b b n n R R d + 5 q.v.c.c.c.c.",
"c.c.c.c.v.q.4 h W.). .A p p v R b b b b n R R d + 5 q.v.c.c.c.c.",
"c.c.c.c.v.q.4 h Q.Q.S t Z D I I ^ _ _ ^ W R R d + 5 q.v.c.c.c.c.",
"c.c.c.c.v.q.4 M Q.Q.M u +.i.D D I.(./.I.^ n n d + 5 q.v.c.c.c.c.",
"c.c.c.c.v.q.4 g p.p.g h Q./.! D U._.[./.V.n n d % 5 q.v.c.c.c.c.",
"c.c.c.c.v.q.4 ; X.X.; g W./.) U o.s._.(.V.n n d % 5 q.v.c.c.c.c.",
"c.c.c.c.v.r.P 0 H K B ( ~.(.L...@.a.!.i.T s d i O 4 w.v.v.c.c.c.",
"c.c.c.c.c.z.y.6.9 B +.~._.].(.(.).!. .F t + + o   4 w.b.v.c.c.c.",
"c.c.c.x.j.g.r.6.9 F a.).!.Q.).).).W. .! A M M h h C 6.t.z.c.c.c.",
"c.c.c.k.9.,.q B H } #.o.F F X.#.O.A.R.'.^.W.W.W.W.i.C L r.v.c.c.",
"c.x.k.f.3.$.& ; ] O.{ K A T +.@.[  .Y.'.^.~._.{.{.Q.g , 7.l.x.c.",
"c.k.9.3.<.$.& ; ] { k S P.}..X`.o.' ~ ! A ( ~.{.{.Q.g : *.d.l.c.",
"h.f.3.:.:.=.6 8 H G = c E.oXoX|.+.` l 2 X 1  .Q.Q.u.V 6 %.3.f.h.",
"4.3.<.:.:.-.=.w 8 # . Z E.oXoX|.+.' ` l # o u M M V w =.-.<.3.4.",
";.:.:.:.:.-.=.w 8 ; ; T T. XXX}.Z.| | J u t = @ . > &.1.:.:.:.;.",
";.:.:.:.:.=.6 8 H ] ] ..H.K.K.J.H.F.B./ W Y J j @ > %.1.:.:.:.;.",
"4.3.<.:.:.$.: # G { O.@.P.G.D.S.S.n.m W / ) | z = > $.:.:.<.3.4.",
"h.f.3.:.:.$.: o = k { #.@...c r r r e u J | [ z $ > $.:.:.3.f.h.",
"c.k.9.3.<.&.6 > > 5 H ] ] H 3 * * * * < k z z k < 6 &.<.3.9.k.c.",
"c.x.k.f.3.-.&.$.%.w < ; ; 3 w %.$.%.&.q < # # < q =.-.3.f.k.x.c.",
"c.c.c.k.8.4.5.4.2.=.6 : : 6 =.1.1.1.1.=.6 : : 7 ,.5.4.8.k.c.c.c.",
"c.c.c.x.j.h.h.f.3.-.=.$.$.=.-.:.:.:.:.-.=.$.$.,.0.h.h.j.x.c.c.c.",
"c.c.c.c.c.c.c.h.4.:.:.1.1.:.:.:.:.:.:.:.:.:.:.5.h.c.c.c.c.c.c.c."
};
