/* XPM */
static char *acef11023c3745e8b9825afecffc5be70j37QaO0CMYRLJBY[] = {
/* columns rows colors chars-per-pixel */
"32 32 185 2 ",
"   c #1A1430",
".  c #171C3D",
"X  c #1A1F3E",
"o  c #2F1E37",
"O  c #301E38",
"+  c #1F372F",
"@  c #1C213E",
"#  c #20362F",
"$  c #22392F",
"%  c #252036",
"&  c #352336",
"*  c #3C263A",
"=  c #3D2B3C",
"-  c #223631",
";  c #233931",
":  c #2B3C32",
">  c #373A37",
",  c #3D3D39",
"<  c #402E3E",
"1  c #502E3C",
"2  c #413F38",
"3  c #3B4237",
"4  c #3E4438",
"5  c #335634",
"6  c #385936",
"7  c #404538",
"8  c #455D3A",
"9  c #456C38",
"0  c #496E39",
"q  c #4C723B",
"w  c #60683F",
"e  c #1B2D48",
"r  c #242643",
"t  c #252846",
"y  c #322D45",
"u  c #393E42",
"i  c #3B3549",
"p  c #282E52",
"a  c #2F355B",
"s  c #333B57",
"d  c #2F3861",
"f  c #333A62",
"g  c #363F68",
"h  c #463A45",
"j  c #493C47",
"k  c #4B3E4A",
"l  c #5C3A48",
"z  c #613E47",
"x  c #723C4C",
"c  c #783F4B",
"v  c #3F4759",
"b  c #374561",
"n  c #394169",
"m  c #3C4772",
"M  c #3F4873",
"N  c #3B5E7B",
"B  c #414749",
"V  c #4C4849",
"C  c #5C444C",
"Z  c #484556",
"A  c #574A58",
"S  c #544B5E",
"D  c #76474B",
"F  c #7A4D4B",
"G  c #614351",
"H  c #6A4E51",
"J  c #616941",
"K  c #464969",
"L  c #574D68",
"P  c #4B516E",
"I  c #59546C",
"U  c #414A74",
"Y  c #464E79",
"T  c #485079",
"R  c #4A537C",
"E  c #5E5877",
"W  c #655765",
"Q  c #6A5A70",
"!  c #635F7B",
"~  c #725E71",
"^  c #7B6360",
"/  c #6B647B",
"(  c #7E6476",
")  c #70687F",
"_  c #844E53",
"`  c #87565B",
"'  c #985555",
"]  c #9E615F",
"[  c #935C61",
"{  c #A05B61",
"}  c #8D716F",
"|  c #9E7A75",
" . c #A46563",
".. c #A96B6B",
"X. c #A76D71",
"o. c #A57A75",
"O. c #B97871",
"+. c #C07B79",
"@. c #4D863A",
"#. c #518B3A",
"$. c #54923C",
"%. c #5A943D",
"&. c #608E3F",
"*. c #5EA43E",
"=. c #5FA93E",
"-. c #63AC3F",
";. c #65B03F",
":. c #7C854C",
">. c #689842",
",. c #67AC40",
"<. c #69AD41",
"1. c #66B140",
"2. c #6AB241",
"3. c #74B244",
"4. c #7BB546",
"5. c #7EB947",
"6. c #899E4B",
"7. c #8CA74C",
"8. c #8FBD4C",
"9. c #90BD4C",
"0. c #99BA4F",
"q. c #9CA651",
"w. c #A7B254",
"e. c #AAB454",
"r. c #A5827C",
"t. c #BB877A",
"y. c #BD8A7B",
"u. c #D38B7A",
"i. c #E2947D",
"p. c #91C04C",
"a. c #9DC350",
"s. c #B2CB56",
"d. c #B6CD58",
"f. c #BACD59",
"g. c #B9D058",
"h. c #C1CC5B",
"j. c #C5D35C",
"k. c #C9D55D",
"l. c #CDD95E",
"z. c #3B748D",
"x. c #515982",
"c. c #585F8A",
"v. c #596288",
"b. c #5B638C",
"n. c #5E7B8A",
"m. c #6D6883",
"M. c #65688E",
"N. c #716980",
"B. c #616993",
"V. c #657990",
"C. c #917884",
"Z. c #48879B",
"A. c #5F93A3",
"S. c #6493A6",
"D. c #6FA4B7",
"F. c #75BCCD",
"G. c #918798",
"H. c #AC8C89",
"J. c #B59492",
"K. c #9F9EB0",
"L. c #B49FA6",
"P. c #9DA4BB",
"I. c #C08D80",
"U. c #C59587",
"Y. c #CA9A87",
"T. c #CB9C88",
"R. c #D49F8D",
"E. c #CFA08C",
"W. c #D7A38D",
"Q. c #C5A295",
"!. c #D7A794",
"~. c #D6A999",
"^. c #D9AB99",
"/. c #E3AB93",
"(. c #F0AF93",
"). c #FFB998",
"_. c #C8AFB1",
"`. c #E2B4A1",
"'. c #FDC09F",
"]. c #FFC4A1",
"[. c #FFCEA8",
"{. c #F8C8B1",
"}. c #B5B8C2",
"|. c #D2C5C9",
" X c #C1DCE7",
/* pixels */
"k.k.k.k.k.k.k.k.k.k.l.l.l.l.l.l.l.l.l.l.l.l.k.k.k.k.k.k.k.k.k.k.",
"k.k.k.k.k.k.k.k.k.h.w.q.q.q.q.q.q.q.q.q.q.w.f.k.k.k.k.k.k.k.k.k.",
"k.k.k.k.k.k.k.k.l.e.J 4 4 7 7 7 7 7 7 4 4 J e.l.k.k.k.k.k.k.k.k.",
"k.k.k.k.k.k.k.h.e.:.u . X X X X X @ r t r B :.e.h.k.k.k.k.k.k.k.",
"k.k.k.k.k.k.l.e.J u s f f f f f f n T x.x.P B w e.l.k.k.k.k.k.k.",
"k.k.k.k.k.f.e.:.u t g U U Y R R R x.b.B.B.R p u :.e.f.k.k.k.k.k.",
"k.k.k.k.k.w.J u s g m U M T v.B.B.b.x.R R Y n s u J w.k.k.k.k.k.",
"k.k.k.k.l.q.3 . f M M U Y x.b.B.B.c.Y m M U U f . 3 q.l.k.k.k.k.",
"k.k.k.k.l.q.4 . d m m Y c.b.x.R R T U M M U U f X 4 q.l.k.k.k.k.",
"k.k.k.k.l.q.4 r I N.N.m.M.v.T m M M U U U U U f X 4 q.l.k.k.k.k.",
"k.k.k.k.l.q.3 i r.^.^.J.m.Y U M M U U U U U U f X 4 q.l.k.k.k.k.",
"k.k.k.k.l.q.3 k Y.]./.H.I g m U M m m M M U U f X 4 q.l.k.k.k.k.",
"k.k.k.k.l.q.3 k Y./.} Z i a n U m m m m M U U f X 4 q.l.k.k.k.k.",
"k.k.k.k.l.q.3 k T.E.A t Z S K K ! N.) ! T U U f X 4 q.l.k.k.k.k.",
"k.k.k.k.l.q.3 V T.T.V i o.r.S S H.^.~.H.! M M f X 4 q.l.k.k.k.k.",
"k.k.k.k.l.q.3 h y.y.h j T.!.W S I.).].~.) m M f X 4 q.l.k.k.k.k.",
"k.k.k.k.l.q.3 =  . .= j Y.~./ L ..i.).^.N.m M f X 4 q.l.k.k.k.k.",
"k.k.k.j.g.7.8 , F _ C ^ W.~.m.I X.u.R.H.! m M f @ 3 6.g.j.k.k.k.",
"k.k.k.f.8.<.%.0 , C o.!.'.~./ ! U.W.C.E U m M f @ : &.p.g.k.k.k.",
"k.j.f.a.3.-.;.@.+ h y.(.W.r.~ ( U.I.Q K v.b.R f X ; @.3.a.f.j.k.",
"k.f.9.3.,.-.;.@.; <  .O.H C `  ...[ G Q K.P.b.a X ; @.2.3.9.f.k.",
"s.a.3.=.-.-.-.@.; * '  .A W o.+.{ c 1 W _.|.G.L r ; @.-.-.3.a.s.",
"4.3.<.-.-.-.-.@.- * ' O.L.}.|._.X.x & A Q.{.`.r.i ; @.-.-.<.3.4.",
"=.-.-.-.-.-.-.$.5 2 D | }. X X}.C.G % k U.[.[.Y.k # @.-.-.-.-.=.",
"=.-.-.-.-.-.-.*.%.q , Z S.F.F.D.V.K @ j U.[.[.T.k # @.-.-.-.-.=.",
"4.3.<.-.-.-.-.*.%.q , Z n.A.Z.z.N b y C t./.R.| V 5 #.-.-.<.3.4.",
"s.a.3.=.-.-.-.$.5 7 F ] X.} v e e y l _  .[ G V q $.*.-.-.3.a.s.",
"k.f.9.3.,.-.-.@.- o D ' ' F 2 $ $ > z c x l > 5 $.;.-.,.3.9.f.k.",
"k.j.f.a.3.-.-.@.-   & = * 2 0 #.#.0 > O o > 9 $.*.-.=.3.a.f.j.k.",
"k.k.k.f.8.4.5.>.6 ; ; ; ; 5 $.1.1.$.5 - - 5 $.2.4.4.4.8.f.k.k.k.",
"k.k.k.j.d.s.s.0.>.@.@.@.@.$.*.-.-.*.$.@.@.$.*.3.a.s.s.d.j.k.k.k.",
"k.k.k.k.k.k.k.s.5.-.-.1.1.-.-.-.-.-.-.1.1.-.-.4.s.k.k.k.k.k.k.k."
};
