/* XPM */
static const char *Mg__[] = {
/* columns rows colors chars-per-pixel */
"32 32 190 2 ",
"   c #0E122A",
".  c #13152C",
"X  c #151D2D",
"o  c #19182F",
"O  c #171A31",
"+  c #171C3D",
"@  c #1A1F3E",
"#  c #241A33",
"$  c #291C34",
"%  c #1D2F2F",
"&  c #1F302F",
"*  c #1E2F30",
"=  c #1C223E",
"-  c #23392F",
";  c #202134",
":  c #2A2238",
">  c #3A253A",
",  c #392B3E",
"<  c #223630",
"1  c #233931",
"2  c #283A3A",
"3  c #383F37",
"4  c #3B3C39",
"5  c #462C3D",
"6  c #403F39",
"7  c #374036",
"8  c #3B4237",
"9  c #3E4438",
"0  c #335635",
"q  c #395936",
"w  c #3D6936",
"e  c #404439",
"r  c #4D523D",
"t  c #416C39",
"y  c #496F3A",
"u  c #4A703B",
"i  c #1D2A43",
"p  c #1C344B",
"a  c #1E3851",
"s  c #242743",
"d  c #222B45",
"f  c #252B49",
"g  c #372C44",
"h  c #27334D",
"j  c #3C3542",
"k  c #3A3D42",
"l  c #363249",
"z  c #282E52",
"x  c #2D3955",
"c  c #373556",
"v  c #343B57",
"b  c #2F3861",
"n  c #343B63",
"m  c #363F68",
"M  c #453446",
"N  c #463946",
"B  c #4B3E47",
"V  c #4C3F4A",
"C  c #5D3446",
"Z  c #523548",
"A  c #633946",
"S  c #643C49",
"D  c #3B4242",
"F  c #344264",
"G  c #3D4665",
"H  c #3A4269",
"J  c #3C4772",
"K  c #3F4873",
"L  c #3E5571",
"P  c #3D5F7A",
"I  c #3F607B",
"U  c #4D414A",
"Y  c #434949",
"T  c #524548",
"R  c #494554",
"E  c #594A54",
"W  c #564959",
"Q  c #544B5E",
"!  c #66434D",
"~  c #73424A",
"^  c #7A4D4D",
"/  c #674357",
"(  c #794556",
")  c #695657",
"_  c #616941",
"`  c #77605E",
"'  c #494668",
"]  c #574B67",
"[  c #4D536D",
"{  c #55526C",
"}  c #5A566F",
"|  c #414A74",
" . c #464E79",
".. c #465277",
"X. c #4B537D",
"o. c #665665",
"O. c #725560",
"+. c #635F7A",
"@. c #6F667C",
"#. c #8F535D",
"$. c #975557",
"%. c #9B5856",
"&. c #A25A57",
"*. c #9B605F",
"=. c #805C66",
"-. c #90656C",
";. c #8D716F",
":. c #99776F",
">. c #A66A68",
",. c #A06A73",
"<. c #A17873",
"1. c #C96E64",
"2. c #CA7065",
"3. c #4E863A",
"4. c #4F893A",
"5. c #518C3A",
"6. c #54923C",
"7. c #5B953E",
"8. c #5DA33E",
"9. c #5FA93E",
"0. c #60A63E",
"q. c #63AC3F",
"w. c #7C854C",
"e. c #689A42",
"r. c #67AD40",
"t. c #68AE40",
"y. c #73AD44",
"u. c #66B140",
"i. c #6CB442",
"p. c #75B244",
"a. c #7CB646",
"s. c #7DB947",
"d. c #83884D",
"f. c #899E4B",
"g. c #91AB4E",
"h. c #8FBD4C",
"j. c #90BD4C",
"k. c #99BC4F",
"l. c #9BA550",
"z. c #A1AB52",
"x. c #A7B254",
"c. c #ABB555",
"v. c #A3827D",
"b. c #A88479",
"n. c #BE8B7C",
"m. c #C18E7F",
"M. c #D58C7C",
"N. c #E2947D",
"B. c #91C04C",
"V. c #9DC350",
"C. c #B2CC56",
"Z. c #B6CD58",
"A. c #B9CD59",
"S. c #B8D158",
"D. c #C1CD5B",
"F. c #C4D35C",
"G. c #C9D55D",
"H. c #CCD85E",
"J. c #D1DD5F",
"K. c #3E788F",
"L. c #525982",
"P. c #585F8A",
"I. c #57608A",
"U. c #5A628C",
"Y. c #5F7D8C",
"T. c #716980",
"R. c #647F8C",
"E. c #616993",
"W. c #937C87",
"Q. c #3E859B",
"!. c #45889C",
"~. c #AB8B88",
"^. c #B59492",
"/. c #B29EA8",
"(. c #B7A1AB",
"). c #C08E80",
"_. c #C79884",
"`. c #C99A86",
"'. c #CC9D88",
"]. c #CFA08C",
"[. c #D8A48E",
"{. c #C8A396",
"}. c #D8A492",
"|. c #D7A998",
" X c #D9AB99",
".X c #E3AE94",
"XX c #FDBA9A",
"oX c #C4B4B6",
"OX c #FFC4A1",
"+X c #FFCEA9",
/* pixels */
"G.G.G.G.G.G.G.H.J.z.e   . . . . . . .     9 z.J.H.G.G.G.G.G.G.G.",
"G.G.G.G.G.G.G.D.c.w.D = = = = = = s f f f Y d.c.D.G.G.G.G.G.G.G.",
"G.G.G.G.G.G.H.c._ D v n n n n n n H X.L.L.[ Y _ c.H.G.G.G.G.G.G.",
"G.G.G.G.G.A.c.w.k f m | |  .X.X.X.L.U.E.E.X.z k w.c.A.G.G.G.G.G.",
"G.G.G.G.G.x._ k v m J | K  .I.E.E.U.L.X.X. .H v k _ x.G.G.G.G.G.",
"G.G.G.G.H.l.8 + n K K |  .L.U.E.E.P. .J K | | n + 8 l.H.G.G.G.G.",
"G.G.G.G.H.l.8 + b J J  .P.U.L.X.X...| K K | | n @ 8 l.H.G.G.G.G.",
"G.G.G.G.H.l.9 s { T.T.T.E.I. .J K K | | | | | n @ 9 l.H.G.G.G.G.",
"G.G.G.G.H.l.8 j v. X X^.T. .| K K | | | | | | n @ 9 l.H.G.G.G.G.",
"G.G.G.G.H.l.8 B `.OX.X~.} m J | K J J K K | | n @ 9 l.H.G.G.G.G.",
"G.G.G.G.H.l.8 V `..X;.W l x H | J J J J K | | n @ 9 l.H.G.G.G.G.",
"G.G.G.G.H.l.8 V `.].W s R Q ' ' +.T.@.+...| | n @ 9 l.H.G.G.G.G.",
"G.G.G.G.H.l.8 U '.'.U j <.b.Q Q ~. X|.~.+.K K n @ 9 l.H.G.G.G.G.",
"G.G.G.G.H.l.7 N n.n.N U '.}.o.Q ).XXOX|.T.J K n @ 9 l.H.G.G.G.G.",
"G.G.G.G.H.l.3 , >.>., U '. X@.] >.N.XX XT.K K n @ 9 l.H.G.G.G.G.",
"G.G.G.G.H.x._ T #.~ : j :.v.{ ] >.M.[.~.} m J n = 9 l.H.G.G.G.G.",
"G.G.G.G.G.D.c.d.r : o ; j j ; R m.}.W.{ h f H n = 9 l.H.G.G.G.G.",
"G.G.G.F.Z.C.S.g.r % X ; j B B ) b.v.o.c , g G n @ 7 f.S.G.G.G.G.",
"G.G.G.Z.h.a.s.y.7.w % j :.`.`.b.) N M Z S / ' n @ 1 7.B.S.G.G.G.",
"G.F.A.V.p.9.9.q.u.4.- V '.+X+X[.` U o.=.#.( ' x 2 0 5.p.V.A.F.G.",
"G.A.j.p.r.q.q.q.u.4.- V '.+X+XXX[.{.oX(.,.~ g 2 t 6.8.r.p.j.A.G.",
"C.V.p.9.q.q.q.0.6.w % j :.`._._.`.{.oX/.-.A $ 1 5.u.q.q.9.p.V.C.",
"a.p.t.q.q.q.u.6.0 * X ; j U U B B E O.O.! 5 # 1 5.u.q.q.q.t.p.a.",
"9.q.q.q.q.8.6.y 4 $ o O = i i i p x R W ! A 5 e u 6.8.q.q.q.q.9.",
"9.q.q.q.q.6.0 4 S C $ = F L L P K.!.!.R.-.&.%.^ 6 0 6.q.q.q.q.9.",
"a.p.t.q.q.3.< $ C S 5 l G ..L I K.Q.Q.Y.<.1.1.$.> < 3.q.q.t.p.a.",
"C.V.p.q.q.3.1 . $ 5 S S l d d d h a a R *.1.2.$.> < 3.q.q.p.V.C.",
"G.A.j.p.t.5.0 1 1 4 S C $ X & 1 - - - 6 ^ $.$.^ 4 0 5.t.p.j.A.G.",
"G.F.A.V.p.8.5.3.4.y 4 $ . % t 5.4.3.5.y 6 > > 4 y 6.8.p.V.A.F.G.",
"G.G.G.A.h.a.s.a.i.6.0 1 1 q 6.u.u.u.u.6.0 < < q e.s.a.h.A.G.G.G.",
"G.G.G.F.Z.C.C.V.p.8.6.3.3.6.8.q.q.q.q.8.6.3.3.e.k.C.C.Z.F.G.G.G.",
"G.G.G.G.G.G.G.C.a.q.q.u.u.q.q.q.q.q.q.q.q.q.q.s.C.G.G.G.G.G.G.G."
};
