/* XPM */
static const char *Mw__[] = {
/* columns rows colors chars-per-pixel */
"32 32 180 2 ",
"   c #0F142E",
".  c #11192C",
"X  c #171732",
"o  c #1A1A33",
"O  c #171C3C",
"+  c #1A1F3E",
"@  c #271C35",
"#  c #291D35",
"$  c #1C2D2F",
"%  c #1C203E",
"&  c #22372E",
"*  c #23392F",
"=  c #28253A",
"-  c #332238",
";  c #372438",
":  c #3D2C3D",
">  c #233731",
",  c #253B31",
"<  c #2B3C32",
"1  c #29393E",
"2  c #3F303D",
"3  c #3C3C39",
"4  c #3B4237",
"5  c #3E4438",
"6  c #2F5332",
"7  c #355735",
"8  c #3C5A37",
"9  c #3D6936",
"0  c #404638",
"q  c #455D3A",
"w  c #456E3B",
"e  c #496F3A",
"r  c #4E753E",
"t  c #60683F",
"y  c #232644",
"u  c #252948",
"i  c #263049",
"p  c #393E42",
"a  c #34364F",
"s  c #3D3448",
"d  c #282E52",
"f  c #2C3255",
"g  c #343A55",
"h  c #313A58",
"j  c #2F3861",
"k  c #333A62",
"l  c #383F68",
"z  c #463B45",
"x  c #483C46",
"c  c #4B3F4A",
"v  c #5B3748",
"b  c #433852",
"n  c #603E47",
"m  c #763F4D",
"M  c #3A4157",
"N  c #374068",
"B  c #394169",
"V  c #3C4772",
"C  c #3F4873",
"Z  c #4A4F46",
"A  c #414749",
"S  c #4C414B",
"D  c #5D444C",
"F  c #4F5347",
"G  c #494258",
"H  c #564A59",
"J  c #554B5D",
"K  c #74424D",
"L  c #774B4B",
"P  c #674A57",
"I  c #616941",
"U  c #444868",
"Y  c #594C67",
"T  c #4B516E",
"R  c #56536C",
"E  c #414A74",
"W  c #494F76",
"Q  c #464E79",
"!  c #4B5076",
"~  c #47507A",
"^  c #4B537D",
"/  c #5C5372",
"(  c #65576A",
")  c #635F7B",
"_  c #7D6461",
"`  c #68627B",
"'  c #756073",
"]  c #70687F",
"[  c #824D51",
"{  c #86565C",
"}  c #995657",
"|  c #915B60",
" . c #9E6363",
".. c #8D716F",
"X. c #806678",
"o. c #A46662",
"O. c #A8696A",
"+. c #A86F70",
"@. c #A37E75",
"#. c #4E863A",
"$. c #4F883A",
"%. c #50883B",
"&. c #54923C",
"*. c #5A943D",
"=. c #608E3F",
"-. c #5FA43E",
";. c #5FA93E",
":. c #60A63E",
">. c #63AC3F",
",. c #64B03F",
"<. c #7C854C",
"1. c #689842",
"2. c #67AC40",
"3. c #69AD41",
"4. c #65B040",
"5. c #68B040",
"6. c #74B244",
"7. c #7CB546",
"8. c #7EB947",
"9. c #899E4B",
"0. c #8CA74C",
"q. c #8FBD4C",
"w. c #90BD4C",
"e. c #99BA4F",
"r. c #9BA651",
"t. c #A7B254",
"y. c #AAB454",
"u. c #A68279",
"i. c #B98578",
"p. c #BD8A7A",
"a. c #D88575",
"s. c #D38B7A",
"d. c #E2947D",
"f. c #91C04C",
"g. c #9DC350",
"h. c #B2CB56",
"j. c #B6CD58",
"k. c #B9CD59",
"l. c #B9D058",
"z. c #C1CC5B",
"x. c #C5D35C",
"c. c #C9D55D",
"v. c #CDD95E",
"b. c #515982",
"n. c #585F8A",
"m. c #5A6E87",
"M. c #57608A",
"N. c #5A628C",
"B. c #6D6883",
"V. c #65688E",
"C. c #716980",
"Z. c #616993",
"A. c #917A85",
"S. c #898C9C",
"D. c #94929F",
"F. c #AA8983",
"G. c #AE8F8D",
"H. c #BF8F86",
"J. c #AE908F",
"K. c #B59492",
"L. c #959FAF",
"P. c #989FB0",
"I. c #C08D80",
"U. c #C69A85",
"Y. c #C99B87",
"T. c #C7948A",
"R. c #CC9D89",
"E. c #D59F8E",
"W. c #CFA08C",
"Q. c #DBA48E",
"!. c #D4A695",
"~. c #D6A999",
"^. c #D9AB99",
"/. c #E6A790",
"(. c #E2AD93",
"). c #FAB496",
"_. c #FFB998",
"`. c #FEC19F",
"'. c #FFC4A1",
"]. c #FFCDA8",
/* pixels */
"c.c.c.c.c.c.c.c.c.c.v.v.v.v.v.v.v.v.v.v.v.v.c.c.c.c.c.c.c.c.c.c.",
"c.c.c.c.c.c.c.c.c.z.t.r.r.r.r.r.r.r.r.r.r.t.k.c.c.c.c.c.c.c.c.c.",
"c.c.c.c.c.c.c.c.v.y.I 5 5 0 0 0 0 0 0 5 5 I y.v.c.c.c.c.c.c.c.c.",
"c.c.c.c.c.c.c.z.y.<.p O + + + + + % y u y A <.y.z.c.c.c.c.c.c.c.",
"c.c.c.c.c.c.v.y.I p g k k k k k k B ~ b.b.T A t y.v.c.c.c.c.c.c.",
"c.c.c.c.c.k.y.<.p u l E E Q ^ ^ ^ b.N.Z.Z.^ d p <.y.k.c.c.c.c.c.",
"c.c.c.c.c.t.I p g l V E C ~ M.Z.Z.N.b.^ ^ Q B g p I t.c.c.c.c.c.",
"c.c.c.c.v.r.4 O k C C E Q b.N.Z.Z.n.Q V C E E k O 4 r.v.c.c.c.c.",
"c.c.c.c.v.r.5 O j V V Q n.N.b.^ ^ ~ E C C E E k + 5 r.v.c.c.c.c.",
"c.c.c.c.v.r.5 y R C.C.B.V.M.~ V C C E E E E E k + 5 r.v.c.c.c.c.",
"c.c.c.c.v.r.4 s u.^.^.K.B.Q E C C E E E E E E k + 5 r.v.c.c.c.c.",
"c.c.c.c.v.r.4 c U.'.(.F./ l V E C V V C C E E k + 5 r.v.c.c.c.c.",
"c.c.c.c.v.r.4 c Y.(...H a f B E V V V V C E E k + 5 r.v.c.c.c.c.",
"c.c.c.c.v.r.4 c Y.W.H u S J U U ) C.] ) ! E E k + 5 r.v.c.c.c.c.",
"c.c.c.c.v.r.4 S Y.Y.S s @.u.J J F.^.~.G.) C C k + 5 r.v.c.c.c.c.",
"c.c.c.c.v.r.4 x p.p.z x R.!.( J I._.'.~.] V C k + 5 r.v.c.c.c.c.",
"c.c.c.c.v.r.4 : o.o.: z Y.!.` Y O.d._.^.] V C k + 5 r.v.c.c.c.c.",
"c.c.c.x.l.0.q 3 L [ D _ Q.~.B./ +.s.E.J.` C C k % 4 9.l.x.c.c.c.",
"c.c.c.k.q.3.*.w 3 D @.(.`.!.` ) T.Q.A.) W E E k % < =.f.l.c.c.c.",
"c.x.k.g.6.>.,.&.6 Z u.R.Y.u.' X.T.H.( l V E E k % , #.6.g.k.x.c.",
"c.k.w.6.2.>.>.-.&.r F S x D { O.O.| v b U E E k % , #.5.6.w.k.c.",
"h.g.6.;.>.>.>.>.4.$.* o a H { } o. .{ P G N C k + , #.>.>.6.g.h.",
"7.6.3.>.>.>.>.>.4.#.& g S.D.H D i./.Q.u.S u N l + , #.>.>.3.6.7.",
";.>.>.>.>.>.>.>.4.#.& M P.L.M z U.].].Y.S O f h 1 7 &.>.>.>.>.;.",
";.>.>.>.>.>.>.>.4.$.* i m.m.i x U.].].R.S   O 1 w &.-.>.>.>.>.;.",
"7.6.3.>.>.>.>.-.&.e 3 s R U = x p.).).p.x . $ 7 &.4.>.>.>.3.6.7.",
"h.g.6.;.>.>.>.&.7 3 n L { P = 2 o.a.a.o.: $ 9 &.:.>.>.>.;.6.g.h.",
"c.k.w.6.2.>.>.#.> @ v K m v @ - K } } L 3 7 &.4.>.>.>.2.6.w.k.c.",
"c.x.k.g.6.>.>.#.> X # - - # X o - ; ; 3 e &.:.>.>.;.;.6.g.k.x.c.",
"c.c.c.k.q.7.8.1.8 , , , , , , , , , , 7 &.4.>.3.6.7.7.q.k.c.c.c.",
"c.c.c.x.j.h.h.e.1.#.#.#.$.$.%.%.#.#.#.&.-.>.>.6.g.h.h.j.x.c.c.c.",
"c.c.c.c.c.c.c.h.8.>.2.2.4.4.4.4.4.4.4.>.>.>.>.7.h.c.c.c.c.c.c.c."
};
