/* XPM */
static char *_aef2b2a4c7a49268df20c7a8888ec66FzmG21VD5MCJ2wmB[] = {
/* columns rows colors chars-per-pixel */
"16 16 5 1 ",
"  c #14182E",
". c #63AB3F",
"X c #FF8933",
"o c #C8D45D",
"O c #FFEE83",
/* pixels */
"oooooooooooooooo",
"oooooooooooooooo",
"oooooooooooooooo",
"oooooooooooooooo",
"oooooooooooooooo",
"oooooo    oooooo",
"ooooo OOOO ooooo",
"ooooo OOOO ooooo",
"ooooo OOOO ooooo",
"ooooo XXXX ooooo",
"ooooo.    .ooooo",
"oooooo....oooooo",
"oooooooooooooooo",
"oooooooooooooooo",
"oooooooooooooooo",
"oooooooooooooooo"
};
