/* XPM */
static char *b5c5c1ffd13648c68ff391c15d88f5f8LtWjpecDRF8eCSnT[] = {
/* columns rows colors chars-per-pixel */
"16 16 13 1 ",
"  c #14182E",
". c #52333F",
"X c #2C354D",
"o c #404973",
"O c #8F4D57",
"+ c #BD6A62",
"@ c #63AB3F",
"# c #C8D45D",
"$ c #4C6885",
"% c #686F99",
"& c #4FA4B8",
"* c #FFC2A1",
"= c #DFE0E8",
/* pixels */
"#####      #####",
"#### oooooo ####",
"### %oooooo% ###",
"### o%oooo%o ###",
"### oo****oo ###",
"## *oXX**XXo* ##",
"## *X* ** *X* ##",
"### o* ++ *o ###",
"### o+****+o ###",
"## *=.O++O.=* ##",
"# *+ .O==O. +* #",
"@ ** OO==OO ** @",
"@@    $&&$    @@",
"#@@@ ++  ++ @@@#",
"##@@@  @@  @@@##",
"####@@@@@@@@####"
};
