/* XPM */
static char *f1deab5cf2ae455d9fb752681882fcfbLTQtFvFUaeuzNLxF[] = {
/* columns rows colors chars-per-pixel */
"16 16 12 1 ",
"  c #14182E",
". c #52333F",
"X c #2B2B45",
"o c #404973",
"O c #8F4D57",
"+ c #BD6A62",
"@ c #63AB3F",
"# c #C8D45D",
"$ c #686F99",
"% c #4FA4B8",
"& c #FFC2A1",
"* c #DFE0E8",
/* pixels */
"#####      #####",
"#### oooo$$ ####",
"### ooo$$ooo ###",
"### oo$ooooo ###",
"### &&oooooo ###",
"### &XXooooo ###",
"### & &X&&oo ###",
"### + &o+&oo ###",
"#### &&o&ooo ###",
"##@@@  +. oo @##",
"#@@@ *O. * o @@#",
"@@@@ *O +&  @@@@",
"@@@@ %% && @@@@@",
"#@@@@ ++  @@@@@#",
"##@@@@  @@@@@@##",
"####@@@@@@@@####"
};
