/* XPM */
static char *b9260fb42e4d41cc941488d74be1abdad5fECGmr30lCoVUz[] = {
/* columns rows colors chars-per-pixel */
"16 16 12 1 ",
"  c #14182E",
". c #52333F",
"X c #2B2B45",
"o c #404973",
"O c #8F4D57",
"+ c #BD6A62",
"@ c #63AB3F",
"# c #C8D45D",
"$ c #686F99",
"% c #4FA4B8",
"& c #FFC2A1",
"* c #DFE0E8",
/* pixels */
"#####      #####",
"#### $$oooo ####",
"### ooo$$ooo ###",
"### ooooo$oo ###",
"### oooooo&& ###",
"### oooooXX& ###",
"### oo&&X& & ###",
"### oo&+o& + ###",
"### ooo&o&& ####",
"##@ oo .+  @@@##",
"#@@ o * .O* @@@#",
"@@@@  &+ O* @@@@",
"@@@@@ && %% @@@@",
"#@@@@@  ++ @@@@#",
"##@@@@@@  @@@@##",
"####@@@@@@@@####"
};
