/* XPM */
static char *_fad3de03801437ee456461b76ea37deIvELI8cxOZGZ0K8t[] = {
/* columns rows colors chars-per-pixel */
"16 16 12 1 ",
"  c #14182E",
". c #52333F",
"X c #2C354D",
"o c #404973",
"O c #8F4D57",
"+ c #BD6A62",
"@ c #63AB3F",
"# c #C8D45D",
"$ c #4C6885",
"% c #686F99",
"& c #4FA4B8",
"* c #FFC2A1",
/* pixels */
"#####      #####",
"#### oooooo ####",
"### %oooooo% ###",
"### o%oooo%o ###",
"### oooooooo ###",
"## *oooooooo* ##",
"## *oooooooo* ##",
"### oooooooo ###",
"### oooooooo ###",
"## *XooooooX* ##",
"# *+ XooooX +* #",
"@ ** ..OO.. ** @",
"@@    $&&$    @@",
"#@@@ ++  ++ @@@#",
"##@@@  @@  @@@##",
"####@@@@@@@@####"
};
