/* XPM */
static char *xpm_[] = {
/* columns rows colors chars-per-pixel */
"32 32 145 2 ",
"   c #0E122B",
".  c #13162C",
"X  c #181A2E",
"o  c #191931",
"O  c #1E1C31",
"+  c #151C3A",
"@  c #1B1F3F",
"#  c #1C2D2F",
"$  c #1F352F",
"%  c #1D233E",
"&  c #20352E",
"*  c #24382E",
"=  c #202036",
"-  c #322336",
";  c #3C283B",
":  c #233631",
">  c #253931",
",  c #2C3C3A",
"<  c #333C35",
"1  c #45303F",
"2  c #413F39",
"3  c #3B4236",
"4  c #335534",
"5  c #3E6A36",
"6  c #414439",
"7  c #476F3B",
"8  c #4D733D",
"9  c #1F2645",
"0  c #1F344D",
"q  c #1C3750",
"w  c #2A2D42",
"e  c #232D49",
"r  c #3D2E43",
"t  c #2B3846",
"y  c #27304C",
"u  c #3D3243",
"i  c #292E52",
"p  c #383C57",
"a  c #333D5E",
"s  c #333B61",
"d  c #473747",
"f  c #413A46",
"g  c #4B3C4A",
"h  c #5A3C4F",
"j  c #473F51",
"k  c #3B4142",
"l  c #3C4662",
"z  c #3B446C",
"x  c #3D4772",
"c  c #3F4873",
"v  c #3E5775",
"b  c #4C4F46",
"n  c #41474A",
"m  c #50464E",
"M  c #4E5147",
"N  c #5F574B",
"B  c #5F584B",
"V  c #494354",
"C  c #41425C",
"Z  c #564A51",
"A  c #5E4A58",
"S  c #5C525B",
"D  c #794B4C",
"F  c #60594B",
"G  c #79485A",
"H  c #5D6640",
"J  c #606740",
"K  c #626940",
"L  c #464766",
"P  c #424669",
"I  c #53496B",
"U  c #49526C",
"Y  c #575263",
"T  c #404974",
"R  c #475974",
"E  c #47507A",
"W  c #49517B",
"Q  c #615C6E",
"!  c #775C68",
"~  c #625E79",
"^  c #9B5757",
"/  c #A05F5D",
"(  c #866066",
")  c #846671",
"_  c #9E7C71",
"`  c #A76A69",
"'  c #4D8639",
"]  c #4F8B3A",
"[  c #528E3B",
"{  c #5C8B3E",
"}  c #54913C",
"|  c #5EA43E",
" . c #5FA93E",
".. c #63AC3F",
"X. c #65B03F",
"o. c #7E874D",
"O. c #67AC40",
"+. c #68AD41",
"@. c #66B040",
"#. c #6BB241",
"$. c #75B344",
"%. c #7BB546",
"&. c #888D4F",
"*. c #859B4A",
"=. c #97A24F",
"-. c #8FBD4C",
";. c #90BD4C",
":. c #9BA550",
">. c #9FA951",
",. c #A1AB52",
"<. c #A6B153",
"1. c #AAB555",
"2. c #A68474",
"3. c #A5847B",
"4. c #92C14D",
"5. c #9DC350",
"6. c #B2CB56",
"7. c #B6CD58",
"8. c #BBCC59",
"9. c #BAD159",
"0. c #C1CC5B",
"q. c #C5D35C",
"w. c #C9D55D",
"e. c #CDD95E",
"r. c #D1DD5F",
"t. c #D2DE60",
"y. c #3E778F",
"u. c #525A85",
"i. c #526A81",
"p. c #59618B",
"a. c #5D6590",
"s. c #497D94",
"d. c #746A81",
"f. c #607287",
"g. c #3D839A",
"h. c #5D8699",
"j. c #6294A5",
"k. c #A98883",
"l. c #CD9C89",
"z. c #D09E8B",
"x. c #D3A38E",
"c. c #DBA990",
"v. c #DEAE9C",
"b. c #E1AC92",
"n. c #FFC2A1",
/* pixels */
"w.w.w.q.w.w.0.e.e.,.6   . . . . . . . .   3 >.t.e.w.w.w.w.w.w.w.",
"w.w.w.w.w.w.w.0.1.&.k @ % 9 % % = e % % % k o.1.8.e.w.w.w.w.q.w.",
"w.w.w.q.w.w.e.1.K k p s s s s s s l s s l p u K 1.t.w.w.0.w.w.w.",
"w.w.w.w.w.8.1.&.n i s T T T T E T T T T T z i n o.1.8.w.w.w.q.w.",
"w.w.w.w.w.<.J n U W E T T T T T T T T T T E u.U n J 1.w.w.w.w.w.",
"w.w.w.w.e.:.3 9 u.a.u.E T T T T T T T T E u.a.W e < :.e.e.w.w.w.",
"w.w.w.w.e.:.3 @ s u.a.p.W c T P T T c E u.a.u.s @ < :.w.w.w.w.w.",
"w.w.w.e.e.,.3 + s W p.u.W c T T T T c W p.p.W s + 6 >.e.w.w.q.w.",
"w.w.q.w.e.>.3 + s T u.E T T T T T T T T T u.T s + 3 >.t.w.w.w.w.",
"w.w.w.8.1.&.F V P c c x T T T T T T T T c c c P V F &.1.8.w.w.w.",
"w.w.e.<.H N 2.k.~ x x c T x T T T T T T c x x ~ k.3.F H <.e.w.w.",
"w.e.w.=.< g l.v.d.x x c T T T T x T c T T x x d.b.z.g < =.e.w.w.",
"w.w.e.:.< d l.v.d.x x T T c T T T T T T T c x d.b.l.d < =.e.w.w.",
"w.w.w.<.H N 2.k.~ x c c T T T T T T T T T T x ~ k.2.F H <.w.w.w.",
"w.w.w.8.1.&.B V P c T T T T T x T T T T T T T P C F &.1.8.w.w.w.",
"w.w.w.e.t.>.3 + s c T T T c T T T T x T T T T s @ < >.t.e.w.w.w.",
"w.w.w.e.r.,.< + s T T T T T T x T c T T T T T a + 3 ,.t.e.w.w.w.",
"w.w.w.0.1.&.F j l z T T T T T T T P T c c c x l j N &.1.0.w.w.w.",
"w.w.e.<.8 F 2.3.Y a z T T T T T T T T T c z a Y 3.2.F 8 <.e.w.w.",
"w.w.0.*.< g l.x.A e a z x T T T c T T x z a y S x.z.g < *.8.w.w.",
"e.9.4.{ > g l.x.m % y l T T T T c c x x s y % Z x.z.g > { ;.8.e.",
"6.1.#.' $ g l.c.( u w y p L I I I I I C p w X 1 _ 2.M 4 ] %.5.6.",
"%.$.X.' $ g l.n.b._ u # r h G G G G h d d 1 O O u b 8 } } ..$.%.",
" .....} 4 M _ l.l.2.V y f A ! ) ) ! A d 1 - o X # 4 } #.X.......",
" . .....[ 8 b g m n U v R ~ h.j.j.h.i.P w o . : 5 } ..........| ",
"%.$.......} 4 & $ t l v v v y.g.g.s.f.Q g - o > [ X.........$.%.",
"6.5.$. .....[ ] ' 7 , w 0 0 0 q q l ( ` / D - : ' @.......$.;.8.",
"e.9.-.$.......X.@.{ 4 * $ * * * & 2 D ^ ^ D 2 4 [ ....+.$.;.8.e.",
"w.q.8.5.$.| ....X...{ ' ' ' ' ' ' 8 2 ; ; 6 8 } | ..| $.;.8.w.w.",
"w.w.w.8.;.%.%.$.X.X...X.X.X.X...X.} 4 * $ 4 } #.$.%.%.-.8.e.w.w.",
"w.w.w.0.8.6.6.;.X.X.....X...........[ ' ' } | %.5.6.6.7.0.e.w.w.",
"w.w.w.w.w.e.e.8.*...................X.X.O... .%.6.e.e.e.w.w.w.0."
};
