/* XPM */
static char *xpm_[] = {
/* columns rows colors chars-per-pixel */
"32 32 141 2 ",
"   c #131A2E",
".  c #131930",
"X  c #1C1A30",
"o  c #161C3B",
"O  c #1A1F3E",
"+  c #1C2D2F",
"@  c #1E332F",
"#  c #1A233B",
"$  c #20362F",
"%  c #25392F",
"&  c #212034",
"*  c #322437",
"=  c #3D263B",
"-  c #223731",
";  c #253930",
":  c #333D34",
">  c #413F39",
",  c #3C4237",
"<  c #3E4438",
"1  c #335534",
"2  c #3C6836",
"3  c #404538",
"4  c #4B6F39",
"5  c #4C743D",
"6  c #60683F",
"7  c #1F2445",
"8  c #1F2843",
"9  c #1D374F",
"0  c #1F3750",
"q  c #212D46",
"w  c #2B2E45",
"e  c #252E4A",
"r  c #24334D",
"t  c #3D3343",
"y  c #393F41",
"u  c #292E52",
"i  c #2B3551",
"p  c #333A57",
"a  c #333D5D",
"s  c #323A61",
"d  c #403743",
"f  c #443D4A",
"g  c #4C3C4A",
"h  c #384055",
"j  c #374662",
"k  c #3B446B",
"l  c #3B4C6D",
"z  c #3C516F",
"x  c #3D4772",
"c  c #3F4872",
"v  c #4C4F46",
"b  c #41474A",
"n  c #50464E",
"m  c #4D5146",
"M  c #5F574B",
"N  c #414557",
"B  c #484153",
"V  c #564A51",
"C  c #5E545C",
"Z  c #794B4C",
"A  c #60594B",
"S  c #5E6641",
"D  c #626A41",
"F  c #404362",
"G  c #424669",
"H  c #4C526E",
"J  c #575263",
"K  c #404772",
"L  c #404973",
"P  c #45537B",
"I  c #49517B",
"U  c #455E7D",
"Y  c #615B6D",
"T  c #625E79",
"R  c #7F6561",
"E  c #62697A",
"W  c #9B5757",
"Q  c #A05F5D",
"!  c #866066",
"~  c #9E7D71",
"^  c #A86968",
"/  c #4C8539",
"(  c #4F8B3A",
")  c #518F3B",
"_  c #54923B",
"`  c #62933F",
"'  c #5DA43E",
"]  c #5FA93E",
"[  c #63AC3F",
"{  c #65B03F",
"}  c #7D864D",
"|  c #659840",
" . c #68AD40",
".. c #66B040",
"X. c #6AB141",
"o. c #75B444",
"O. c #7BB546",
"+. c #7DB847",
"@. c #898E4F",
"#. c #8BA24B",
"$. c #97A24F",
"%. c #8FBD4C",
"&. c #93BC4E",
"*. c #9CA651",
"=. c #9EA851",
"-. c #A6B153",
";. c #AAB455",
":. c #A58473",
">. c #A6847C",
",. c #93C34D",
"<. c #9EC450",
"1. c #B2CB56",
"2. c #B6CD58",
"3. c #BBCD59",
"4. c #BCD35A",
"5. c #C1CC5B",
"6. c #C5D35C",
"7. c #C9D55D",
"8. c #CDD95E",
"9. c #D0DC5F",
"0. c #3F778E",
"q. c #455E83",
"w. c #525A85",
"e. c #456286",
"r. c #4A6E8D",
"t. c #59618B",
"y. c #5D6590",
"u. c #4B7D93",
"i. c #746A81",
"p. c #617286",
"a. c #3F8399",
"s. c #4C87A2",
"d. c #4D93AC",
"f. c #A98983",
"g. c #CD9C89",
"h. c #D19E8B",
"j. c #D3A38E",
"k. c #DAA890",
"l. c #DEAE9C",
"z. c #E0AB90",
"x. c #FEC1A0",
/* pixels */
"7.7.7.6.7.6.7.7.7.7.8.8.8.8.9.8.8.9.7.9.9.8.7.7.7.7.5.7.7.7.7.7.",
"7.6.7.7.7.7.7.7.7.5.;.*.*.=.*.=.=.*.=.*.=.;.5.8.7.7.7.7.7.7.5.7.",
"7.7.7.7.7.7.6.7.8.;.6 3 3 3 3 3 3 3 3 3 : D ;.9.7.7.5.7.7.7.7.7.",
"7.6.7.6.7.7.7.5.;.} y O o O O O O O O o O y } ;.5.8.8.7.7.7.7.7.",
"7.7.7.7.7.7.9.;.6 : p s s s s s s s s s s p : D ;.9.7.7.7.7.7.7.",
"7.7.7.7.7.5.-.@.h u s I P L L L L L P L I s u b @.;.3.7.7.5.7.7.",
"7.7.7.7.7.;.S b H w.L x L L L L L L L L K L w.H h 6 -.7.7.7.7.7.",
"6.7.7.7.7.*.: 7 I y.w.w.L K L L L L L L I w.y.I q : *.8.7.7.7.7.",
"7.6.7.7.7.*., O k w.y.w.L c c c L L c L w.y.w.s O > *.7.7.7.7.7.",
"7.7.7.7.9.=., O s P y.w.w.L L L L K K w.t.t.w.s o , *.9.8.7.6.7.",
"7.7.7.8.9.=., O s L w.P L L c L L c K L w.I L s o < =.9.7.7.7.7.",
"7.7.7.5.;.@.A f G K x x L L L K L L c c x x c G g A @.;.3.7.6.7.",
"6.7.7.-.S M :.f.T c c c c L L L L L L L K c x T f.:.A S -.8.7.7.",
"7.7.7.$.: g g.l.i.c c c L c L c c L L c L x x i.l.g.g : *.7.7.7.",
"7.7.8.*.: g g.l.i.x x c L L c L K L L L L x x i.l.g.f : $.9.8.7.",
"7.7.8.-.S M :.f.T c x c K L L L L L L c K x x T f.:.M S -.7.7.7.",
"7.7.7.5.;.@.M B G L L L c L c L c L L c L L L G B A @.;.3.7.7.7.",
"7.7.7.7.4.#., o s L L L L L L L L L L L L L L s o : #.4.7.7.7.7.",
"7.7.8.3.,._ - o s L L L L L L L c L L c L L L s o - | ,.4.7.7.7.",
"7.6.4.&.| 5 m g F l c L c L L L L L L L L c G F B m 5 | &.3.6.7.",
"7.3.,.` 1 v :.>.J a k L L L L L L L L L L k a J >.:.m 1 | ,.2.8.",
"2.<.o./ @ n g.j.C e a k K K K K K x K c l s e C k.h.g @ 5 o.<.1.",
"+.o.../ $ g g.g.n # e a k K K K K K L k a i # V j.h.g @ / { o.+.",
"] ] [ / - g g.k.R f h j z P e.e.e.q.P l i # . d ~ :.m 1 _ [ [ ] ",
"] [ { / @ g g.x.z.f.E U U r.s.d.d.s.r.l q .   & t v 5 _ [ [ [ [ ",
"O.o.{ ( 1 m ~ g.j.>.E z z U 0.a.a.u.p.Y g * X   + 1 _ { [  .o.O.",
"1.<.o.' _ 5 v g g f w q 8 q r 0 9 N ! ^ Q Z * + 2 _ ' [ [ o.&.1.",
"7.3.&.o.{ ) 1 @ $ ; ; ; % % % % % > Z W W Z b 1 ) [ [ [ X.&.3.8.",
"7.6.2.<.o.' ( / 5 ( / / / ( / / ( 4 3 = = 3 4 _ ' [ ' o.&.3.7.7.",
"7.7.7.2.%.+.+.o. .[ [ { X.[ [  .[ _ 1 % $ 1 _ X.O.O.O.%.3.8.7.7.",
"7.7.7.6.2.1.1.<.O.[ [ [ [ [ [ [ [ [ ) / / _ ' O.<.1.1.3.5.7.7.7.",
"7.7.7.7.7.8.8.1.O.[ [ [ [ [ [ [ [  .[ X. .[ [ O.1.7.8.7.7.7.7.7."
};
