/* XPM */
static char *xpm_[] = {
/* columns rows colors chars-per-pixel */
"32 32 140 2 ",
"   c #0E122B",
".  c #13162C",
"X  c #181A2E",
"o  c #191931",
"O  c #1E1C31",
"+  c #151C3A",
"@  c #1B1F3F",
"#  c #1F352F",
"$  c #1D233E",
"%  c #20352E",
"&  c #24382E",
"*  c #202036",
"=  c #322336",
"-  c #3C283B",
";  c #233631",
":  c #253931",
">  c #2C3C3A",
",  c #333C35",
"<  c #45303F",
"1  c #413F39",
"2  c #3B4236",
"3  c #335534",
"4  c #414439",
"5  c #476F3B",
"6  c #4D733D",
"7  c #1F2645",
"8  c #1F344D",
"9  c #1C3750",
"0  c #2A2D42",
"q  c #232D49",
"w  c #3D2E43",
"e  c #27304C",
"r  c #3D3243",
"t  c #292E52",
"y  c #383C57",
"u  c #333D5E",
"i  c #333B61",
"p  c #473747",
"a  c #413A46",
"s  c #4B3C4A",
"d  c #5A3C4F",
"f  c #473F51",
"g  c #3B4142",
"h  c #3C4662",
"j  c #3B446C",
"k  c #3D4772",
"l  c #3F4873",
"z  c #3E5775",
"x  c #41474A",
"c  c #50464E",
"v  c #4E5147",
"b  c #5F574B",
"n  c #5F584B",
"m  c #494354",
"M  c #41425C",
"N  c #564A51",
"B  c #5E4A58",
"V  c #5C525B",
"C  c #794B4C",
"Z  c #60594B",
"A  c #79485A",
"S  c #60555D",
"D  c #5D6640",
"F  c #606740",
"G  c #626940",
"H  c #464766",
"J  c #424669",
"K  c #53496B",
"L  c #49526C",
"P  c #575263",
"I  c #404974",
"U  c #475974",
"Y  c #47507A",
"T  c #49517B",
"R  c #615C6E",
"E  c #775C68",
"W  c #625E79",
"Q  c #7F6562",
"!  c #9B5757",
"~  c #A05F5D",
"^  c #866066",
"/  c #846671",
"(  c #9E7C71",
")  c #A76A69",
"_  c #4D8639",
"`  c #4F8B3A",
"'  c #528E3B",
"]  c #5C8B3E",
"[  c #54913C",
"{  c #5EA43E",
"}  c #5FA93E",
"|  c #63AC3F",
" . c #65B03F",
".. c #7E874D",
"X. c #67AC40",
"o. c #68AD41",
"O. c #75B344",
"+. c #7BB546",
"@. c #888D4F",
"#. c #859B4A",
"$. c #97A24F",
"%. c #8FBD4C",
"&. c #90BD4C",
"*. c #9BA550",
"=. c #9FA951",
"-. c #A1AB52",
";. c #A6B153",
":. c #AAB555",
">. c #A68474",
",. c #A5847B",
"<. c #92C14D",
"1. c #9DC350",
"2. c #B2CB56",
"3. c #B6CD58",
"4. c #BBCC59",
"5. c #BAD159",
"6. c #C1CC5B",
"7. c #C5D35C",
"8. c #C9D55D",
"9. c #CDD95E",
"0. c #D1DD5F",
"q. c #D2DE60",
"w. c #525A85",
"e. c #526A81",
"r. c #59618B",
"t. c #5D6590",
"y. c #497D94",
"u. c #746A81",
"i. c #607287",
"p. c #3D839A",
"a. c #5D8699",
"s. c #6294A5",
"d. c #A98883",
"f. c #CD9C89",
"g. c #D09E8B",
"h. c #D3A38E",
"j. c #DBA990",
"k. c #DEAE9C",
"l. c #E1AC92",
"z. c #FFC2A1",
/* pixels */
"8.8.8.7.8.8.6.9.9.-.4   . . . . . . . .   2 =.q.9.8.8.8.8.8.8.8.",
"8.8.8.8.8.8.8.6.:.@.g @ $ 7 $ $ * q $ $ $ g ..:.4.9.8.8.8.8.7.8.",
"8.8.8.7.8.8.9.:.G g y i i i i i i h i i h y r G :.q.8.8.6.8.8.8.",
"8.8.8.8.8.4.:.@.x t i I I I I Y I I I I I j t x ..:.4.8.8.8.7.8.",
"8.8.8.8.8.;.F x L T Y I I I I I I I I I I Y w.L x F :.8.8.8.8.8.",
"8.8.8.8.9.*.2 7 w.t.w.Y I I I I I I I I Y w.t.T q , *.9.9.8.8.8.",
"8.8.8.8.9.*.2 @ i w.t.r.T l I J I I l Y w.t.w.i @ , *.8.8.8.8.8.",
"8.8.8.9.9.-.2 + i T r.w.T l I I I I l T r.r.T i + 4 =.9.8.8.7.8.",
"8.8.7.8.9.=.2 + i I w.Y I I I I I I I I I w.I i + 2 =.q.8.8.8.8.",
"8.8.8.4.:.@.Z m J l l k I I I I I I I I l l l J m Z @.:.4.8.8.8.",
"8.8.9.;.D b >.d.W k k l I k I I I I I I l k k W d.,.Z D ;.9.8.8.",
"8.9.8.$., s f.k.u.k k l I I I I k I l I I k k u.l.g.s , $.9.8.8.",
"8.8.9.*., p f.k.u.k k I I l I I I I I I I l k u.l.f.p , $.9.8.8.",
"8.8.8.;.D b >.d.W k l l I I I I I I I I I I k W d.>.Z D ;.8.8.8.",
"8.8.8.4.:.@.n m J l I I I I I k I I I I I I I J M Z @.:.4.8.8.8.",
"8.8.8.9.q.=.2 + i l I I I l I I I I k I I I I i @ , =.q.9.8.8.8.",
"8.8.8.8.0.-., + i I I I I I l I I l I I I I I u + , -.q.9.8.8.8.",
"8.8.8.6.:.@.Z f J j k I k I I I I J I l I l j J f Z @.:.6.8.8.8.",
"8.8.8.;.6 Z >.,.P u j I I I I I I I I I I j u P ,.>.Z 6 ;.9.8.8.",
"8.8.4.#., d f.h.S q i j I I l I l I I k j u q V h.f.s , #.4.8.8.",
"8.5.<.] : c f.h.N + e u k I I l l l l k u e + c g.f.s & ] <.5.9.",
"2.1.O.' 3 v >.( a X = y M H K K K K K i e 0 a Q j.f.s # 6 O.1.2.",
"+.O. .| [ 6 v - * * - p p d A A A A d w * a >.l.z.f.s # _  .+.+.",
"| | | |  .[ 3 # X O = < s B E / / E B p 0 m ,.f.f.>.v 3 '  .| } ",
"{ { | | | | ' 5 % o o = h e.a.s.s.a.W U U L m s p v 6 [ | | | { ",
"+.O.| | |  .| _ ; o = p R i.y.p.p.p.z z z h > % # 3 [  .|  .O.+.",
"2.1.O.{ | | | ` % = C ~ ) ^ M 9 9 9 8 7 7 g 5 _ _ [ { | | O.1.2.",
"8.4.&.O. .| | ' 3 1 C ! ! C 4 : # # : # # 3 [ o.| | } | O.&.4.8.",
"8.7.3.1.O.| { { [ 5 4 < < 1 6 ` ` ` _ ` _ [ | | | } { O.1.4.7.8.",
"8.8.8.4.&.+.+.O. .[ 3 & % 3 [ |  . .| | | | | X.O.+.+.%.2.8.8.8.",
"8.8.8.7.4.2.2.1.%.{ [ _ 6 [ | | | | |  .| | | O.1.2.2.4.7.8.8.8.",
"8.8.8.8.8.8.9.2. .| |  . . .| | | | | | | | | +.2.9.8.8.8.7.8.8."
};
