/* XPM */
static char *xpm_[] = {
/* columns rows colors chars-per-pixel */
"32 32 136 2 ",
"   c #131930",
".  c #1C1A30",
"X  c #161C3B",
"o  c #1A1F3E",
"O  c #1C2D2F",
"+  c #1E332F",
"@  c #1A233B",
"#  c #20362F",
"$  c #25392F",
"%  c #212034",
"&  c #322437",
"*  c #3D263B",
"=  c #223731",
"-  c #253930",
";  c #333D34",
":  c #413F39",
">  c #3C4237",
",  c #3E4438",
"<  c #335534",
"1  c #3C6836",
"2  c #404538",
"3  c #4B6F39",
"4  c #4C743D",
"5  c #60683F",
"6  c #1F2445",
"7  c #1F3750",
"8  c #212D46",
"9  c #2B2E45",
"0  c #252E4A",
"q  c #24334D",
"w  c #393F41",
"e  c #292E52",
"r  c #2B3551",
"t  c #333A57",
"y  c #333D5D",
"u  c #323A61",
"i  c #403743",
"p  c #443D4A",
"a  c #4C3C4A",
"s  c #384055",
"d  c #374662",
"f  c #3B446B",
"g  c #3B4C6D",
"h  c #3C516F",
"j  c #3D4772",
"k  c #3F4872",
"l  c #4C4F46",
"z  c #41474A",
"x  c #50464E",
"c  c #4D5146",
"v  c #5F574B",
"b  c #414557",
"n  c #484153",
"m  c #564A51",
"M  c #5E545C",
"N  c #794B4C",
"B  c #60594B",
"V  c #5E6641",
"C  c #626A41",
"Z  c #404362",
"A  c #424669",
"S  c #4C526E",
"D  c #575263",
"F  c #404772",
"G  c #404973",
"H  c #45537B",
"J  c #49517B",
"K  c #455E7D",
"L  c #615B6D",
"P  c #625E79",
"I  c #62697A",
"U  c #9B5757",
"Y  c #A05F5D",
"T  c #866066",
"R  c #9E7D71",
"E  c #A86968",
"W  c #4C8539",
"Q  c #4F8B3A",
"!  c #518F3B",
"~  c #54923B",
"^  c #62933F",
"/  c #5DA43E",
"(  c #5FA93E",
")  c #63AC3F",
"_  c #65B03F",
"`  c #7D864D",
"'  c #659840",
"]  c #68AD40",
"[  c #66B040",
"{  c #6AB141",
"}  c #75B444",
"|  c #7BB546",
" . c #7DB847",
".. c #898E4F",
"X. c #8BA24B",
"o. c #97A24F",
"O. c #8FBD4C",
"+. c #93BC4E",
"@. c #9CA651",
"#. c #9EA851",
"$. c #A6B153",
"%. c #AAB455",
"&. c #A58473",
"*. c #A6847C",
"=. c #93C34D",
"-. c #9EC450",
";. c #B2CB56",
":. c #B6CD58",
">. c #BBCD59",
",. c #BCD35A",
"<. c #C1CC5B",
"1. c #C5D35C",
"2. c #C9D55D",
"3. c #CDD95E",
"4. c #D0DC5F",
"5. c #3F778E",
"6. c #455E83",
"7. c #525A85",
"8. c #456286",
"9. c #4A6E8D",
"0. c #59618B",
"q. c #5D6590",
"w. c #4B7D93",
"e. c #746A81",
"r. c #617286",
"t. c #3F8399",
"y. c #4C87A2",
"u. c #4D93AC",
"i. c #A98983",
"p. c #CD9C89",
"a. c #D19E8B",
"s. c #D3A38E",
"d. c #DAA890",
"f. c #DEAE9C",
"g. c #E0AB90",
"h. c #FEC1A0",
/* pixels */
"2.2.2.1.2.1.2.2.2.2.3.3.3.3.4.3.3.4.2.4.4.3.2.2.2.2.<.2.2.2.2.2.",
"2.1.2.2.2.2.2.2.2.<.%.@.@.#.@.#.#.@.#.@.#.%.<.3.2.2.2.2.2.2.<.2.",
"2.2.2.2.2.2.1.2.3.%.5 2 2 2 2 2 2 2 2 2 ; C %.4.2.2.<.2.2.2.2.2.",
"2.1.2.1.2.2.2.<.%.` w o X o o o o o o X o w ` %.<.3.3.2.2.2.2.2.",
"2.2.2.2.2.2.4.%.5 ; t u u u u u u u u u u t ; C %.4.2.2.2.2.2.2.",
"2.2.2.2.2.<.$...s e u J H G G G G G H G J u e z ..%.>.2.2.<.2.2.",
"2.2.2.2.2.%.V z S 7.G j G G G G G G G G F G 7.S s 5 $.2.2.2.2.2.",
"1.2.2.2.2.@.; 6 J q.7.7.G F G G G G G G J 7.q.J 8 ; @.3.2.2.2.2.",
"2.1.2.2.2.@.> o f 7.q.7.G k k k G G k G 7.q.7.u o : @.2.2.2.2.2.",
"2.2.2.2.4.#.> o u H q.7.7.G G G G F F 7.0.0.7.u X > @.4.3.2.1.2.",
"2.2.2.3.4.#.> o u G 7.H G G k G G k F G 7.J G u X , #.4.2.2.2.2.",
"2.2.2.<.%...B p A F j j G G G F G G k k j j k A a B ..%.>.2.1.2.",
"1.2.2.$.V v &.i.P k k k k G G G G G G G F k j P i.&.B V $.3.2.2.",
"2.2.2.o.; a p.f.e.k k k G k G k k G G k G j j e.f.p.a ; @.2.2.2.",
"2.2.3.@.; a p.f.e.j j k G G k G F G G G G j j e.f.p.p ; o.4.3.2.",
"2.2.3.$.V v &.i.P k j k F G G G G G G k F j j P i.&.v V $.2.2.2.",
"2.2.2.<.%...B p A G k G G k G G k G G k G G G A n B ..%.>.2.2.2.",
"2.2.2.1.1.X.; X u G G G G G G k G G G G G G G u X > X.1.3.2.2.2.",
"2.2.2.,.=.' = X u G G G G k G G k G G k G G F u X $ ~ =.,.2.2.2.",
"2.1.:.+./ V l p d k k G G G F G G G G G G F f Z n l 4 ' +.:.1.2.",
"2.,.O.' < c &.i.D t f G G F G G G G F G G f y D *.&.c < ' +.:.3.",
";.-.} W + a a.d.M r u f k G k F F j F F g u 8 M s.a.a + W } -.;.",
"| } [ W + a a.s.m @ r s f k F F F F G g y 0 X x a.p.a = W [ } | ",
"( ( [ Q < c &.R i   @ r f H 6.8.8.6.H G d s z T d.p.a # W ) ) ) ",
"( ( ( / ~ V c w %     8 g 9.y.u.u.y.9.K K I i.g.h.p.a + W _ ) ( ",
"| } ] ] [ ~ < O   . & a L r.w.t.t.5.K g h I i.a.p.R c < Q [ } | ",
";.-.} ( ) / ! 1 O & N Y E T b 7 7 q 8 8 8 9 p a a l 4 ~ / } -.;.",
"2.>.O.} [ _ _ ~ < 2 N U U N 2 $ $ $ - $ $ $ $ # + < ~ _ } +.>.2.",
"3.<.:.-.{ ( [ / ~ 4 2 * : 2 3 ! Q W Q W W W W W W Q / } -.>.1.2.",
"2.2.3.>.O.| | } } ~ < - % < ~ _ _ ) _ _ ) ) _ { }  .} O.:.2.2.2.",
"2.2.2.<.:.;.;.-.| ~ ! W W ~ ^ _ ) ) ) ) ) ) ) } -.:.;.>.1.2.2.2.",
"2.2.2.2.2.3.3.;.| ) _ { _ ) ) ) ) ) ) ) ) ) ) | ;.3.2.2.2.2.2.1."
};
