/* XPM */
static const char *MA__[] = {
/* columns rows colors chars-per-pixel */
"32 32 188 2 ",
"   c #0E122B",
".  c #13152C",
"X  c #1C182D",
"o  c #181933",
"O  c #161C3C",
"+  c #191F3E",
"@  c #251B33",
"#  c #2D1E35",
"$  c #301F37",
"%  c #1D223E",
"&  c #1E3430",
"*  c #24382F",
"=  c #2B2135",
"-  c #38273A",
";  c #223631",
":  c #223831",
">  c #2F3A34",
",  c #383C37",
"<  c #39393A",
"1  c #472A39",
"2  c #413F39",
"3  c #3B4237",
"4  c #3E4438",
"5  c #335634",
"6  c #385936",
"7  c #41423A",
"8  c #4D453D",
"9  c #53483F",
"0  c #4A6B3A",
"q  c #4C733B",
"w  c #1D314B",
"e  c #1C344E",
"r  c #262944",
"t  c #3A3D42",
"y  c #393549",
"u  c #282F53",
"i  c #2F3456",
"p  c #343B57",
"a  c #2F3961",
"s  c #333B62",
"d  c #363F68",
"f  c #473B46",
"g  c #4B3E49",
"h  c #573143",
"j  c #5E3B45",
"k  c #673844",
"l  c #743F4E",
"z  c #3B4242",
"x  c #3F4659",
"c  c #3A4269",
"v  c #3C4772",
"b  c #3F4873",
"n  c #3C5E7A",
"m  c #4D414A",
"M  c #464B48",
"N  c #594448",
"B  c #4D5246",
"V  c #5E584C",
"C  c #474456",
"Z  c #534754",
"A  c #564A57",
"S  c #554B5E",
"D  c #664A4F",
"F  c #72434A",
"G  c #7B4E4C",
"H  c #684A57",
"J  c #7E4E52",
"K  c #5E6640",
"L  c #616941",
"P  c #454769",
"I  c #554A66",
"U  c #4B526A",
"Y  c #5A5468",
"T  c #414A74",
"R  c #464E79",
"E  c #465377",
"W  c #4B537D",
"Q  c #655562",
"!  c #7A5964",
"~  c #635F7A",
"^  c #56607A",
"/  c #7B6360",
"(  c #6B6076",
")  c #70687F",
"_  c #84444E",
"`  c #894A54",
"'  c #995556",
"]  c #97555A",
"[  c #A45D5A",
"{  c #A6625E",
"}  c #865966",
"|  c #916C6C",
" . c #8A6D74",
".. c #A66A65",
"X. c #A96E6D",
"o. c #BA6A64",
"O. c #A57777",
"+. c #B57774",
"@. c #C6786C",
"#. c #4D863A",
"$. c #4F893A",
"%. c #518D3A",
"&. c #56893C",
"*. c #54923C",
"=. c #5DA33E",
"-. c #5FA93E",
";. c #63AC3F",
":. c #7C854C",
">. c #699A42",
",. c #68AE40",
"<. c #66B040",
"1. c #6BB241",
"2. c #75B344",
"3. c #7CB546",
"4. c #7DB947",
"5. c #848A4D",
"6. c #849B4A",
"7. c #8FBD4C",
"8. c #90BE4C",
"9. c #9ABC4F",
"0. c #9BA550",
"q. c #9EA952",
"w. c #A1AB52",
"e. c #A7B354",
"r. c #AAB555",
"t. c #ADB856",
"y. c #9F8171",
"u. c #A6837A",
"i. c #BE8A7B",
"p. c #CE8C7B",
"a. c #E2947E",
"s. c #92C14D",
"d. c #9DC450",
"f. c #ADC455",
"g. c #B2CC56",
"h. c #B6CD58",
"j. c #B9CD59",
"k. c #BAD159",
"l. c #C1CD5B",
"z. c #C4D35C",
"x. c #C9D55D",
"c. c #CCD85E",
"v. c #D1DD5F",
"b. c #3D778F",
"n. c #525982",
"m. c #585F8A",
"M. c #5A628C",
"N. c #5B6888",
"B. c #6B6887",
"V. c #716980",
"C. c #616993",
"Z. c #8F7F8B",
"A. c #3D8198",
"S. c #468599",
"D. c #60869A",
"F. c #5C91A1",
"G. c #6F9DAC",
"H. c #6FAEBF",
"J. c #71B8C9",
"K. c #93808A",
"L. c #878D97",
"P. c #AB8B87",
"I. c #BA9189",
"U. c #B29FA9",
"Y. c #9CAAB6",
"T. c #B8A6AE",
"R. c #B1B2BE",
"E. c #C99886",
"W. c #CA9B86",
"Q. c #CB9C88",
"!. c #D59A84",
"~. c #DAA78E",
"^. c #CAA393",
"/. c #D7A895",
"(. c #DAAC9A",
"). c #E9AD94",
"_. c #FCBC9B",
"`. c #C6A6AC",
"'. c #C2B4B7",
"]. c #F9BFA2",
"[. c #FFC4A1",
"{. c #FFCEA9",
"}. c #B4B8C3",
"|. c #CFBFC8",
" X c #BFD8E3",
".X c #CFC2C8",
"XX c #C0D8E3",
"oX c #EAEBF3",
/* pixels */
"x.x.x.x.x.x.x.c.v.w.4     . . . . . . .   7 w.v.c.x.x.x.x.x.x.x.",
"x.x.x.x.x.x.x.l.r.5.M r r r r % % % % % % z :.r.l.x.x.x.x.x.x.x.",
"x.x.x.x.x.x.c.r.L M U n.n.W c s s s s s s p z L r.c.x.x.x.x.x.x.",
"x.x.x.x.x.j.r.:.t u W C.C.M.n.W W W T T T d r t :.r.j.x.x.x.x.x.",
"x.x.x.x.x.e.L t p c R W W n.M.C.C.M.R b T v d p t L e.x.x.x.x.x.",
"x.x.x.x.c.0.3 O s T T b v R m.C.C.M.n.R b b b s O 3 0.c.x.x.x.x.",
"x.x.x.x.c.0.3 + s T T b b T W W W n.M.m.R v v a O 3 0.c.x.x.x.x.",
"x.x.x.x.c.0.4 + s T T T T T b b v R M.C.B.V.V.Y r 4 0.c.x.x.x.x.",
"x.x.x.x.c.0.4 + s T T T T T T b b T R B.I.(.(.u.y 3 0.c.x.x.x.x.",
"x.x.x.x.c.0.4 + s T T b b v v b T v d Y P.).[.W.g 3 0.c.x.x.x.x.",
"x.x.x.x.c.0.4 + s T T b v v v v T c i y Z | ).W.g 3 0.c.x.x.x.x.",
"x.x.x.x.c.0.4 + s T T E ~ ) V.~ P P S C r A Q.W.g 3 0.c.x.x.x.x.",
"x.x.x.x.c.0.4 + s b v ~ P./.(.P.S S u.O.y m Q.Q.m 3 0.c.x.x.x.x.",
"x.x.x.x.c.0.4 % s b b ) /.[._.I.S Q /.Q.g f i.i.f 3 0.c.x.x.x.x.",
"x.x.x.x.c.0.4 % s b b V.(._.a.X.I ( /.W.f - ....- , 0.c.x.x.x.x.",
"x.x.x.c.c.q.3 O u s a Y u.!.p.+. .K.(.~./ N J G 9 L e.c.x.x.x.x.",
"x.x.x.c.v.q.3   O + O r N | !.).(.).]._.~.O.N 8 5.t.l.x.x.x.x.x.",
"x.x.x.l.r.5.V g g m m Z Q  .E.).).).Q.!.).p.D 8 5.e.f.h.z.x.x.x.",
"x.x.c.e.K V u.W.W.W.W.^.'.T.+.o.@...D D X.@.{ G N 0 >.8.j.c.x.x.",
"x.z.k.6.> f W.{.{._.~.^.'.U.| ] +.O.Y Z J [ o.' - & #.2.d.j.z.x.",
"c.k.s.&.; f W.{.{.~./ Z Q ! ` X.`..X}.L.A j [ ' - & #.,.2.8.j.c.",
"g.d.2.$.5 B y.Q.Q.| < X 1 k _ O.|.oXoXR.x = F G 7 5 *.;.;.2.d.g.",
"3.2.,.=.*.q B m m y o @ k _ ` O.|.oXoXR.C . @ 7 q *.=.;.;.,.2.3.",
"-.;.;.;.<.%.: . @ = r y H } } Z.}.XX XY.Y - - 7 q *.=.;.;.;.;.-.",
"-.;.;.;.<.$.: @ h H U E ^ N.D.G.H.J.J.G. .' ' G 7 5 *.;.;.;.;.-.",
"3.2.,.;.;.#.: = l } ( ^ E n b.A.A.S.F.L.+.o.[ F # ; #.;.;.,.2.3.",
"g.d.2.;.;.#.: $ l ] } H y w e e e x  .+.@.[ j = o ; #.;.;.2.d.g.",
"c.j.8.2.,.%.5 , j l l j , * * * * 2 G ' ' G 4 : : 5 %.,.2.8.j.c.",
"x.z.j.d.2.=.*.0 , # # , 0 %.$.#.$.0 2 - - , q $.#.%.=.2.d.j.z.x.",
"x.x.c.j.7.3.4.>.6 ; ; 5 *.<.<.<.<.*.5 ; ; 5 *.1.3.4.3.7.j.c.x.x.",
"x.x.x.z.h.g.g.9.>.#.#.*.=.;.;.;.;.=.*.#.#.*.=.2.d.g.g.h.z.x.x.x.",
"x.x.x.x.x.c.c.g.4.;.;.;.;.;.;.;.;.;.;.<.<.;.;.3.g.c.c.x.x.x.x.x."
};
