/* XPM */
static const char *Mg__[] = {
/* columns rows colors chars-per-pixel */
"32 32 192 2 ",
"   c #0E122A",
".  c #13152C",
"X  c #151D2D",
"o  c #19182F",
"O  c #171A31",
"+  c #171C3D",
"@  c #1A1F3E",
"#  c #241A33",
"$  c #291C34",
"%  c #1D2F2F",
"&  c #1F302F",
"*  c #1E2F30",
"=  c #1C223E",
"-  c #23392F",
";  c #202134",
":  c #2A2238",
">  c #3A253A",
",  c #392B3E",
"<  c #223630",
"1  c #233931",
"2  c #283A3A",
"3  c #383F37",
"4  c #3B3C39",
"5  c #462C3D",
"6  c #403F39",
"7  c #374036",
"8  c #3B4237",
"9  c #3E4438",
"0  c #335635",
"q  c #395936",
"w  c #3D6936",
"e  c #404439",
"r  c #4D523D",
"t  c #416C39",
"y  c #496F3A",
"u  c #4A703B",
"i  c #1D2A43",
"p  c #1C344B",
"a  c #1E3851",
"s  c #242743",
"d  c #222B45",
"f  c #252B49",
"g  c #372C44",
"h  c #27334D",
"j  c #3C3542",
"k  c #3A3D42",
"l  c #363249",
"z  c #282E52",
"x  c #2D3955",
"c  c #373556",
"v  c #343B57",
"b  c #2F3861",
"n  c #343B63",
"m  c #363F68",
"M  c #453446",
"N  c #463946",
"B  c #4B3E47",
"V  c #4C3F4A",
"C  c #5D3446",
"Z  c #523548",
"A  c #633946",
"S  c #643C49",
"D  c #3B4242",
"F  c #344264",
"G  c #3D4665",
"H  c #3A4269",
"J  c #3C4772",
"K  c #3F4873",
"L  c #3E5571",
"P  c #3D5F7A",
"I  c #3F607B",
"U  c #4D414A",
"Y  c #434949",
"T  c #524548",
"R  c #494554",
"E  c #594A54",
"W  c #564959",
"Q  c #544B5E",
"!  c #66434D",
"~  c #73424A",
"^  c #7A4D4D",
"/  c #674357",
"(  c #794556",
")  c #695657",
"_  c #616941",
"`  c #77605E",
"'  c #494668",
"]  c #574B67",
"[  c #4D536D",
"{  c #55526C",
"}  c #5A566F",
"|  c #414A74",
" . c #464E79",
".. c #465277",
"X. c #4B537D",
"o. c #665665",
"O. c #725560",
"+. c #635F7A",
"@. c #6F667C",
"#. c #8F535D",
"$. c #975557",
"%. c #9B5856",
"&. c #A25A57",
"*. c #9B605F",
"=. c #805C66",
"-. c #90656C",
";. c #8D716F",
":. c #99776F",
">. c #A66A68",
",. c #A06A73",
"<. c #A17873",
"1. c #C96E64",
"2. c #CA7065",
"3. c #4E863A",
"4. c #4F893A",
"5. c #518C3A",
"6. c #588A3C",
"7. c #54923C",
"8. c #5B953E",
"9. c #5DA33E",
"0. c #5FA93E",
"q. c #60A63E",
"w. c #63AC3F",
"e. c #7C854C",
"r. c #689A42",
"t. c #68AE40",
"y. c #73AD44",
"u. c #66B140",
"i. c #6CB442",
"p. c #75B244",
"a. c #7CB646",
"s. c #7DB947",
"d. c #83884D",
"f. c #899E4B",
"g. c #91AB4E",
"h. c #8FBD4C",
"j. c #90BD4C",
"k. c #99BC4F",
"l. c #9BA550",
"z. c #A1AB52",
"x. c #A7B254",
"c. c #ABB555",
"v. c #A3827D",
"b. c #A88479",
"n. c #BE8B7C",
"m. c #C18E7F",
"M. c #D58C7C",
"N. c #E2947D",
"B. c #91C04C",
"V. c #9DC350",
"C. c #B2CC56",
"Z. c #B6CD58",
"A. c #B9CD59",
"S. c #B8D158",
"D. c #C1CD5B",
"F. c #C4D35C",
"G. c #C9D55D",
"H. c #CCD85E",
"J. c #D1DD5F",
"K. c #3E788F",
"L. c #525982",
"P. c #585F8A",
"I. c #57608A",
"U. c #5A628C",
"Y. c #5F7D8C",
"T. c #407890",
"R. c #6B6887",
"E. c #716980",
"W. c #647F8C",
"Q. c #616993",
"!. c #937C87",
"~. c #3E859B",
"^. c #45889C",
"/. c #AB8B88",
"(. c #B59492",
"). c #B29EA8",
"_. c #B7A1AB",
"`. c #C08E80",
"'. c #C79884",
"]. c #C99A86",
"[. c #CC9D88",
"{. c #CFA08C",
"}. c #D8A48E",
"|. c #C8A396",
" X c #D8A492",
".X c #D7A998",
"XX c #D9AB99",
"oX c #E3AE94",
"OX c #FDBA9A",
"+X c #C4B4B6",
"@X c #FFC4A1",
"#X c #FFCEA9",
/* pixels */
"G.G.G.G.G.G.G.H.J.z.9     . . . . . . .   e z.J.H.G.G.G.G.G.G.G.",
"G.G.G.G.G.G.G.D.c.d.Y f f f s = = = = = = D e.c.D.G.G.G.G.G.G.G.",
"G.G.G.G.G.G.H.c._ Y [ L.L.X.H n n n n n n v D _ c.H.G.G.G.G.G.G.",
"G.G.G.G.G.A.c.e.k z X.Q.Q.U.L.X.X.X.| | | m f k e.c.A.G.G.G.G.G.",
"G.G.G.G.G.x._ k v H  .X.X.L.U.Q.Q.I. .K | J m v k _ x.G.G.G.G.G.",
"G.G.G.G.H.l.8 + n | | K J  .P.Q.Q.U.L. .| K K n + 8 l.H.G.G.G.G.",
"G.G.G.G.H.l.8 @ n | | K K | ..X.X.L.U.P. .J K b + 8 l.H.G.G.G.G.",
"G.G.G.G.H.l.9 @ n | | | | | K K J  .I.Q.R.E.E.{ s 9 l.H.G.G.G.G.",
"G.G.G.G.H.l.9 @ n | | | | | | K K |  .R.(.XXXXv.j 8 l.H.G.G.G.G.",
"G.G.G.G.H.l.9 @ n | | K K J J K | J m } /.oX@X].B 8 l.H.G.G.G.G.",
"G.G.G.G.H.l.9 @ n | | K J J J J | H x l W ;.oX].V 8 l.H.G.G.G.G.",
"G.G.G.G.H.l.9 @ n | | ..+.@.E.+.' ' Q R s W {.].V 8 l.H.G.G.G.G.",
"G.G.G.G.H.l.9 @ n K K +./..XXX/.Q Q b.<.j U ].].U 8 l.H.G.G.G.G.",
"G.G.G.G.H.l.9 @ n K K E..X@XOX`.Q o. X[.U N n.n.N 8 l.H.G.G.G.G.",
"G.G.G.G.H.l.9 @ n K K E.XXOXN.>.] @.XX[.U , >.>., 3 l.H.G.G.G.G.",
"G.G.G.G.H.l.9 = n J m } /.}.M.>.] { v.:.j : ~ ^ T _ x.H.G.G.G.G.",
"G.G.G.G.H.l.9 = n H f h { !. Xm.R ; j j ; o : r d.c.D.G.G.G.G.G.",
"G.G.G.F.S.f.7 @ n G g , c o.v.b.) B B j ; X % r g.S.C.Z.F.G.G.G.",
"G.G.G.S.B.6.1 @ n ' / S Z M N ) b.[.].:.j % w 8.y.s.a.h.Z.G.G.G.",
"G.F.A.V.p.5.0 2 x ' ( #.=.o.U ` }.#X#X[.V - 4.u.w.0.0.p.V.A.F.G.",
"G.A.j.p.t.9.7.t 2 g ~ ,._.+X|.}.OX#X#X[.V - 4.u.w.w.w.t.p.j.A.G.",
"C.V.p.0.w.w.u.5.1 $ A -.).+X|.].'.].].:.j % w 7.q.w.w.w.0.p.V.C.",
"a.p.t.w.w.w.u.5.1 # 5 ! O.O.E B B U U j ; X * 0 7.u.w.w.w.t.p.a.",
"0.w.w.w.w.q.7.u e 5 A ! E R x p i i i = O o $ 4 y 7.9.w.w.w.w.0.",
"0.w.w.w.w.7.0 6 ^ %.&.-.W.^.^.K.P L L F = $ C S 4 0 7.w.w.w.w.0.",
"a.p.t.w.w.3.< > $.1.1.<.Y.~.~.T.I L ..G l 5 S C $ < 3.w.w.t.p.a.",
"C.V.p.w.w.3.< > $.2.1.*.R a a h d d d l S S 5 $ o < 3.w.w.p.V.C.",
"G.A.j.p.t.5.0 4 ^ $.$.^ 6 - - - 1 & X $ C S 4 1 1 0 5.t.p.j.A.G.",
"G.F.A.V.p.9.7.y 4 > > 6 y 5.3.4.5.t % o $ 4 y 4.3.5.9.p.V.A.F.G.",
"G.G.G.A.h.a.s.r.q < < 0 7.u.u.u.w.7.q 1 1 0 7.i.a.s.a.h.A.G.G.G.",
"G.G.G.F.Z.C.C.k.r.3.3.7.9.w.w.w.w.9.7.3.3.7.9.p.V.C.C.Z.F.G.G.G.",
"G.G.G.G.G.G.G.C.s.w.w.w.w.w.w.w.w.w.w.u.u.w.w.a.C.G.G.G.G.G.G.G."
};
