/* XPM */
static const char *Mw__[] = {
/* columns rows colors chars-per-pixel */
"32 32 180 2 ",
"   c #0F142E",
".  c #11192C",
"X  c #171732",
"o  c #1A1A33",
"O  c #171C3C",
"+  c #1A1F3E",
"@  c #271C35",
"#  c #291D35",
"$  c #1C2D2F",
"%  c #1C203E",
"&  c #22372E",
"*  c #23392F",
"=  c #28253A",
"-  c #332238",
";  c #372438",
":  c #3D2C3D",
">  c #233731",
",  c #253B31",
"<  c #2B3C32",
"1  c #29393E",
"2  c #3F303D",
"3  c #3C3C39",
"4  c #3B4237",
"5  c #3E4438",
"6  c #2F5332",
"7  c #355735",
"8  c #3C5A37",
"9  c #3D6936",
"0  c #404638",
"q  c #455D3A",
"w  c #456E3B",
"e  c #496F3A",
"r  c #4E753E",
"t  c #60683F",
"y  c #232644",
"u  c #252948",
"i  c #263049",
"p  c #393E42",
"a  c #34364F",
"s  c #3D3448",
"d  c #282E52",
"f  c #2C3255",
"g  c #343A55",
"h  c #313A58",
"j  c #2F3861",
"k  c #333A62",
"l  c #383F68",
"z  c #463B45",
"x  c #483C46",
"c  c #4B3F4A",
"v  c #5B3748",
"b  c #433852",
"n  c #603E47",
"m  c #763F4D",
"M  c #3A4157",
"N  c #374068",
"B  c #394169",
"V  c #3C4772",
"C  c #3F4873",
"Z  c #4A4F46",
"A  c #414749",
"S  c #4C414B",
"D  c #5D444C",
"F  c #4F5347",
"G  c #494258",
"H  c #564A59",
"J  c #554B5D",
"K  c #74424D",
"L  c #774B4B",
"P  c #674A57",
"I  c #616941",
"U  c #444868",
"Y  c #594C67",
"T  c #4B516E",
"R  c #56536C",
"E  c #414A74",
"W  c #494F76",
"Q  c #464E79",
"!  c #4B5076",
"~  c #47507A",
"^  c #4B537D",
"/  c #5C5372",
"(  c #65576A",
")  c #635F7B",
"_  c #7D6461",
"`  c #68627B",
"'  c #756073",
"]  c #70687F",
"[  c #824D51",
"{  c #86565C",
"}  c #995657",
"|  c #915B60",
" . c #9E6363",
".. c #8D716F",
"X. c #806678",
"o. c #A46662",
"O. c #A8696A",
"+. c #A86F70",
"@. c #A37E75",
"#. c #4E863A",
"$. c #4F883A",
"%. c #50883B",
"&. c #54923C",
"*. c #5A943D",
"=. c #608E3F",
"-. c #5FA43E",
";. c #5FA93E",
":. c #60A63E",
">. c #63AC3F",
",. c #64B03F",
"<. c #7C854C",
"1. c #689842",
"2. c #67AC40",
"3. c #69AD41",
"4. c #65B040",
"5. c #68B040",
"6. c #74B244",
"7. c #7CB546",
"8. c #7EB947",
"9. c #899E4B",
"0. c #8CA74C",
"q. c #8FBD4C",
"w. c #90BD4C",
"e. c #99BA4F",
"r. c #9BA651",
"t. c #A7B254",
"y. c #AAB454",
"u. c #A68279",
"i. c #B98578",
"p. c #BD8A7A",
"a. c #D88575",
"s. c #D38B7A",
"d. c #E2947D",
"f. c #91C04C",
"g. c #9DC350",
"h. c #B2CB56",
"j. c #B6CD58",
"k. c #B9CD59",
"l. c #B9D058",
"z. c #C1CC5B",
"x. c #C5D35C",
"c. c #C9D55D",
"v. c #CDD95E",
"b. c #515982",
"n. c #585F8A",
"m. c #5A6E87",
"M. c #57608A",
"N. c #5A628C",
"B. c #6D6883",
"V. c #65688E",
"C. c #716980",
"Z. c #616993",
"A. c #917A85",
"S. c #898C9C",
"D. c #94929F",
"F. c #AA8983",
"G. c #AE8F8D",
"H. c #BF8F86",
"J. c #AE908F",
"K. c #B59492",
"L. c #959FAF",
"P. c #989FB0",
"I. c #C08D80",
"U. c #C69A85",
"Y. c #C99B87",
"T. c #C7948A",
"R. c #CC9D89",
"E. c #D59F8E",
"W. c #CFA08C",
"Q. c #DBA48E",
"!. c #D4A695",
"~. c #D6A999",
"^. c #D9AB99",
"/. c #E6A790",
"(. c #E2AD93",
"). c #FAB496",
"_. c #FFB998",
"`. c #FEC19F",
"'. c #FFC4A1",
"]. c #FFCDA8",
/* pixels */
"c.c.c.c.c.c.c.c.c.c.v.v.v.v.v.v.v.v.v.v.v.v.c.c.c.c.c.c.c.c.c.c.",
"c.c.c.c.c.c.c.c.c.k.t.r.r.r.r.r.r.r.r.r.r.t.z.c.c.c.c.c.c.c.c.c.",
"c.c.c.c.c.c.c.c.v.y.I 4 4 0 0 0 0 0 0 5 4 I y.v.c.c.c.c.c.c.c.c.",
"c.c.c.c.c.c.c.z.y.<.A y u y % + + + + + O p <.y.z.c.c.c.c.c.c.c.",
"c.c.c.c.c.c.v.y.t A T b.b.! B k k k k k k g p I y.v.c.c.c.c.c.c.",
"c.c.c.c.c.k.y.<.p d ^ Z.Z.N.b.^ ^ ^ E E E k u p <.y.k.c.c.c.c.c.",
"c.c.c.c.c.t.I p g B Q ^ ^ b.N.Z.Z.M.~ C E V k g p I t.c.c.c.c.c.",
"c.c.c.c.v.r.4 O k E E C V Q n.Z.Z.N.b.Q E C C k O 4 r.v.c.c.c.c.",
"c.c.c.c.v.r.4 + k E E C C E ! ^ ^ b.N.n.Q V V j O 4 r.v.c.c.c.c.",
"c.c.c.c.v.r.5 + k E E E E E C C V ~ M.V.B.C.C.R y 5 r.v.c.c.c.c.",
"c.c.c.c.v.r.5 + k E E E E E E C C E Q B.K.^.^.u.s 4 r.v.c.c.c.c.",
"c.c.c.c.v.r.5 + k E E C C V V C E V l / F.(.'.Y.c 4 r.v.c.c.c.c.",
"c.c.c.c.v.r.5 + k E E C V V V V E B f a G ..(.Y.c 4 r.v.c.c.c.c.",
"c.c.c.c.v.r.5 + k E E ! ) ] C.) U U J S u H W.Y.c 4 r.v.c.c.c.c.",
"c.c.c.c.v.r.5 + k C C ) G.~.^.F.J J u.@.s S R.R.S 4 r.v.c.c.c.c.",
"c.c.c.c.v.r.5 + k C V ] ~.'._.I.J ( !.Y.x z p.p.x 4 r.v.c.c.c.c.",
"c.c.c.c.v.r.5 + k C V ] ^._.d.O.Y ` ~.Y.x : o.o.: 4 r.v.c.c.c.c.",
"c.c.c.x.l.9.4 % k C C ` J.E.s.+./ B.~.Q._ D [ L 3 q 0.l.x.c.c.c.",
"c.c.c.l.f.=.< % k E E W ) A.Q.T.) ` !.`.(.@.D 3 e *.3.q.k.c.c.c.",
"c.x.k.g.6.#., % k E E V l ( H.T.X.' u.Y.R.u.Z 6 &.,.>.6.g.k.x.c.",
"c.k.w.6.5.#., % k E E U b v | O.O.{ D x S F r &.-.>.>.2.6.w.k.c.",
"h.g.6.>.>.#., + k C N G P {  .o.} { H a o * $.4.>.>.>.>.;.6.g.h.",
"7.6.3.>.>.#., + k B u S u.Q./.i.D H D.S.g & #.4.>.>.>.>.>.3.6.7.",
";.>.>.>.>.&.7 1 h f O S Y.].].U.x M L.P.M & #.4.>.>.>.>.>.>.>.;.",
";.>.>.>.>.-.&.w 1 O   S Y.].].U.x i m.m.i * $.4.>.>.>.2.>.>.>.;.",
"7.6.3.>.>.>.4.&.7 $ . x p.).).p.x = U R s 3 e &.-.>.>.2.>.3.6.7.",
"h.g.6.;.>.>.>.:.&.9 $ : o.a.a.o.2 = P { L n 3 7 &.>.>.>.;.6.g.h.",
"c.k.w.6.2.>.>.>.4.&.7 3 L } } K - # v m K v @ > #.>.>.2.6.w.k.c.",
"c.x.k.g.6.;.;.>.>.:.&.e 3 ; ; - o X # - - # X > #.>.>.6.g.k.x.c.",
"c.c.c.k.q.7.7.6.3.>.4.&.7 > > , , , , , , , , 8 1.8.7.q.k.c.c.c.",
"c.c.c.x.j.h.h.g.6.>.>.-.&.#.#.#.%.%.#.$.$.#.#.1.e.h.h.j.x.c.c.c.",
"c.c.c.c.c.c.c.h.7.>.>.>.>.4.4.4.4.4.4.4.4.>.>.8.h.c.c.c.c.c.c.c."
};
