/* XPM */
static char *_ae44f65613544039b908741e1f1e50dNjEhZSDA69jXQC1R[] = {
/* columns rows colors chars-per-pixel */
"32 32 184 2 ",
"   c #161B2D",
".  c #1C1A30",
"X  c #161C3C",
"o  c #1A1F3E",
"O  c #241D32",
"+  c #1F342E",
"@  c #1E3030",
"#  c #21362F",
"$  c #24382E",
"%  c #2B2337",
"&  c #322336",
"*  c #3B293B",
"=  c #273731",
"-  c #253930",
";  c #333C35",
":  c #4C2D3C",
">  c #413F39",
",  c #3B4337",
"<  c #3C4237",
"1  c #325534",
"2  c #3D6A37",
"3  c #404538",
"4  c #4B6F39",
"5  c #4D743D",
"6  c #60683F",
"7  c #1F2744",
"8  c #1C344D",
"9  c #292B44",
"0  c #3B3C43",
"q  c #36334B",
"w  c #292E52",
"e  c #2D3356",
"r  c #373C5A",
"t  c #2D3761",
"y  c #323A62",
"u  c #353F69",
"i  c #433543",
"p  c #483D46",
"a  c #443A49",
"s  c #493C4A",
"d  c #563543",
"f  c #433D50",
"g  c #683B48",
"h  c #733B48",
"j  c #3F4356",
"k  c #3B4267",
"l  c #394169",
"z  c #3C4672",
"x  c #3B5674",
"c  c #4C4F45",
"v  c #41474A",
"b  c #4B404B",
"n  c #4D5047",
"m  c #5E564B",
"M  c #4A4253",
"N  c #494155",
"B  c #534856",
"V  c #534A5C",
"C  c #78484C",
"Z  c #60594B",
"A  c #684C54",
"S  c #784856",
"D  c #65515D",
"F  c #755D5C",
"G  c #5E6741",
"H  c #616941",
"J  c #42466A",
"K  c #4D526C",
"L  c #5C586E",
"P  c #414A75",
"I  c #464F7A",
"U  c #475479",
"Y  c #4B527C",
"T  c #535D77",
"R  c #645664",
"E  c #635B77",
"W  c #71626B",
"Q  c #6E657C",
"!  c #656878",
"~  c #71687F",
"^  c #894751",
"/  c #844A54",
"(  c #9C5B5B",
")  c #9A615D",
"_  c #8D5F66",
"`  c #86696C",
"'  c #9C6C6E",
"]  c #9E7F73",
"[  c #A66964",
"{  c #B56E65",
"}  c #A36F79",
"|  c #A77775",
" . c #D17F70",
".. c #4D8539",
"X. c #4F8A3A",
"o. c #508E3A",
"O. c #5E8C3F",
"+. c #54913B",
"@. c #618F3F",
"#. c #5CA33D",
"$. c #5FA93E",
"%. c #63AD3F",
"&. c #64B03F",
"*. c #788246",
"=. c #7D864D",
"-. c #68AF40",
";. c #66B040",
":. c #6AB241",
">. c #76B444",
",. c #7BB546",
"<. c #7EB947",
"1. c #888D4F",
"2. c #89934E",
"3. c #8BA14B",
"4. c #97A24F",
"5. c #8FBD4C",
"6. c #90BD4C",
"7. c #9CA651",
"8. c #9EA851",
"9. c #A6B153",
"0. c #AAB555",
"q. c #9F8172",
"w. c #A68473",
"e. c #A5827B",
"r. c #BA8879",
"t. c #D28575",
"y. c #93C34D",
"u. c #9DC450",
"i. c #B2CB56",
"p. c #B6CD58",
"a. c #BBCC59",
"s. c #B9D158",
"d. c #C1CC5B",
"f. c #C5D35C",
"g. c #C9D55D",
"h. c #CDDA5E",
"j. c #D0DC5F",
"k. c #3C748D",
"l. c #525A85",
"z. c #575F8A",
"x. c #5A628D",
"c. c #53768C",
"v. c #5D6590",
"b. c #6E6984",
"n. c #65688E",
"m. c #766B85",
"M. c #62788F",
"N. c #8F7482",
"B. c #3C8097",
"V. c #6EA2B5",
"C. c #74B9CA",
"Z. c #A68882",
"A. c #AA8883",
"S. c #BD8786",
"D. c #B59492",
"F. c #9196AA",
"G. c #B9A6AC",
"H. c #AAA3B1",
"J. c #CC8F86",
"K. c #CC9682",
"L. c #C79B87",
"P. c #CC9B89",
"I. c #D99683",
"U. c #E79882",
"Y. c #D2A089",
"T. c #D4A695",
"R. c #DCA991",
"E. c #DAAA98",
"W. c #E6A88E",
"Q. c #E1AC92",
"!. c #F0AB90",
"~. c #EFB49B",
"^. c #F7B195",
"/. c #FDBD9C",
"(. c #DBC0BE",
"). c #FFC9A6",
"_. c #FBC5A8",
"`. c #F9CDB5",
"'. c #AFB6C1",
"]. c #CDBDC6",
"[. c #D0BEC7",
"{. c #EADEDC",
"}. c #C0D8E3",
"|. c #E5E8F0",
/* pixels */
"g.g.g.g.g.g.g.g.g.g.h.h.h.h.h.h.h.h.h.h.h.h.g.g.g.g.g.g.g.g.g.g.",
"g.g.g.g.g.g.g.g.g.d.0.7.7.7.7.7.7.7.7.7.7.0.d.g.g.g.g.g.g.g.g.g.",
"g.g.g.g.g.g.g.g.h.0.H < < 3 3 3 3 3 3 < < H 0.h.g.g.g.g.g.g.g.g.",
"g.g.g.g.g.g.g.d.0.=.0 X o o o o o o o o X 0 =.0.d.g.g.g.g.g.g.g.",
"g.g.g.g.g.g.h.0.6 0 r y y y y y y y y y y r 0 6 0.h.g.g.g.g.g.g.",
"g.g.g.g.g.a.0.=.v w l P P P P P P P P P P l w v =.0.a.g.g.g.g.g.",
"g.g.g.g.g.9.H v K Y I P P P P P P P P P P I Y K v H 9.g.g.g.g.g.",
"g.g.g.g.h.7.< 7 Y v.l.I P z z z z z z P I l.v.Y 7 < 7.h.g.g.g.g.",
"g.g.g.g.h.7.< o l l.x.z.I z z z z z z I z.x.l.l o < 7.h.g.g.g.g.",
"g.g.g.h.h.7.< X y Y x.n.b.~ Q Q Q Q ~ b.n.x.Y y X < 7.h.h.g.g.g.",
"g.g.g.h.j.8.< X y P I b.D.E.T.T.T.T.E.D.b.I P y X < 8.j.h.g.g.g.",
"g.g.g.a.0.1.Z N J z u L A.Q./.).)./.Q.A.L u z J N Z 1.0.a.g.g.g.",
"g.g.g.9.G m w.A.E l e q B ` R.).).R.` B q e l E A.w.m G 9.g.g.g.",
"g.g.h.4.; s P.E.Q k V M 9 B L.).).L.B 9 M V k Q E.P.s ; 4.h.g.g.",
"g.g.h.4.; s P.T.R V e.| 0 b L.).).L.b 0 | e.V R T.P.s ; 4.h.g.g.",
"g.g.g.9.G Z w.e.V R T.P.p i r.^.^.r.i p P.T.R V e.w.Z G 9.g.g.g.",
"g.g.g.a.0.1.Z f r Q E.P.p * ) t.t.) * p P.E.Q r f Z 2.0.d.g.g.g.",
"g.g.g.g.s.3., X t Q P.K.F A [  . .[ A F K.P.Q t X = *.0.d.g.g.g.",
"g.g.g.s.y.@.= X t E | t.K.P.W.!.!.W.Y.K.t.| E y X   = H 0.h.g.g.",
"g.f.p.u.>...# 9 Y m._ { I.~._.`.`._.~.I.{ / V r M p p m 1.0.d.g.",
"g.p.6.>.:...+ r F.H.` C ( S.(.{.{.(.S.( C d % M ] P.P.w.m G 0.h.",
"i.u.>.#.+.5 c W G.G.D : h } ].|.|.].} ^ g : O p r./.).P.a ; 3.p.",
",.>.:.o.1 n q.P.J.' i & h } [.|.|.].} ^ ^ g % * [ U./.P.s = O.<.",
"$.%.%...+ p P./.U.[ s q A N.'.}.}.'.N.S S d % & C [ r.q.n 1 o.%.",
"$.%.%...+ s P.)./.L.! U T M.V.C.C.V.M.K q O . . & * a c 5 +.#.%.",
",.>.:.o.1 c ] P.P.Z.! x x x k.B.B.c.M.L s & .   @ - # 1 +.:.>.,.",
"i.u.>.#.+.5 c s s a 9 7 7 7 8 8 8 j _ [ ( C & @ 2 X...o.#.>.u.i.",
"g.p.6.>.:.+.1 + # - - - - - $ $ $ > C ( ( C > 1 +.&.%.-.>.6.p.g.",
"g.f.p.u.>.#.o...................X.4 > * * 3 5 +.#.%.%.>.u.p.f.g.",
"g.g.g.p.5.,.<.,.:.%.%.%.%.%.%.;.;.+.1 # # 1 +.:.,.,.,.5.p.g.g.g.",
"g.g.g.f.p.i.i.u.>.%.%.%.%.%.%.%.%.#.+.....+.#.>.u.i.i.p.f.g.g.g.",
"g.g.g.g.g.g.g.i.,.%.%.%.%.%.%.%.%.%.%.;.;.%.%.,.i.g.g.g.g.g.g.g."
};
