/* XPM */
static char *_a83710e870445fdc1ef56aa210494f5BKSLCKv5O9SjQ5KF[] = {
/* columns rows colors chars-per-pixel */
"32 32 182 2 ",
"   c #0E122B",
".  c #12162C",
"X  c #171A2E",
"o  c #141B3B",
"O  c #1B1F3F",
"+  c #281E32",
"@  c #1F352F",
"#  c #1D233E",
"$  c #1E3130",
"%  c #22372E",
"&  c #2C2235",
"*  c #38273A",
"=  c #233631",
"-  c #2B3736",
";  c #243931",
":  c #333C35",
">  c #393F36",
",  c #443B3B",
"<  c #3B4236",
"1  c #335534",
"2  c #3F6C37",
"3  c #414439",
"4  c #465D39",
"5  c #476F3B",
"6  c #4D733D",
"7  c #1F2644",
"8  c #1F2B46",
"9  c #1C344D",
"0  c #2B3142",
"q  c #393449",
"w  c #292E52",
"e  c #2C345B",
"r  c #383D59",
"t  c #2D3760",
"y  c #343C62",
"u  c #353F69",
"i  c #433543",
"p  c #473C47",
"a  c #493C49",
"s  c #5A3643",
"d  c #443D50",
"f  c #6A3B48",
"g  c #6C3B48",
"h  c #3B4142",
"j  c #3F4356",
"k  c #3A4466",
"l  c #394169",
"z  c #3C4672",
"x  c #3D5775",
"c  c #4C4F46",
"v  c #41474A",
"b  c #4B404B",
"n  c #5F584B",
"m  c #4A4353",
"M  c #554857",
"N  c #534A5C",
"B  c #79464C",
"V  c #60594B",
"C  c #684C54",
"Z  c #784856",
"A  c #755D5C",
"S  c #5E6640",
"D  c #5F6841",
"F  c #616840",
"G  c #4A526B",
"H  c #5C586E",
"J  c #414A75",
"K  c #464F7A",
"L  c #455379",
"P  c #4B527C",
"I  c #645664",
"U  c #715260",
"Y  c #635A77",
"T  c #6E647C",
"R  c #71687F",
"E  c #8A4C54",
"W  c #9C5959",
"Q  c #9C625D",
"!  c #895C64",
"~  c #9C5B60",
"^  c #896E6D",
"/  c #97696D",
"(  c #9E7F74",
")  c #A86A65",
"_  c #B8726D",
"`  c #A16972",
"'  c #A77974",
"]  c #A6727B",
"[  c #B47370",
"{  c #CA7C6F",
"}  c #4D8639",
"|  c #4F883A",
" . c #528E3B",
".. c #5C8B3E",
"X. c #54923C",
"o. c #5B953D",
"O. c #5EA43E",
"+. c #5FA93E",
"@. c #63AC3F",
"#. c #65B03F",
"$. c #788246",
"%. c #7E874D",
"&. c #67AD40",
"*. c #71AB43",
"=. c #66B140",
"-. c #6BB241",
";. c #75B344",
":. c #7CB546",
">. c #878C4F",
",. c #888D4F",
"<. c #89964D",
"1. c #8DA74C",
"2. c #97A24F",
"3. c #8FBD4C",
"4. c #90BD4C",
"5. c #9BA550",
"6. c #9FA951",
"7. c #A1AB52",
"8. c #A6B153",
"9. c #AAB555",
"0. c #9E8072",
"q. c #A58373",
"w. c #A88674",
"e. c #A5827B",
"r. c #B98779",
"t. c #D28474",
"y. c #E4957F",
"u. c #92C14D",
"i. c #9DC350",
"p. c #B2CB56",
"a. c #B6CD58",
"s. c #BCCC59",
"d. c #BAD159",
"f. c #C1CD5B",
"g. c #C4D35C",
"h. c #C9D55D",
"j. c #CDD95E",
"k. c #D0DC5F",
"l. c #D2DE60",
"z. c #3C748D",
"x. c #535B86",
"c. c #5E6381",
"v. c #5A628D",
"b. c #53768C",
"n. c #5D6590",
"m. c #6E6984",
"M. c #65688E",
"N. c #726D86",
"B. c #62788F",
"V. c #8B7789",
"C. c #3C8097",
"Z. c #6EA2B5",
"A. c #74B9CA",
"S. c #AA8883",
"D. c #B79692",
"F. c #9B9AAB",
"G. c #A397A2",
"H. c #C68783",
"J. c #CA9783",
"K. c #C99A87",
"L. c #CB9C89",
"P. c #D99786",
"I. c #E89983",
"U. c #D2A18A",
"Y. c #C8A69B",
"T. c #D4A695",
"R. c #DCA991",
"E. c #DAAA98",
"W. c #E4AB91",
"Q. c #EDAD93",
"!. c #F0AE92",
"~. c #F7B195",
"^. c #FDBC9C",
"/. c #C6A6AC",
"(. c #FFC6A3",
"). c #FFCDB2",
"_. c #AFB6C1",
"`. c #CABDC6",
"'. c #D5C4CA",
"]. c #ECCDC6",
"[. c #C0D8E3",
"{. c #E6E9F2",
/* pixels */
"h.h.h.h.h.h.h.j.k.7.3   . . . . . . . .   3 7.k.j.h.h.h.h.h.h.h.",
"h.h.h.h.h.h.h.f.9.%.h # # # # # # # # # # h %.9.f.h.h.h.h.h.h.h.",
"h.h.h.h.h.h.j.9.F h r y y y y y y y y y y r h F 9.j.h.h.h.h.h.h.",
"h.h.h.h.h.s.9.%.v w l J J J J J J J J J J l w v %.9.s.h.h.h.h.h.",
"h.h.h.h.h.8.F v G P K J J J J J J J J J J K P G v F 8.h.h.h.h.h.",
"h.h.h.h.j.5.< 7 P n.x.K J z z z z z z J K x.v.P 7 < 5.j.h.h.h.h.",
"h.h.h.h.j.5.< O l x.v.x.K z z z z z z K x.v.x.l O < 5.j.h.h.h.h.",
"h.h.h.j.j.5.< o y P v.M.m.R T T T T R m.M.v.P y o < 5.j.j.h.h.h.",
"h.h.h.j.k.6.< o y J K m.D.E.T.T.T.T.E.D.m.K J y o < 6.k.j.h.h.h.",
"h.h.h.s.9.,.V m J z u H S.W.^.(.(.^.W.S.H u z J m V ,.9.s.h.h.h.",
"h.h.h.8.S n w.S.Y l e q M ^ R.(.(.R.^ M q e l Y S.w.n S 8.h.h.h.",
"h.h.j.2.: a L.E.T k N m 0 M L.(.(.L.M 0 m N k T E.L.a : 2.j.h.h.",
"h.h.j.2.: a L.T.I N e.' q b K.(.(.K.b q ' e.N I T.L.a : 2.j.h.h.",
"h.h.h.8.D V w.e.N I T.L.a q r.~.~.r.i a L.T.I N e.w.n S 8.h.h.h.",
"h.h.h.f.9.,.V d r T E.K.p * Q t.t.Q * p K.E.T r d V ,.9.s.h.h.h.",
"h.h.h.f.9.$.- o t T L.J.A C ) t.t.) C A J.L.T e o < 6.l.j.h.h.h.",
"h.h.j.9.F - X o t Y [ t.J.U.W.!.!.W.U.J.t.[ Y e o < 6.l.j.h.h.h.",
"h.s.9.>.n a a N P T ! _ P.Q.!.!.!.!.Q.P.) ! m.c.N n ,.9.f.h.h.h.",
"j.8.S n q.K.K.D.F.V.U B ~ _ { { { { _ ! s N F.`.Y.q.n S 8.j.h.h.",
"j.5.> p K.(.^.E.G.N.M s B ~ [ H.H.[ ~ f + r G.].).K.a : <.d.g.h.",
"k.5.> p K.^.I.[ M q i s B ` /.'.'./.` g + q / P.^.K.a = ..u.d.j.",
"a.1.4 c 0.r.) B & + , g E ] `.{.{.'.] g + * Q y.^.K.a @ } ;.i.p.",
":.*.o.6 c p * & X & f E E ] `.{.{.`.] g + p r.^.(.K.a @ } -.;.:.",
"+.@.#.X.1 % = $ X & s B Z V._.[.[._.V.C q m ( L.L.( c 1  .@.@.+.",
"+.@.@.O. .| | 2 = X + q G B.Z.A.A.Z.B.Y L G m a a c 6 X.O.@.@.+.",
":.;.&.@.@.=.=. .; X & a H B.b.C.C.z.x x x k - % % 1 X.#.@.&.;.:.",
"p.i.;.@.@.&.=.| = & B W ) ! j 9 9 9 8 7 7 0 5 | |  .O.@.@.;.i.p.",
"j.a.4.;.&.@.@. .1 , B W W B , % ; ; ; ; = 1 X.=.#.@.@.&.;.4.a.j.",
"h.g.a.i.;.+.@.O.X.6 3 * * , 5 | | | | | | X.O.@.@.@.+.;.i.a.g.h.",
"h.h.j.a.3.:.:.:.-.X.1 = = 1 X.=.=.@.@.@.@.@.@.&.;.:.:.3.a.j.h.h.",
"h.h.h.g.a.p.p.i.;.O.X.| | X.O.@.@.@.@.@.@.@.@.;.i.p.p.a.g.h.h.h.",
"h.h.h.h.h.j.j.p.:.@.@.=.=.@.@.@.@.@.@.@.@.@.@.:.p.j.j.h.h.h.h.h."
};
