/* XPM */
static char *bush1717057157[] = {
/* columns rows colors chars-per-pixel */
"32 32 94 2 ",
"   c #171C2E",
".  c #1A1E2F",
"X  c #1D272D",
"o  c #1B282C",
"O  c #1C2130",
"+  c #1B2B37",
"@  c #1F2D38",
"#  c #222F2A",
"$  c #26342A",
"%  c #29352A",
"&  c #2C382B",
"*  c #3B3D2F",
"=  c #233737",
"-  c #283731",
";  c #2A3D35",
":  c #383D36",
">  c #413F32",
",  c #37522E",
"<  c #38542F",
"1  c #2D4233",
"2  c #3A443A",
"3  c #3C4A39",
"4  c #434133",
"5  c #444A39",
"6  c #436B35",
"7  c #467B3B",
"8  c #497B3F",
"9  c #64653C",
"0  c #273E40",
"q  c #274347",
"w  c #284448",
"e  c #274C49",
"r  c #2B4E4A",
"t  c #2D524A",
"y  c #375D45",
"u  c #32504B",
"i  c #315E52",
"p  c #326346",
"a  c #366841",
"s  c #34664E",
"d  c #356C4E",
"f  c #39694D",
"g  c #3B7E4F",
"h  c #336452",
"j  c #356C52",
"k  c #3C6C50",
"l  c #377450",
"z  c #387550",
"x  c #3A7A50",
"c  c #4E674D",
"v  c #496A53",
"b  c #4B7052",
"n  c #4F8537",
"m  c #4F8638",
"M  c #508538",
"N  c #538C3A",
"B  c #56903A",
"V  c #638D3E",
"C  c #5EA33D",
"Z  c #63AC3F",
"A  c #65B03F",
"S  c #3D804E",
"D  c #3C8050",
"F  c #42854C",
"G  c #45894B",
"H  c #4E9449",
"J  c #559543",
"K  c #539946",
"L  c #7C8246",
"P  c #5DA442",
"I  c #64AE40",
"U  c #68AE41",
"Y  c #65B040",
"T  c #69B141",
"R  c #75B344",
"E  c #7CB546",
"W  c #7FBA47",
"Q  c #8B9D49",
"!  c #829250",
"~  c #9DA44F",
"^  c #8FBD4C",
"/  c #90BD4C",
"(  c #9FAA52",
")  c #A0AA52",
"_  c #AAB253",
"`  c #A4B459",
"'  c #9DC350",
"]  c #B2CB56",
"[  c #B8CD58",
"{  c #B4D057",
"}  c #C1CB5A",
"|  c #C5D35C",
" . c #C9D55D",
".. c #CEDA5F",
/* pixels */
" . . . .|  .}  .|  .|  ................. . . . . . . . .|  . .| ",
" . . . . . . . . .....[ _ ~ ~ ~ ~ ~ ~ _ }  . . . . .|  . . . . .",
" . . .|  . . . . ....._ 9 > > 4 4 > : 9 _ ....|  . . . .|  . . .",
" . . . . . . .[ _ ( ` ! 3 X # $ % # X 3 ! ` ( _ }  . . . . . .| ",
"|  . . . . ..._ 9 5 c b s a 7 n n 7 a s b c 5 9 _ .. . . . . .| ",
" . . . . .} _ ! : + e s b H P Z A C H S d e + : L _ }  . . . . .",
"|  ......._ 9 : q e d S K C I I A I P J b d e q * 9 _  ... . . .",
" . ....._ 9 : + r j g S K P Z Z Z Z P K S S j r @ : ! _ [  . .| ",
" . ..._ 9 2 0 r s x x S F H P Z Z P H F S x z d r ; : 9 ) .. . .",
"|  ...~ 5 + r j x x g g g F J P P J F g z z g x j r + 5 ) .. . .",
" .....` c e s x g g g x g g F G G F g z h j z g x h r c ` .... .",
" .} _ ! v i z x g g g g z l g g g g g l i i z S x z h v ! _ }  .",
".._ 9 2 u h z D g g g z h j l g g g g l i i l x D z h r 2 9 _ ..",
"[ Q *   q h j z x g g l i i z g g g g l j h j l z j i q   * Q [ ",
"^ V &   q i i h l g g z i i l g g g g g x j h i i i i q o & V ^ ",
"C n & X q i i i l l z j h s z g g g g g D z h i h i i q O & m C ",
"I M & . w i j j h h i h j z g g g g g g g g z x l d i q O & m I ",
"Y M & . w i x x s i i h x g z z z g g g z z g b S x h q . & m I ",
"Y M % . w h x x z l l z g z j s z g g l h h x S S z h q . & M Y ",
"T B , ; u h x x g g g g g l i i l g g l i i l g S l i t ; < B Y ",
"Z C B b f i l x g g g g g z i i l g S z i i z g x l h s b B C A ",
"Z Z A B y r s x g g g g g z h h j z z j h h z x x s r y B A A C ",
"C A A B ; @ r j x g g g S g x j h i i h l z g x j r @ 1 B A A Z ",
"W R A B , - 0 r d x x x x S g x s h i h x g z s r 0 - , B A R R ",
"] ' R Z N 6 & @ r f z g S g x x l l z g b x h r @ - 6 B C R ' ] ",
"..{ / R A B , ; a f p p p p d l l l p p p p f y 1 , B T R ^ [  .",
" .| [ ' R C N N B b * # # = t h h t = X o 1 8 J N N C R ' [  . .",
"|  . .[ / R T Z Z N , & % ; y k j y 1 $ $ < B Z I U R ^ [  . . .",
" . . .| [ ' R Z Z C N 8 8 N J J J J M M M N Z Z Z R ' [  . . . .",
" . . . . .[ / R Z Z Z A A Z Z Z Z A Z U I Z Z Z R / [  . . . . .",
" . . . . . .[ ' A Z Z Z A Z Z Z Z Z Z A Z I I R ' [ }  . . . . .",
" . . . . . . .] ^ Z Z Z Z Z Z Z Z Z Z Z I C Z E ]  . . . . . . ."
};
