/* XPM */
static char *coin1717057158[] = {
/* columns rows colors chars-per-pixel */
"32 32 93 2 ",
"   c #C8D45D",
".  c #C9D55D",
"X  c #CAD65E",
"o  c #CBD75E",
"O  c #CCD95E",
"+  c #CCD85E",
"@  c #BFCA5B",
"#  c #A5B054",
"$  c #98A250",
"%  c #98A350",
"&  c #99A350",
"*  c #CFDB5F",
"=  c #A9B455",
"-  c #5D6541",
";  c #373D36",
":  c #383E37",
">  c #3A4037",
",  c #878F4D",
"<  c #5C5E45",
"1  c #474541",
"2  c #474641",
"3  c #484741",
"4  c #A29A61",
"5  c #C7BA6F",
"6  c #C6B96F",
"7  c #C4B86E",
"8  c #FFF887",
"9  c #FFF686",
"0  c #FFF385",
"q  c #FFF486",
"w  c #FFF184",
"e  c #484842",
"r  c #C4B96F",
"t  c #FFF586",
"y  c #FFEF84",
"u  c #FFF587",
"i  c #FFF085",
"p  c #99A351",
"a  c #393F38",
"s  c #48403D",
"d  c #C6A65F",
"f  c #FFDC71",
"g  c #FFDA71",
"h  c #FFD770",
"j  c #99A451",
"k  c #383F38",
"l  c #483332",
"z  c #C77F40",
"x  c #FFA747",
"c  c #FFA647",
"v  c #FFA446",
"b  c #9EAE53",
"n  c #495F3C",
"m  c #484230",
"M  c #9C5C30",
"N  c #C96A30",
"B  c #C76A30",
"V  c #C56930",
"C  c #CAD55E",
"Z  c #CBD65E",
"A  c #AAC355",
"S  c #6B9B43",
"D  c #4A6F36",
"F  c #4A4230",
"G  c #4B2C2D",
"H  c #4B2D2D",
"J  c #4B2E2E",
"K  c #C9D45D",
"L  c #B7CF58",
"P  c #91C24D",
"I  c #659941",
"U  c #355736",
"Y  c #1E3531",
"T  c #1F3631",
"R  c #203832",
"E  c #C4D35C",
"W  c #B9D058",
"Q  c #97BB4F",
"!  c #639641",
"~  c #488339",
"^  c #49843A",
"/  c #4A853A",
"(  c #CCD55E",
")  c #B8CE58",
"_  c #90BF4C",
"`  c #7BB846",
"'  c #7CB846",
"]  c #7DB847",
"[  c #B7CE58",
"{  c #B0CC56",
"}  c #B1CC56",
"|  c #CAD55D",
" . c white",
/* pixels */
"                                                                ",
"                                                                ",
"                                                                ",
"                                                                ",
"                                                                ",
"                                                                ",
"                                                                ",
"                      . X o o o o o o X .                       ",
"                      . o O + + + + O o .                       ",
"                  . o @ # $ % & & % $ # @ o .                   ",
"                  o * = - ; : > > : ; - = * o                   ",
"              . . @ = , < 1 2 3 3 2 1 < , = @ . .               ",
"              X o # - < 4 5 6 7 7 6 5 4 < - # o X               ",
"              o O $ ; 1 5 8 9 0 0 9 8 5 1 ; $ O o               ",
"              o + % : 2 6 9 q w w q 9 6 2 : % + o               ",
"              o + & > e r t 0 y y 0 t r e > & + o               ",
"              o + & > e r u q i i q u r e > & + o               ",
"              o + p a s d f g h h g f d s a p + o               ",
"              o + j k l z x c v v c x z l k j + o               ",
"              X + b n m M N B V V B N M m n b + X               ",
"              C Z A S D F G H J J H G F D S A Z C               ",
"              K C L P I U Y T R R T Y U I P L C K               ",
"                K E W Q ! ~ ^ / / ^ ~ ! Q W E K                 ",
"                  C ( ) _ ` ' ] ] ' ` _ ) ( C                   ",
"                  K C E [ { { } } { { [ E C K                   ",
"                      K C C C C C C C C K                       ",
"                        K | | . . | | K                         ",
"                                                                ",
"                                                                ",
"                                                                ",
"                                                                ",
"                                                                "
};
