/* XPM */
static char *down1717057158[] = {
/* columns rows colors chars-per-pixel */
"32 32 165 2 ",
"   c #0E122B",
".  c #12162C",
"X  c #151D2E",
"o  c #1B1A2F",
"O  c #131B3B",
"+  c #1C1C38",
"@  c #261E33",
"#  c #1D2F2F",
"$  c #1D233E",
"%  c #21362E",
"&  c #312437",
"*  c #3B283A",
"=  c #233731",
"-  c #333C35",
";  c #4B2F3D",
":  c #413F39",
">  c #3B4236",
",  c #335634",
"<  c #3C6936",
"1  c #41433A",
"2  c #536A3C",
"3  c #4D733D",
"4  c #1F2445",
"5  c #19334D",
"6  c #2B3248",
"7  c #3C3444",
"8  c #3F3A48",
"9  c #292E52",
"0  c #2B365E",
"q  c #363D57",
"w  c #343C62",
"e  c #453743",
"r  c #493E47",
"t  c #4A3B4A",
"y  c #5A3442",
"u  c #443D50",
"i  c #693B48",
"p  c #3B4142",
"a  c #3F4356",
"s  c #37426B",
"d  c #394169",
"f  c #3C4672",
"g  c #41474A",
"h  c #4C4B48",
"j  c #5B554A",
"k  c #5F584B",
"l  c #494555",
"z  c #534D5C",
"x  c #7B434D",
"c  c #794B4C",
"v  c #60594B",
"b  c #694F52",
"n  c #784856",
"m  c #64505D",
"M  c #735A5B",
"N  c #5D6640",
"B  c #616840",
"V  c #414668",
"C  c #524E60",
"Z  c #4E526C",
"A  c #575466",
"S  c #414A75",
"D  c #454F7A",
"F  c #4B527C",
"G  c #5B5870",
"H  c #655B67",
"J  c #7D5E68",
"K  c #625A76",
"L  c #6E667C",
"P  c #71687F",
"I  c #84454F",
"U  c #8B4952",
"Y  c #9B5757",
"T  c #9F5F5D",
"R  c #9C625E",
"E  c #855F66",
"W  c #935F66",
"Q  c #9B5C60",
"!  c #8A7472",
"~  c #9C7C71",
"^  c #A96C67",
"/  c #AE736C",
"(  c #B6726D",
")  c #A06972",
"_  c #A87178",
"`  c #CA7C6F",
"'  c #4D863A",
"]  c #508C3A",
"[  c #5E8C3F",
"{  c #54923B",
"}  c #5DA33E",
"|  c #62AD3F",
" . c #64B03F",
".. c #7E874D",
"X. c #68AF40",
"o. c #66B140",
"O. c #6CB341",
"+. c #76B445",
"@. c #7BB546",
"#. c #7FBA47",
"$. c #858B4E",
"%. c #898D4F",
"&. c #869C4A",
"*. c #97A24F",
"=. c #8FBD4C",
"-. c #90BD4C",
";. c #9BA550",
":. c #9FA951",
">. c #A1AB52",
",. c #A6B153",
"<. c #A9B455",
"1. c #A48373",
"2. c #A2827A",
"3. c #B88778",
"4. c #D28575",
"5. c #9DC450",
"6. c #B2CB56",
"7. c #B6CD58",
"8. c #BCCC59",
"9. c #B5D057",
"0. c #C0CC5B",
"q. c #C4D35C",
"w. c #C9D55D",
"e. c #CDD95E",
"r. c #D1DD5F",
"t. c #D2DE60",
"y. c #3B7F96",
"u. c #535B86",
"i. c #5A628D",
"p. c #5D6590",
"a. c #477B91",
"s. c #6E6884",
"d. c #636688",
"f. c #776B85",
"g. c #61778F",
"h. c #8D7381",
"j. c #6EA2B5",
"k. c #74B9CA",
"l. c #A98982",
"z. c #B59492",
"x. c #9794A0",
"c. c #A8A1B0",
"v. c #D08F83",
"b. c #CC9481",
"n. c #C99C87",
"m. c #CC9C8A",
"M. c #E59681",
"N. c #D2A18A",
"B. c #CAA89C",
"V. c #D3A695",
"C. c #DAAA94",
"Z. c #DAAB99",
"A. c #E7AC92",
"S. c #F0AD92",
"D. c #F7B195",
"F. c #FDBD9D",
"G. c #C6AFB2",
"H. c #E9B5A1",
"J. c #FFC6A3",
"K. c #FFC9A6",
"L. c #AEB5C1",
"P. c #CBBEC6",
"I. c #D9C7CB",
"U. c #C0D8E3",
"Y. c #E6E9F2",
/* pixels */
"w.w.w.w.q.w.w.w.r.>.1   . . . . . . . .   > >.r.e.w.w.w.w.w.w.w.",
"w.w.w.w.w.w.w.8.<...p $ $ $ $ 4 $ $ $ $ 4 p ..<.0.w.w.w.w.w.w.q.",
"w.w.w.q.w.w.r.<.B p q w w w d q w d d q w a p B <.e.e.w.w.w.w.w.",
"w.w.w.w.w.0.<...g 9 d S S S S S S f D f S d 9 g ..<.8.w.w.w.q.w.",
"w.w.w.e.w.<.B g Z F D f f D f f S S S S S D F Z g B ,.w.w.w.w.w.",
"w.w.w.w.e.;.- 4 F i.u.D f f f f f f f f D u.p.F 4 > ;.e.w.w.w.w.",
"w.w.w.w.e.;.> 4 s u.p.i.D f f f f f f D i.i.u.d + > ;.e.w.q.q.w.",
"w.w.w.e.e.;.> + w F i.d.s.s.L L L L P s.d.i.D 0 $ > ;.r.w.w.w.w.",
"q.w.w.w.t.;.- + w S D s.z.Z.V.V.B.V.Z.z.s.D f q O > ;.t.e.w.w.w.",
"w.w.w.8.<.%.v l V f w G l.A.J.J.J.J.A.l.G s f d l v %.<.8.w.w.w.",
"w.e.w.,.N v 1.l.L s w q z ! C.J.J.C.! C a 0 s L l.1.v B ,.w.w.w.",
"w.e.w.*.- t N.Z.L d A l 6 z m.K.K.n.C 6 l C V L Z.m.t - *.e.w.w.",
"w.w.e.*.- t N.C.H C l.2.8 g n.K.K.n.g 8 2.l.C G C.N.t - *.e.e.w.",
"w.w.e.,.N j 1.2.C H V.m.r e 3.D.D.3.e r m.C.H C 2._ v N ,.w.w.w.",
"w.w.w.8.<.%.v u d L V.n.r * R ` ` R & h n.V.L w u k %.<.8.w.w.w.",
"w.w.w.w.t.:.- O 0 L m.b.M b ^ 4.4.^ b M b.m.L 0 O > >.t.e.q.w.w.",
"w.w.w.e.r.:.- O 0 K ( 4.v.N.A.S.S.A.N.b.4._ K 0 O - :.e.e.w.w.w.",
"w.w.w.0.,.$.v z i.f.W ^ v.S.S.S.S.S.A.M.^ W f.L z j $.,.8.e.w.w.",
"w.w.e.,.2 j 1.B.P.c.J x ^ ( ` ` ` ` ( T x J c.P.B._ j 2 ,.r.w.w.",
"w.0.<.$.j M b.H.G.x.m i i Y _ v.v.( Q x y m x.G.H.b.M j $.<.0.w.",
"e.<.B j 1.b.4./ H l ; y x ) G.I.I.G.) I i e u H / 4.b.1.j 2 <.t.",
"7.&.- t n.F.M.R * o ; x x _ P.Y.Y.P.h.I i ; @ * R M.F.n.t - &.7.",
"=.[ = t n.K.F.3.e @ y U U _ I.Y.Y.P._ U U i @ e 3.F.K.n.r % [ =.",
"} ] , h 1.n.n.~ 7 @ y n n h.L.U.U.L.h.n i i @ 7 ~ m.n.1.h , ] } ",
"} } { 3 h h t e @ X @ 6 A g.j.k.k.j.g.Z 6 @ o @ 7 t t h 3 { } | ",
"#.+. .] , % % # X + & t G d.a.y.y.a.g.G t & o o % = % , { O.@.@.",
"6.5.+.} ] ' ' < # & x T ^ E l 5 5 l E ^ T x & % < ' ' ] } +.5.6.",
"e.9.=.+. . . .{ , 1 c Y Y c > % % - c Y Y c : , { | | X.+.-.7.e.",
"w.w.7.5.+.| | } { 3 1 * ; : 2 ' ] 2 1 * * : 3 { } | | +.5.7.q.w.",
"w.w.w.7.-.@.@.@.O.{ , = % , { O. .{ , % = , { O.@.@.@.-.7.w.w.w.",
"w.w.w.q.7.7.6.5.@.} ] ' ' ] } | | | { ' ' { } @.5.6.6.7.q.w.w.w.",
"w.w.w.w.w.w.w.6.@.} o.X.X.| | | | |  . . .| | @.6.w.w.w.w.w.w.w."
};
