/* XPM */
static char *_16deb65ecde4f52bb961eff132fe79e21fZiIaEj7UT6Gb5[] = {
/* columns rows colors chars-per-pixel */
"32 32 178 2 ",
"   c #0E122B",
".  c #12162D",
"X  c #131733",
"o  c #161A38",
"O  c #1A1E39",
"+  c #1E352E",
"@  c #1D2139",
"#  c #22362E",
"$  c #24382F",
"%  c #2A253A",
"&  c #3A2637",
"*  c #3A2538",
"=  c #3B2B3B",
"-  c #223633",
";  c #263B31",
":  c #263738",
">  c #3C3E37",
",  c #373D3D",
"<  c #4A2F3D",
"1  c #413E39",
"2  c #56333F",
"3  c #3A4137",
"4  c #3D4339",
"5  c #335533",
"6  c #3F6C38",
"7  c #40443A",
"8  c #4E433D",
"9  c #52463F",
"0  c #435D38",
"q  c #4E613B",
"w  c #4A6F3A",
"e  c #4A753E",
"r  c #1E2342",
"t  c #1C2F46",
"y  c #2B2B44",
"u  c #3D2F40",
"i  c #283248",
"p  c #3E3645",
"a  c #31364B",
"s  c #2E3352",
"d  c #283853",
"f  c #303553",
"g  c #373B51",
"h  c #393A51",
"j  c #363C5D",
"k  c #393F5E",
"l  c #463A45",
"z  c #493D47",
"x  c #473D48",
"c  c #4B3D4A",
"v  c #6E3D48",
"b  c #733C49",
"n  c #294849",
"m  c #3B405F",
"M  c #3B4060",
"N  c #356C7D",
"B  c #4B4F46",
"V  c #4D424C",
"C  c #5D434C",
"Z  c #4C5044",
"A  c #434253",
"S  c #4A4151",
"D  c #43445D",
"F  c #49475A",
"G  c #594B57",
"H  c #534A5D",
"J  c #5C4D5A",
"K  c #465753",
"L  c #63484F",
"P  c #78424B",
"I  c #7C4D4C",
"U  c #6C5153",
"Y  c #4D7A43",
"T  c #626941",
"R  c #454762",
"E  c #544D61",
"W  c #585063",
"Q  c #5D5669",
"!  c #5F586B",
"~  c #685863",
"^  c #645B6D",
"/  c #695F6F",
"(  c #7E5A68",
")  c #6C606F",
"_  c #7E6568",
"`  c #6D6170",
"'  c #854E51",
"]  c #895152",
"[  c #9B5656",
"{  c #9B6360",
"}  c #8C706F",
"|  c #846A70",
" . c #8E777B",
".. c #9C7D77",
"X. c #A36762",
"o. c #A56B6A",
"O. c #B3746D",
"+. c #A87977",
"@. c #C37B6E",
"#. c #4D8539",
"$. c #4F893A",
"%. c #528E3B",
"&. c #55923B",
"*. c #5B973D",
"=. c #5EA43E",
"-. c #5FA93E",
";. c #63AC3F",
":. c #7C854B",
">. c #6F9D43",
",. c #67AC40",
"<. c #68AD40",
"1. c #73AE44",
"2. c #66B040",
"3. c #6CB341",
"4. c #75B244",
"5. c #7CB546",
"6. c #7BB946",
"7. c #83864B",
"8. c #8FAA4D",
"9. c #8FBD4C",
"0. c #90BD4C",
"q. c #9BA551",
"w. c #A1AB52",
"e. c #A7B254",
"r. c #ABB655",
"t. c #9F8170",
"y. c #AA867E",
"u. c #BE8A7B",
"i. c #D38A7A",
"p. c #E2947E",
"a. c #9DC350",
"s. c #B0C656",
"d. c #B2CB56",
"f. c #B6CD58",
"g. c #BACD59",
"h. c #B6D157",
"j. c #C2CD5B",
"k. c #C4D35C",
"l. c #C9D55D",
"z. c #CCD85E",
"x. c #D1DD5F",
"c. c #457084",
"v. c #5F7E8C",
"b. c #49889D",
"n. c #5B8EA2",
"m. c #6196A6",
"M. c #659FB0",
"N. c #71B2C3",
"B. c #92838F",
"V. c #8B8E9D",
"C. c #8C939B",
"Z. c #A88780",
"A. c #AC8B85",
"S. c #9F95A2",
"D. c #94A6B6",
"F. c #BAB0B5",
"G. c #C59585",
"H. c #CA9A86",
"J. c #CB9C89",
"K. c #D39D8A",
"L. c #E89882",
"P. c #CFA08C",
"I. c #C4A196",
"U. c #D5A794",
"Y. c #DAA793",
"T. c #D7A995",
"R. c #DCAB94",
"E. c #E4A98F",
"W. c #E5AD94",
"Q. c #F2AF93",
"!. c #E5B199",
"~. c #FEBB9B",
"^. c #C6B7B8",
"/. c #E8B4A1",
"(. c #F9BFA0",
"). c #FFC4A2",
"_. c #B3B7C4",
"`. c #D8C6CE",
/* pixels */
"l.l.l.l.l.l.l.z.x.w.7   . . . . . . . .   7 w.x.z.l.l.l.l.l.l.l.",
"l.l.l.l.l.l.l.j.r.:.4 O O @ @ @ @ @ @ O O 4 :.r.j.l.l.l.l.l.l.l.",
"l.l.l.l.l.l.z.r.T , a f f f f f f f f f f a , T r.z.l.l.l.l.l.l.",
"l.l.l.l.l.g.r.:., r f M k k k m m m m M M f r , :.r.g.l.l.l.l.l.",
"l.l.l.l.l.e.T , a f j k j j k m m m m m m j f a , T e.l.l.l.l.l.",
"l.l.l.l.z.q.3 o s k j R ! ! R k k k k k k m M s o 3 q.z.l.l.l.l.",
"l.l.l.l.z.q.4 o s j j ! A.A.^ j k k k k k m M s o 4 q.z.l.l.l.l.",
"l.l.l.l.z.q.4 % H / /  .!.Y.` j j k k k k m m s O 4 q.z.l.l.l.l.",
"l.l.l.l.z.q.3 p ..U.U.!.).U.) j j k k k k m m s O 4 q.z.l.l.l.l.",
"l.l.l.l.z.q.3 c H.).W.P.J.y.Q j j j j k k m m s O 4 q.z.l.l.l.l.",
"l.l.l.l.z.q.3 c H.W.} J G H D k j j j j k m m s O 4 q.z.l.l.l.l.",
"l.l.l.l.z.q.3 c J.P.G y S H D R ! ` ) ! R k m s o 4 q.z.l.l.l.l.",
"l.l.l.l.z.q.3 V J.J.V p ..Z.! Q A.T.U.A.! j k s o 3 q.z.l.l.l.l.",
"l.l.l.l.z.q.3 l u.u.l z H.U./ ! G.~.).U.` j s a , T e.l.l.l.l.l.",
"l.l.l.l.z.q.> = X.X.= x H.U./ H o.p.~.T.` s r , :.r.g.l.l.l.l.l.",
"l.l.l.l.z.e.T 9 I ' C _ Y.!. ._ O.i.K.A.W i - q e.x.z.l.l.l.l.l.",
"l.l.l.l.l.j.r.7.8 C +.R.~.(.R.Y.Q.K. .E y : 6 >.s.z.l.l.l.l.l.l.",
"l.l.l.k.f.d.h.8.0 B t.H.H.K.E.Q.E.y.H r X ; $.6.a.d.d.f.k.l.l.l.",
"l.l.l.f.9.5.6.1.*.e Z z x U O.@.{ L % X . ; %.3.4.5.5.9.f.l.l.l.",
"l.k.f.a.4.-.;.=.&.Y K h % < ' ] 2 u A g @ ; #.;.;.-.-.4.a.f.k.l.",
"l.f.0.4.,.;.;.%.5 K C.S.( v v 2 % A V.V.h $ #.;.;.;.;.,.4.0.f.l.",
"d.a.4.-.;.;.;.#.# D _.`.+.P 2 & & ~ ^.F.F # #.;.;.;.;.;.-.4.a.d.",
"5.4.<.;.;.;.;.#.# D _.`.+.b & & P O./.I.S # #.;.;.;.;.;.;.<.4.5.",
"-.;.;.;.;.;.;.#.# m D._.B.J % = X.L.~.H.c # #.;.;.;.;.;.;.;.;.-.",
"-.;.;.;.;.;.;.#.# d n.N.M.c.t l u.~.).H.c # #.;.;.;.;.;.;.;.;.-.",
"5.4.<.;.;.;.;.%.5 n N b.m.v.A C +.J.J...B 5 %.;.;.;.;.;.;.<.4.5.",
"d.a.4.-.;.;.;.=.&.e n m | +.{ ] C c c B e &.=.;.;.;.;.;.-.4.a.d.",
"l.f.0.4.<.;.;.;.2.&.5 > I [ [ I > + + 5 &.2.;.;.;.;.;.,.4.0.f.l.",
"l.k.f.a.4.-.-.;.;.=.&.w 1 * * 7 w #.#.%.=.;.;.;.;.-.-.4.a.f.k.l.",
"l.l.l.f.9.5.5.4.<.;.2.&.5 - - 5 &.2.2.;.;.;.;.<.4.5.5.9.f.l.l.l.",
"l.l.l.k.f.d.d.a.4.;.;.=.&.#.#.&.=.;.;.;.;.;.;.4.a.d.d.f.k.l.l.l.",
"l.l.l.l.l.l.l.d.5.;.;.;.;.2.2.;.;.;.;.;.;.;.;.5.d.l.l.l.l.l.l.l."
};
