/* XPM */
static char *e4d1ebb27d1148e89434d17940e14b36n4qP1dUTrtymTSWq[] = {
/* columns rows colors chars-per-pixel */
"32 32 256 2 ",
"   c #C8D45D",
".  c #C9D55D",
"X  c #CCD85E",
"o  c #CEDA5F",
"O  c #CBD75E",
"+  c #BFCB5B",
"@  c #A6B154",
"#  c #99A351",
"$  c #9BA551",
"%  c #A9B355",
"&  c #C0CB5B",
"*  c #CEDB5F",
"=  c #A9B455",
"-  c #5F6741",
";  c #383E37",
":  c #3B4138",
">  c #636B43",
",  c #ABB555",
"<  c #CFDC5F",
"1  c #888F4E",
"2  c #5D5F46",
"3  c #37363C",
"4  c #191B31",
"5  c #303635",
"6  c #7A8248",
"7  c #A0AA53",
"8  c #9FA952",
"9  c #9CA651",
"0  c #9AA450",
"q  c #9DA752",
"w  c #5F6046",
"e  c #A69E62",
"r  c #9B925F",
"t  c gray24",
"y  c #181D2F",
"u  c #323735",
"i  c #41473A",
"p  c #40463A",
"a  c #3E4438",
"s  c #3B4136",
"d  c #CEDA5E",
"f  c #99A350",
"g  c #393F37",
"h  c #4A4842",
"j  c #CCBF71",
"k  c #CFC372",
"l  c #4F4E43",
"z  c #0A0F2A",
"x  c #0A0E2B",
"c  c #0B102B",
"v  c #1B2039",
"b  c #393F51",
"n  c #3A3F51",
"m  c #1E2239",
"M  c #0E112B",
"N  c #99A451",
"B  c #3A4037",
"V  c #4B4942",
"C  c #CBBE71",
"Z  c #CDC171",
"A  c #4D4C43",
"S  c #080D2A",
"D  c #090E2A",
"F  c #080D29",
"G  c #393F52",
"H  c #959E9D",
"J  c #979F9E",
"K  c #3D4252",
"L  c #0B0F28",
"P  c #9AA551",
"I  c #3C4238",
"U  c #4C4A43",
"Y  c #CABE70",
"T  c #DDCF77",
"R  c #7F7955",
"E  c #4C4B43",
"W  c #4E4D43",
"Q  c #4D483D",
"!  c #493F33",
"~  c #7B735C",
"^  c #DADAB2",
"/  c #CBCEB0",
"(  c #4D5158",
")  c #070C26",
"_  c #C9BD70",
"`  c #FCEC82",
"'  c #CBBF71",
"]  c #CBC071",
"[  c #C8B363",
"{  c #C19B47",
"}  c #D4AE55",
"|  c #FAE68A",
" . c #CBC586",
".. c #4B4C49",
"X. c #050A28",
"o. c #3D4438",
"O. c #3B3B3C",
"+. c #98905E",
"@. c #CCBF70",
"#. c #CCC071",
"$. c #CCC072",
"%. c #C9B463",
"&. c #C39D48",
"*. c #C8B261",
"=. c #AAA163",
"-. c #6D694E",
";. c #4C4B42",
":. c #404639",
">. c #1D2032",
",. c #3C3C3D",
"<. c #504F44",
"1. c #4F4B3F",
"2. c #4D4337",
"3. c #4A4135",
"4. c #4A463C",
"5. c #6C684D",
"6. c #ADA465",
"7. c #D1C472",
"8. c #9EA852",
"9. c #42483A",
"0. c #0E122C",
"q. c #0B102C",
"w. c #0C112C",
"e. c #0F132C",
"r. c #0F142D",
"t. c #0A0F2B",
"y. c #3C3D3C",
"u. c #9E9660",
"i. c #D3C673",
"p. c #0C122C",
"a. c #11152D",
"s. c #11152E",
"d. c #10152D",
"f. c #0F142C",
"g. c #202332",
"h. c #41413E",
"j. c #535145",
"k. c #40473A",
"l. c #1D1D2E",
"z. c #3B3331",
"x. c #3E3632",
"c. c #22222F",
"v. c #13172E",
"b. c #14182E",
"n. c #10142C",
"m. c #0E132C",
"M. c #9BA652",
"N. c #3E453A",
"B. c #3B3231",
"V. c #947239",
"C. c #977539",
"Z. c #3F3732",
"A. c #10152E",
"S. c #12162E",
"D. c #11162D",
"F. c #9AA552",
"G. c #3C4439",
"H. c #493D32",
"J. c #C1933D",
"K. c #C4963D",
"L. c #4E4133",
"P. c #0F142E",
"I. c #11162E",
"U. c #493C32",
"Y. c #C0923C",
"T. c #C3953D",
"R. c #4D4133",
"E. c #483C32",
"W. c #BD8F3B",
"Q. c #4C4033",
"!. c #0E142D",
"~. c #0F152D",
"^. c #12182E",
"/. c #483B31",
"(. c #4C4032",
"). c #0E152D",
"_. c #10172D",
"`. c #3C4339",
"'. c #493F36",
"]. c #C09B49",
"[. c #C29D49",
"{. c #4C4437",
"}. c #18152F",
"|. c #2D1A32",
" X c #3A1E34",
".X c #391E34",
"XX c #3C4338",
"oX c #4B473F",
"OX c #C6B263",
"+X c #C7B464",
"@X c #4D4B3F",
"#X c #2B1831",
"$X c #69223A",
"%X c #8B2A40",
"&X c #8A2A40",
"*X c #88293F",
"=X c #C9BE71",
"-X c #CAC071",
";X c #4D4F44",
":X c #351932",
">X c #89273F",
",X c #B73046",
"<X c #B53046",
"1X c #B33046",
"2X c #C9BD71",
"3X c #4D4E43",
"4X c #C9BE70",
"5X c #4B4C42",
"6X c #27142F",
"7X c #651F39",
"8X c #87273F",
"9X c #86273E",
"0X c #85263E",
"qX c #4B4B42",
"wX c #120F2B",
"eX c #341932",
"rX c #331932",
"tX c #4B4A43",
"yX c #C8BC70",
"uX c #DBCD77",
"iX c #7E7955",
"pX c #494842",
"aX c #C5BA6F",
"sX c #F8E982",
"dX c #DCCE77",
"fX c #C9BF70",
"gX c #CABF70",
"hX c #9AA451",
"jX c #3A4138",
"kX c #46423D",
"lX c #C2AD61",
"zX c #F5DC74",
"xX c #D9C872",
"cX c #394038",
"vX c #453B35",
"bX c #BF9847",
"nX c #D1A94E",
"mX c #786A46",
"MX c #484842",
"NX c #494942",
"BX c #A6B155",
"VX c #606842",
"CX c #68623C",
"ZX c #C0A043",
"AX c #C0A143",
"SX c #67613C",
"DX c #384038",
"FX c #394138",
"GX c #BDC95A",
"HX c #A7B255",
"JX c #AAB053",
"KX c #C5C355",
"LX c #C5C354",
"PX c #A8AF52",
"IX c #CCD95E",
"UX c #C8D65E",
/* pixels */
"      . X o o X .                             . X o o X .       ",
"  . O + @ # $ % & X O O O O O O O O O O O O X & % $ # @ + O .   ",
"  O * = - ; : > , < o X X X X X X X X X X o < , > : ; - = * O   ",
". + = 1 2 3 4 5 6 7 8 9 0 0 9 q q 9 0 0 9 8 7 6 5 4 3 2 1 = + . ",
"X @ - w e r t y u i p a s s a p p a s s a p i u y t r e w - @ X ",
"d f g h j k l z x c c v b n m M M m n b v c c x z l k j h g f d ",
"d N B V C Z A S D D F G H J K L L K J H G F D D S A Z C V B N d ",
"d P I U Y T R E W Q ! ~ ^ / ( ) ) ( / ^ ~ ! Q W E R T Y U I P d ",
"d P I V _ ` T ' ] [ { } |  ...X.X... .| } { [ ] ' T ` _ V I P d ",
"d $ o.O.+.@.Z #.$.%.&.&.*.=.-.;.;.-.=.*.&.&.%.$.#.Z @.+.O.o.$ d ",
"d q :.>.,.l <.<.<.1.2.3.4.5.6.7.7.6.5.4.3.2.1.<.<.<.l ,.>.:.q d ",
"d 8.9.0.q.w.0.e.e.e.r.w.t.y.u.i.i.u.y.t.w.r.e.e.e.0.w.q.0.9.8.d ",
"d 8.9.0.q.p.r.a.a.a.s.d.f.g.h.j.j.h.g.f.d.s.a.a.a.r.p.q.0.9.8.d ",
"d q k.l.z.x.c.v.v.b.b.b.b.v.n.m.m.n.v.b.b.b.b.v.v.c.x.z.l.k.q d ",
"d M.N.B.V.C.Z.A.S.b.b.b.b.v.D.d.d.D.v.b.b.b.b.S.A.Z.C.V.B.N.M.d ",
"d F.G.H.J.K.L.P.I.b.b.b.b.b.b.b.b.b.b.b.b.b.b.I.P.L.K.J.H.G.F.d ",
"d F.G.U.Y.T.R.P.I.b.b.b.b.b.b.b.b.b.b.b.b.b.b.I.P.R.T.Y.U.G.F.d ",
"d F.G.E.W.Y.Q.!.~.^.^.^.^.^.^.^.^.^.^.^.^.^.^.~.!.Q.Y.W.E.G.F.d ",
"d F.G./.W.Y.(.!.)._._._._._._._._._._._._._._.).!.(.Y.W./.G.F.d ",
"d P `.'.].[.{.}.|. X.X.X.X.X.X.X.X.X.X.X.X.X X|.}.{.[.].'.`.P d ",
"d P XXoXOX+X@X#X$X%X&X*X*X*X*X*X*X*X*X*X*X&X%X$X#X@X+XOXoXXXP d ",
"d P I E =X-X;X:X>X,X<X1X1X1X1X1X1X1X1X1X1X<X,X>X:X;X-X=XE I P d ",
"d P I E 2X-X3X:X>X,X<X1X1X1X1X1X1X1X1X1X1X<X,X>X:X3X-X2XE I P d ",
"d P I U _ 4X5X6X7X8X9X0X0X0X0X0X0X0X0X0X0X9X8X7X6X5X4X_ U I P d ",
"d P I U _ Y qXwX6XeXeXrXrXrXrXrXrXrXrXrXrXeXeX6XwXqXY _ U I P d ",
"d P I tXyXuXiXqX5X3X3X3X3X3X3X3X3X3X3X3X3X3X3X5XqXiXuXyXtXI P d ",
"d P I pXaXsXdXY 4XfXgXgXgXgXgXgXgXgXgXgXgXgXfX4XY dXsXaXpXI P d ",
"d hXjXkXlXzXxXyXyX_ _ _ _ _ _ _ _ _ _ _ _ _ _ yXyXxXzXlXkXjXhXd ",
"d N cXvXbXnXmXMXNXU U U U U U U U U U U U U U NXMXmXnXbXvXcXN d ",
"X BXVXCXZXAXSXDXFXI I I I I I I I I I I I I I FXDXSXAXZXCXVXBXX ",
". GXHXJXKXLXPXN N P P P P P P P P P P P P P P N N PXLXKXJXHXGX. ",
"  . X IXUXUXIXd d d d d d d d d d d d d d d d d d IXUXUXIXX .   "
};
