/* XPM */
static char *left1717057158[] = {
/* columns rows colors chars-per-pixel */
"32 32 176 2 ",
"   c #0E122B",
".  c #12162C",
"X  c #11192B",
"o  c #161B36",
"O  c #171C3C",
"+  c #1A1F3E",
"@  c #1C2C2E",
"#  c #1E352E",
"$  c #1D223E",
"%  c #22352E",
"&  c #2C253A",
"*  c #3A2538",
"=  c #3B2C3C",
"-  c #233731",
";  c #283A38",
":  c #3C3E37",
">  c #3E3F39",
",  c #3B4237",
"<  c #3E4438",
"1  c #345633",
"2  c #3C6835",
"3  c #41433A",
"4  c #4E433D",
"5  c #476E3A",
"6  c #4A753E",
"7  c #1E2B47",
"8  c #252843",
"9  c #262B49",
"0  c #3A3D42",
"q  c #39354B",
"w  c #292F53",
"e  c #2C3655",
"r  c #353A54",
"t  c #343B57",
"y  c #2F3962",
"u  c #343B63",
"i  c #363F68",
"p  c #463A45",
"a  c #4A3E47",
"s  c #4B3E4A",
"d  c #593640",
"f  c #413F51",
"g  c #713D49",
"h  c #294849",
"j  c #3B4242",
"k  c #3D4258",
"l  c #394064",
"z  c #3A426A",
"x  c #3C4772",
"c  c #3F4873",
"v  c #356C7D",
"b  c #4B4F46",
"n  c #4D424C",
"m  c #434949",
"M  c #5D434C",
"N  c #494554",
"B  c #43465E",
"V  c #5C4A54",
"C  c #544B5E",
"Z  c #584A5B",
"A  c #465753",
"S  c #64484F",
"D  c #754149",
"F  c #7C4D4C",
"G  c #4D7A43",
"H  c #616941",
"J  c #454769",
"K  c #56516D",
"L  c #58536B",
"P  c #414A74",
"I  c #494F76",
"U  c #464E79",
"Y  c #485079",
"T  c #4B537D",
"R  c #655764",
"E  c #635F7B",
"W  c #7D6461",
"Q  c #68627B",
"!  c #796375",
"~  c #70687F",
"^  c #814D51",
"/  c #895456",
"(  c #975455",
")  c #8D5B60",
"_  c #9E6262",
"`  c #8D716F",
"'  c #846A70",
"]  c #9E7F71",
"[  c #A36762",
"{  c #A66C6C",
"}  c #B1756E",
"|  c #AA7477",
" . c #A47E74",
".. c #4D8539",
"X. c #538F3A",
"o. c #55923B",
"O. c #5B973D",
"+. c #608E3F",
"@. c #5FA43E",
"#. c #5FA93E",
"$. c #60A63E",
"%. c #63AC3F",
"&. c #7C854C",
"*. c #67AC40",
"=. c #68AD40",
"-. c #73AE44",
";. c #66B040",
":. c #68B040",
">. c #75B244",
",. c #7CB546",
"<. c #7DB847",
"1. c #82874D",
"2. c #899E4B",
"3. c #8FAA4D",
"4. c #8FBD4C",
"5. c #90BD4C",
"6. c #9BA550",
"7. c #A1AB52",
"8. c #A7B254",
"9. c #ABB555",
"0. c #9F8170",
"q. c #A6837D",
"w. c #BE8A7B",
"e. c #D48B7B",
"r. c #E2947D",
"t. c #91C04C",
"y. c #9DC350",
"u. c #B2CB56",
"i. c #B6CD58",
"p. c #B9CD59",
"a. c #B8D158",
"s. c #C1CD5B",
"d. c #C4D35C",
"f. c #C9D55D",
"g. c #CCD85E",
"h. c #D1DD5F",
"j. c #525982",
"k. c #585F8A",
"l. c #5A628C",
"z. c #457084",
"x. c #5F7E8C",
"c. c #6D6883",
"v. c #65688E",
"b. c #716980",
"n. c #616993",
"m. c #937B85",
"M. c #49889D",
"N. c #5B8EA2",
"B. c #6196A6",
"V. c #659FB0",
"C. c #71B2C3",
"Z. c #8E8C97",
"A. c #AB8B87",
"S. c #B68F88",
"D. c #AF908F",
"F. c #8D91A0",
"G. c #9F95A2",
"H. c #94A6B6",
"J. c #BBB1B4",
"K. c #CA9B87",
"L. c #C7968B",
"P. c #CB9C88",
"I. c #D69F8F",
"U. c #CFA08C",
"Y. c #D9A48F",
"T. c #C5A396",
"R. c #D4A695",
"E. c #D6A999",
"W. c #D9AB99",
"Q. c #E2AD93",
"!. c #FFBA9A",
"~. c #C6B7B8",
"^. c #E8B4A1",
"/. c #FFC5A2",
"(. c #B3B7C4",
"). c #D8C6CE",
/* pixels */
"f.f.f.d.f.f.d.f.h.6.<   . . . . . . .     < 6.h.g.g.f.f.f.f.f.f.",
"f.f.f.f.f.f.f.s.9.&.j 7 + 7 $ $ $ 8 8 9 9 m 1.9.p.g.f.f.f.f.d.f.",
"f.f.f.d.f.f.g.9.H > t u u u r u k z I j.j.K m H 9.g.g.f.f.f.f.f.",
"f.f.f.f.f.s.9.&.q 9 z P P P Y j.j.j.l.n.n.T w 0 &.9.p.g.f.f.d.f.",
"f.f.f.f.g.8.H 0 r z x P P U k.n.n.l.j.T T U i t 0 H 8.g.f.f.f.f.",
"f.f.f.g.g.6., O y P c c U j.k.n.n.k.Y x x P P u O < 6.g.f.f.d.f.",
"f.d.f.f.g.6., O y x x U k.l.j.U T U P x P P P u + : 6.g.f.f.f.f.",
"f.f.f.f.g.6.< 8 K b.c.c.v.k.j.i x x P P P P P u + < 6.g.f.f.s.f.",
"f.f.f.f.g.6., q 0.W.W.D.c.T P P P P P P P P P y + < 6.g.g.f.f.f.",
"d.f.f.f.f.6., s L./.Q.A.L i x P x x x P P P P u + < 6.g.f.f.f.f.",
"f.f.f.f.g.6., s P.Q.` Z r e z P x x z x P P P u + < 6.g.f.d.f.f.",
"f.f.f.g.f.6., s P.U.V 8 s C J J E ~ ~ E Y P P y + < 6.f.f.f.f.f.",
"f.d.f.f.g.6., s P.P.n 0  .q.C C A.E.R.D.Q x P u 7 < 6.g.g.f.f.f.",
"f.f.f.f.g.6., p w.w.p a K.R.R Z w.!./.R.Q x c u O < 6.g.f.f.f.f.",
"f.f.f.f.g.6.: = [ [ = n K.E.Q K { r.!.W.b.x P y $ < 6.g.f.f.f.f.",
"f.d.f.f.g.8.H 4 F ^ M W Y.E.~ L { e.I.D.E x P u + < 6.g.f.f.d.f.",
"f.f.f.f.g.s.9.1.4 d  .Q.!.Q.Q k.L.I.m.E Y P c u + < 7.g.g.f.f.f.",
"f.f.f.d.i.u.a.3.5 b  .P.P.m.! ' S.S.K r z P P u $ , 2.a.d.f.f.f.",
"f.f.g.p.4.,.4.%.O.6 b s s S ) _ / S & 7 l U P u + ; +.t.p.g.f.f.",
"f.d.s.y.%.$.$.$.o.G A q & p ^ / d = f J u z c u + - ..>.y.p.d.f.",
"g.p.5.>.%.%.%.X.1 A Z.G.) g g d & k Z.F.B 9 z i & # o.%.>.4.a.g.",
"u.y.>.#.%.%.%.X.% B (.).| ^ d * * R ~.J.N o w t 9 1 o.%.#.>.y.u.",
",.>.%.%.%.%.%...% J (.).| g * * D } ^.T.N X o ; 5 o.@.%.%.%.>.,.",
"$.$.%.%.%.%.%...% k H.(.Z.Z @ = [ r.!.P.n X @ 1 O.%.%.%.%.*.$.$.",
"$.%.%.%.%.%.%.X.# e N.C.V.z.7 p w.!./.K.s @ 2 O.#.%.%.%.%.%.%.@.",
"4.%.%.%.%.%.%.X.1 h v M.B.x.N M  .P.P.] b 1 o.:.%.%.%.%.%.%.>.<.",
"u.y.%.$.%.%.%.$.o.G h k ! } _ / M s s b 6 o.$.%.%.%.%.%.#.>.y.u.",
"g.i.y.>.%.%.%.%.*.o.1 > F ( ( F > # # 1 O.%.%.%.%.#.%.%.>.5.p.g.",
"f.f.i.y.%.$.$.%.#.#.o.5 > * = < 5 ....o.$.%.%.%.$.#.$.-.y.i.d.f.",
"f.f.g.i.5.4.,.>.*.*.;.o.1 - - 1 o.:.;.*.%.%.%.:.>.<.,.5.i.g.f.f.",
"f.f.f.s.i.i.i.y.>.*.#.@.X.....X.@.;.*.*.%.$.$.>.y.u.u.i.s.f.f.f.",
"d.f.f.f.f.f.g.u.<.#.%.*.*.=.;.;.*.*.#.#.%.%.$.<.i.g.g.f.f.f.f.f."
};
