/* XPM */
static char *right1717057158[] = {
/* columns rows colors chars-per-pixel */
"32 32 176 2 ",
"   c #0E122B",
".  c #12162C",
"X  c #11192B",
"o  c #161B36",
"O  c #171C3C",
"+  c #1A1F3E",
"@  c #1C2C2E",
"#  c #1E352E",
"$  c #1D223E",
"%  c #22352E",
"&  c #2C253A",
"*  c #3A2538",
"=  c #3B2C3C",
"-  c #233731",
";  c #283A38",
":  c #3C3E37",
">  c #3E3F39",
",  c #46373C",
"<  c #53313F",
"1  c #3B4237",
"2  c #3E4438",
"3  c #345633",
"4  c #3C6835",
"5  c #41433A",
"6  c #4E433D",
"7  c #476E3A",
"8  c #4A753E",
"9  c #1E2B47",
"0  c #252843",
"q  c #262B49",
"w  c #3A3D42",
"e  c #39354B",
"r  c #292F53",
"t  c #2C3655",
"y  c #353A54",
"u  c #343B57",
"i  c #2F3962",
"p  c #343B63",
"a  c #363F68",
"s  c #463A45",
"d  c #4A3E47",
"f  c #4B3E4A",
"g  c #593640",
"h  c #413F51",
"j  c #713D49",
"k  c #294849",
"l  c #3B4242",
"z  c #3A426A",
"x  c #3C4772",
"c  c #3F4873",
"v  c #356C7D",
"b  c #4B4F46",
"n  c #4D424C",
"m  c #434949",
"M  c #5D434C",
"N  c #4C5044",
"B  c #494554",
"V  c #43465E",
"C  c #544B5E",
"Z  c #584A5B",
"A  c #465753",
"S  c #64484F",
"D  c #754149",
"F  c #7C4D4C",
"G  c #4D7A43",
"H  c #616941",
"J  c #454769",
"K  c #56516D",
"L  c #58536B",
"P  c #414A74",
"I  c #494F76",
"U  c #464E79",
"Y  c #485079",
"T  c #4B537D",
"R  c #655764",
"E  c #7E5A68",
"W  c #635F7B",
"Q  c #7D6461",
"!  c #68627B",
"~  c #796375",
"^  c #70687F",
"/  c #814D51",
"(  c #895456",
")  c #975455",
"_  c #9E6262",
"`  c #8D716F",
"'  c #846A70",
"]  c #A36762",
"[  c #A66C6C",
"{  c #B1756E",
"}  c #AA7477",
"|  c #A47E74",
" . c #4D8539",
".. c #538F3A",
"X. c #55923B",
"o. c #5B973D",
"O. c #608E3F",
"+. c #5FA43E",
"@. c #5FA93E",
"#. c #60A63E",
"$. c #63AC3F",
"%. c #7C854C",
"&. c #67AC40",
"*. c #68AD40",
"=. c #66B040",
"-. c #75B244",
";. c #7CB546",
":. c #7DB847",
">. c #82874D",
",. c #899E4B",
"<. c #8FAA4D",
"1. c #8FBD4C",
"2. c #90BD4C",
"3. c #9BA550",
"4. c #A1AB52",
"5. c #A7B254",
"6. c #ABB555",
"7. c #9F8170",
"8. c #A6837D",
"9. c #BE8A7B",
"0. c #D48B7B",
"q. c #E2947D",
"w. c #91C04C",
"e. c #9DC350",
"r. c #B2CB56",
"t. c #B6CD58",
"y. c #B9CD59",
"u. c #B8D158",
"i. c #C1CD5B",
"p. c #C4D35C",
"a. c #C9D55D",
"s. c #CCD85E",
"d. c #D1DD5F",
"f. c #525982",
"g. c #585F8A",
"h. c #57608A",
"j. c #5A628C",
"k. c #457084",
"l. c #5F7E8C",
"z. c #6D6883",
"x. c #65688E",
"c. c #716980",
"v. c #616993",
"b. c #937B85",
"n. c #49889D",
"m. c #5B8EA2",
"M. c #6196A6",
"N. c #659FB0",
"B. c #71B2C3",
"V. c #8E8C97",
"C. c #AB8B87",
"Z. c #B68F88",
"A. c #AF908F",
"S. c #8D91A0",
"D. c #9F95A2",
"F. c #94A6B6",
"G. c #BBB1B4",
"H. c #C08D80",
"J. c #CA9B87",
"K. c #C7968B",
"L. c #CB9C88",
"P. c #D69F8F",
"I. c #E89882",
"U. c #CFA08C",
"Y. c #D9A48F",
"T. c #C5A396",
"R. c #D4A695",
"E. c #D6A999",
"W. c #D9AB99",
"Q. c #E2AD93",
"!. c #FFBA9A",
"~. c #C6B7B8",
"^. c #E8B4A1",
"/. c #FFC5A2",
"(. c #B3B7C4",
"). c #D8C6CE",
/* pixels */
"a.a.a.p.a.a.p.a.d.4.2     .   X X . . .   2 4.d.s.a.a.a.a.p.a.a.",
"a.a.a.a.a.a.a.i.6.%.m r q q & 9 9 + & + + l %.6.i.s.a.a.a.a.a.p.",
"a.a.a.p.a.s.s.6.H l K f.T T z u p p p p a u 1 H 6.s.s.a.a.a.a.a.",
"a.a.a.a.a.y.6.%.: r f.v.v.x.f.T T T P c c a q w %.6.y.s.a.a.p.a.",
"a.a.a.a.s.5.H w u a U T T f.j.v.v.h.U c P x a u w H 5.a.a.a.a.a.",
"a.a.a.s.s.3.1 O p P P P x Y g.v.v.j.f.U P c c i O > 3.s.a.a.a.p.",
"a.a.a.a.s.3.1 + p P P z P P T T T f.j.g.U x x i + 1 3.s.a.a.a.a.",
"i.a.a.s.s.3.1 + p P P P P P z P x U h.x.z.c.z.L 0 1 3.s.a.a.p.a.",
"a.a.a.a.s.3.2 O i P P P P x P P P P U z.A.W.W.7.e 2 3.a.a.a.p.a.",
"a.a.a.a.s.3.2 9 p P P x x x x x P x a L C.Q./.J.d : 3.s.s.a.a.a.",
"a.a.a.a.s.3.2 + u P P P x x x x P a u u C ` Q.J.f 1 3.s.s.p.a.p.",
"a.a.a.s.s.3.2 + p P P I W ^ ^ W J J Z n 0 Z U.L.n 1 3.a.s.a.a.a.",
"a.a.a.a.s.3.2 + p c P W C.E.W.C.C C b.| e n L.L.n : 3.s.a.a.a.a.",
"a.a.a.a.s.3.2 + p c P ^ R./.!.H.Z R Y.P.d s 9.9.s : 3.s.s.a.p.a.",
"p.a.a.a.s.3.5 $ p c x ^ E.!.q.[ C ! R.J.f = ] ] = : 3.s.s.a.a.a.",
"a.a.p.a.s.3.5 $ p x c g.A.P.0.[ W ^ E.Y.Q M F F 6 H 5.s.a.i.a.a.",
"a.a.a.s.d.<.1 o p P P I W b.Y.K.W ! R.!.Q.| g , >.6.y.s.a.a.a.a.",
"a.a.a.a.u.,.1 $ p P P z i C Z.Z.~ ~ C.J.L.| b 7 <.u.r.y.p.a.a.a.",
"a.a.a.u.w.O.1 $ p P U a q 0 S ( _ ( M n f b 8 o.-.:.;.2.y.a.a.a.",
"a.p.u.e.-. .- $ p P z u V h , < ( ( < & e A G o.#.#.#.-.e.y.p.a.",
"a.t.2.-.=. .- $ p a q J S.S.u & < D j ' D.V.A 3 X.$.$.$.-.1.t.s.",
"r.e.-.&.&.X.3 q u r o B G.~.R * * < / } ).(.V %  .$.$.$.#.-.e.r.",
":.-.&.@.@.+...G ; o   n T.^.{ D * * j } ).(.V %  .$.$.$.$.$.-.;.",
"@.@.@.&.&.@.&.o.3 @ X n L.!.I.] = & Z V.(.F.y % X.$.$.$.$.&.#.#.",
"@.@.#.$.$.$.$.#.X.4 @ f J./.!.9.s 9 k.N.B.m.t %  .@.$.$.$.$.$.@.",
";.-.*.#.$.$.$.=.=.X.3 b 7.L.L.| M B l.M.n.v k 3 X.$.$.$.$.$.$.<.",
"r.e.-.@.$.$.$.$.$.+.X.8 b f f M ( _ [ ' B k 8 X.+.$.$.$.$.$.e.u.",
"s.t.2.-.*.#.#.$.&.=.=.X.3 # # > F ) ) F : 3 o.$.$.$.$.$.;.2.u.s.",
"a.a.t.e.-.@.@.#.$.&.$.+.X. . .8 5 = * , 7 X.#.$.$.@.$.$.e.y.p.s.",
"a.a.s.t.w.;.:.-.*.$.$.$.$.$.$.X.3 - - 3 X.$.$.$.$.;.<.2.y.s.a.a.",
"a.a.a.i.t.r.r.e.-.$.$.$.$.$.$.#.X. . .X.#.$.$.$.e.u.r.y.p.a.a.a.",
"a.a.a.a.s.s.s.r.;.$.$.=.$.$.$.$.=.=.=.$.$.$.$.1.r.d.s.a.a.a.p.a."
};
