/* XPM */
static char *rock1717057158[] = {
/* columns rows colors chars-per-pixel */
"32 32 213 2 ",
"   c #C8D45D",
".  c #CCD85E",
"X  c #D0DD60",
"o  c #A1AA50",
"O  c #424230",
"+  c #110C20",
"@  c #110D20",
"#  c #140F20",
"$  c #C9D55D",
"%  c #CBD75E",
"&  c #C1CD5A",
"*  c #ABB452",
"=  c #80864A",
"-  c #454643",
";  c #2B2942",
":  c #343147",
">  c #39374A",
",  c #CEDB5F",
"<  c #63663A",
"1  c #434341",
"2  c #4C4F67",
"3  c #5E6284",
"4  c #757894",
"5  c #81839B",
"6  c #80829A",
"7  c #AAB452",
"8  c #7E8348",
"9  c #404140",
"0  c #373757",
"q  c #62668C",
"w  c #858BB0",
"e  c #9CA1BF",
"r  c #A7ABC6",
"t  c #A6AAC6",
"y  c #626539",
"u  c #494C67",
"i  c #858AAC",
"p  c #9BA0BE",
"a  c #A2A7C3",
"s  c #A5AAC5",
"d  c #A5A9C4",
"f  c #858BAF",
"g  c #9BA0BD",
"h  c #A5A9C3",
"j  c #A4A8C3",
"k  c #A3A7C2",
"l  c #A2A6C1",
"z  c #C0CB5A",
"x  c #ABB453",
"c  c #7F844A",
"v  c #414241",
"b  c #CCD95E",
"n  c #A8B152",
"m  c #64673C",
"M  c #424342",
"N  c #4B4E68",
"B  c #63678D",
"V  c #CEDA5F",
"C  c #9CA44E",
"Z  c #3F3F2F",
"A  c #24223F",
"S  c #51557D",
"D  c #7A81A8",
"F  c #989CBB",
"G  c #9DA54E",
"H  c #414030",
"J  c #25233F",
"K  c #51557C",
"L  c #7980A7",
"P  c #979CBB",
"I  c #CFDB5F",
"U  c #9EA64E",
"Y  c #434231",
"T  c #26253F",
"R  c #797FA6",
"E  c #979CBA",
"W  c #D0DB5F",
"Q  c #9FA64F",
"!  c #434331",
"~  c #51567C",
"^  c #B4D057",
"/  c #8B9E49",
"(  c #3D402F",
")  c #25233D",
"_  c #4A4E74",
"`  c #6D749C",
"'  c #898EB0",
"]  c #9A9FBC",
"[  c #A1A5C1",
"{  c #7EBA47",
"}  c #638E3D",
"|  c #303B2B",
" . c #211F39",
".. c #3B4066",
"X. c #555D87",
"o. c #6C739B",
"O. c #8389AC",
"+. c #63AF3F",
"@. c #4F8637",
"#. c #29392A",
"$. c #1F1D37",
"%. c #34395E",
"&. c #464F7A",
"*. c #555D88",
"=. c #6B7299",
"-. c #888DAF",
";. c #64AF3F",
":. c #508637",
">. c #2A392A",
",. c #201D37",
"<. c #35395F",
"1. c #424B76",
"2. c #545C85",
"3. c #65B040",
"4. c #518738",
"5. c #353A60",
"6. c #404A74",
"7. c #3F4873",
"8. c #454E78",
"9. c #545C87",
"0. c #414A75",
"q. c #404974",
"w. c #414A74",
"e. c #508638",
"r. c #293729",
"t. c #1F1C37",
"y. c #353A61",
"u. c #414B76",
"i. c #3F4872",
"p. c #969BB9",
"a. c #969AB9",
"s. c #9599B8",
"d. c #293629",
"f. c #1F1B37",
"g. c #363A61",
"h. c #404973",
"j. c #6B729A",
"k. c #777EA4",
"l. c #777DA3",
"z. c #767DA3",
"x. c #63AE3F",
"c. c #549039",
"v. c #38552F",
"b. c #2B3637",
"n. c #313852",
"m. c #383E66",
"M. c #3E4670",
"N. c #3E4771",
"B. c #49517B",
"V. c #5D658F",
"C. c #686F99",
"Z. c #676E99",
"A. c #676E98",
"S. c #61AB3E",
"D. c #5EA33D",
"F. c #56923A",
"G. c #446C37",
"H. c #2B3536",
"J. c #272646",
"K. c #49527C",
"L. c #5E658F",
"P. c #7CB546",
"I. c #77B545",
"U. c #6BB241",
"Y. c #559139",
"T. c #37542D",
"R. c #313752",
"E. c #3F4973",
"W. c #4A527C",
"Q. c #5E6690",
"!. c #69709A",
"~. c #B2CB56",
"^. c #9EC450",
"/. c #76B545",
"(. c #5CA43C",
"). c #446B36",
"_. c #CDD65E",
"`. c #B8CE58",
"'. c #90BD4C",
"]. c #75B444",
"[. c #69B241",
"{. c #383D65",
"}. c #3D456F",
"|. c #4B537E",
" X c #606792",
".X c #6A719C",
"XX c #6A719B",
"oX c #69709B",
"OX c #CAD55E",
"+X c #C5D35C",
"@X c #B8CD58",
"#X c #9CC350",
"$X c #262545",
"%X c #373D65",
"&X c #4C5580",
"*X c #606893",
"=X c #6B729D",
"-X c #6A729C",
";X c #CCD55E",
":X c #8FBD4C",
">X c #2A3536",
",X c #3D4168",
"<X c #4C5076",
"1X c #54577D",
"2X c #C9D45D",
"3X c #C4D35C",
"4X c #211D39",
"5X c #27233E",
"6X c #2A2741",
"7X c #2A2640",
"8X c #283629",
"9X c #293829",
"0X c white",
/* pixels */
"              . X o O + @ # # # # # # @ + O o X .               ",
"          $ % & * = - ; : > > > > > > : ; - = * & % $           ",
"          % , * < 1 2 3 4 5 5 6 6 5 5 4 3 2 1 < * , %           ",
"      $ % & 7 8 9 0 q w e r r t t r r e w q 0 9 8 7 & % $       ",
"      % , 7 y 9 u q i p a s d d d d s a p i q u 9 y 7 , %       ",
"  $ % & 7 8 9 0 q f g h j k k k k k k j h g f q 0 9 8 7 & % $   ",
"  % , 7 y 9 u q i g l j k k k k k k k k j l g i q u 9 y 7 , %   ",
"$ z x c v 0 q f g h j k k k k k k k k k k j h g f q 0 v c x z $ ",
"b n m M N B i g l j k k k k k k k k k k k k j l g i B N M m n b ",
"V C Z A S D F d j k k k k k k k k k k k k k k j d F D S A Z C V ",
"V G H J K L P h j k k k k k k k k k k k k k k j h P L K J H G V ",
"I U Y T K R E h j k k k k k k k k k k k k k k j h E R K T Y U I ",
"W Q ! T ~ L P d j k k k k k k k k k k k k k k j d P L ~ T ! Q W ",
"^ / ( ) _ ` ' ] [ j k k k k k k k k k k k k j [ ] ' ` _ ) ( / ^ ",
"{ } |  ...X.o.O.] h j k k k k k k k k k k j h ] O.o.X... .| } { ",
"+.@.#.$.%.&.*.=.-.] [ j k k k k k k k k j [ ] -.=.*.&.%.$.#.@.+.",
";.:.>.,.<.1.&.2.=.O.] h j k k k k k k j h ] O.=.2.&.1.<.,.>.:.;.",
"3.4.>.,.5.6.7.8.9.=.-.] [ j j j j j j [ ] -.=.9.8.7.6.5.,.>.4.3.",
"3.4.>.,.5.0.q.w.8.2.=.O.] d h j j h d ] O.=.2.8.w.q.0.5.,.>.4.3.",
"3.e.r.t.y.u.w.i.i.8.9.=.-.p.a.s.s.a.p.-.=.9.8.i.i.w.u.y.t.r.e.3.",
"3.e.d.f.g.1.0.h.i.w.8.2.j.k.l.z.z.l.k.j.2.8.w.i.h.0.1.g.f.d.e.3.",
"x.c.v.b.n.m.M.w.q.i.N.B.V.C.Z.A.A.Z.C.V.B.N.i.q.w.M.m.n.b.v.c.x.",
"S.D.F.G.H.J.m.u.w.i.i.K.L.C.C.A.A.C.C.L.K.i.i.w.u.m.J.H.G.F.D.S.",
"P.I.U.Y.T.H.R.m.M.q.E.W.Q.!.!.C.C.!.!.Q.W.E.q.M.m.R.H.T.Y.U.I.P.",
"~.^./.(.Y.).H.J.m.0.h.W.Q.!.!.C.C.!.!.Q.W.h.0.m.J.H.).Y.(./.^.~.",
"_.`.'.].[.Y.T.H.R.{.}.|. X.XXXoXoXXX.X X|.}.{.R.H.T.Y.[.].'.`._.",
"OX+X@X#X].(.Y.).H.$X%X&X*X=X-X.X.X-X=X*X&X%X$XH.).Y.(.].#X@X+XOX",
"  OX;X@X:X].[.Y.T.>XR.,X<X1X1X1X1X1X1X<X,XR.>XT.Y.[.].:X@X;XOX  ",
"  2XOX3X@X#X].(.Y.G.b.4X5X6X6X7X7X6X6X5X4Xb.G.Y.(.].#X@X3XOX2X  ",
"      OX;X@X'./.U.F.v.8X8X9X9X9X9X9X9X8X8Xv.F.U./.'.@X;XOX      ",
"      2XOX+X`.^.I.D.c.:.:.:.:.:.:.:.:.:.:.c.D.I.^.`.+XOX2X      ",
"          OX_.~.P.S.x.3.3.3.3.3.3.3.3.3.3.x.S.P.~._.OX          "
};
