/* XPM */
static char *_5ab45d823f5468f871c4c38c11d910cACynoQwGFvlBvTiL[] = {
/* columns rows colors chars-per-pixel */
"32 32 116 2 ",
"   c #160D25",
".  c #171125",
"X  c #1C1427",
"o  c #1F1328",
"O  c #23142A",
"+  c #25182B",
"@  c #2B1A2D",
"#  c #301F2F",
"$  c #321E31",
"%  c #26342A",
"&  c #2C332D",
"*  c #27382A",
"=  c #2A392B",
"-  c #31362F",
";  c #323B2F",
":  c #393E2F",
">  c #342131",
",  c #3B2434",
"<  c #3B2B35",
"1  c #402636",
"2  c #432B36",
"3  c #472739",
"4  c #482739",
"5  c #422838",
"6  c #4C2D3B",
"7  c #512D3F",
"8  c #473C36",
"9  c #443239",
"0  c #4E313C",
"q  c #4C3E38",
"w  c #53323F",
"e  c #36532F",
"r  c #375530",
"t  c #385530",
"y  c #404231",
"u  c #4B4636",
"i  c #4A493A",
"p  c #50463D",
"a  c #456A35",
"s  c #4F723A",
"d  c #60663B",
"f  c #553340",
"g  c #5A3541",
"h  c #5E3842",
"j  c #643745",
"k  c #633B45",
"l  c #693E47",
"z  c #6F3D4A",
"x  c #723E4B",
"c  c #6D4148",
"v  c #74414C",
"b  c #7C444D",
"n  c #615241",
"m  c #6D5047",
"M  c #7D4250",
"N  c #844D4F",
"B  c #814650",
"V  c #844952",
"C  c #8B4C56",
"Z  c #914E58",
"A  c #8E5252",
"S  c #995656",
"D  c #965159",
"F  c #9A545A",
"G  c #9C5858",
"H  c #A1575C",
"J  c #A35A5C",
"K  c #AC5F5E",
"L  c #867A4C",
"P  c #AE605F",
"I  c #B1625F",
"U  c #B56560",
"Y  c #B86661",
"T  c #C16C63",
"R  c #4D8437",
"E  c #4E8738",
"W  c #508639",
"Q  c #528B39",
"!  c #5C8E3D",
"~  c #55913A",
"^  c #618D3D",
"/  c #5DA33D",
"(  c #61AC3E",
")  c #64B03F",
"_  c #7F8246",
"`  c #66B140",
"'  c #6AB241",
"]  c #76B545",
"[  c #7BB546",
"{  c #7EB947",
"}  c #8C894C",
"|  c #899D49",
" . c #9CA64F",
".. c #8FBD4C",
"X. c #90BD4C",
"o. c #A1A751",
"O. c #A7AB54",
"+. c #A9B453",
"@. c #B3B758",
"#. c #B5BA59",
"$. c #91C04D",
"%. c #9DC450",
"&. c #AFCA56",
"*. c #B1CB56",
"=. c #B6CD58",
"-. c #B8CD58",
";. c #B9D159",
":. c #C0CC5A",
">. c #C3CD5C",
",. c #C3D25C",
"<. c #C5D35C",
"1. c #C6D55C",
"2. c #C8D45D",
"3. c #CCD55E",
"4. c #CBD85E",
"5. c #CDDA5F",
/* pixels */
"2.2.2.2.2.2.2.2.2.2.2.2.4.5.5.5.5.5.5.4.2.2.2.2.2.2.2.2.2.2.2.2.",
"2.2.2.2.2.2.2.2.2.2.2.>.@.O.o. . .o.O.@.>.2.2.2.2.2.2.2.2.2.2.2.",
"2.2.2.2.2.2.2.2.2.2.5.#.L n u y y u n L #.5.2.2.2.2.2.2.2.2.2.2.",
"2.2.2.2.2.2.2.2.2.:.+.} m 7 , @ @ , 7 m } +.:.2.2.2.2.2.2.2.2.2.",
"2.2.2.2.2.2.2.2.5.+.d q c M x z z x M c q d +.5.2.2.2.2.2.2.2.2.",
"2.2.2.2.2.2.2.:.+._ 8 4 B F D Z Z D F B 4 8 _ +.:.2.2.2.2.2.2.2.",
"2.2.2.2.2.2.5.+.d 8 k B J K F C C F K J B k 8 d +.5.2.2.2.2.2.2.",
"2.2.2.2.2.>.#.} q 3 B J I P H F F H P I J B 3 q } #.>.2.2.2.2.2.",
"2.2.2.2.2.@.L m c B J P H H K U U K H H P J B c m L @.2.2.2.2.2.",
"2.2.2.2.5.O.n 7 M H Y U F F I T T I F F U Y H M 7 n O.5.2.2.2.2.",
"2.2.2.2.5.o.u , x H Y U F F I T T I F F U Y H x , u o.5.2.2.2.2.",
"2.2.2.1.;.| : @ f V J P H H K U U K H H P J V f @ : | ;.1.2.2.2.",
"2.2.3.;.$.^ = X @ 6 V J I P H F F H P I J V 6 @ X = ^ $.;.3.2.2.",
"2.<.-.%.] E * . X > g V J P F C C F P J V g > X . * E ] %.-.<.2.",
"3.-.X.] ' W * o > < > 6 V F D Z Z D F V 6 > < > o * W ' ] X.-.3.",
"*.%.] / ~ a & > w w > > g x x x x x x g > > w w > & a ~ / ] %.*.",
"[ ] ' ~ e & < w v v w , > # > > > > # > , w v v w < & e ~ ' ] [ ",
"( / ~ a & $ w v C V k 0 2 , > > > > , 2 0 k V C v w $ & a ~ / ( ",
"( ~ r & < w v C Z V k k N A b z z b A N k k V Z C v w < & r ~ ( ",
"` W % o > f v B v j 6 g A J H F F H K A g 6 j v B v f > o % W ` ",
"` W %   o > f g 1 @ + > g N J Y Y J N g > + @ 1 g f > o   % W ` ",
"( ~ t % % & < < & * * - 9 l G Y Y S h < & * * & < < & % % t ~ ( ",
"( / ~ W W a & & a W W s p k C H H b 1 & a W W a & & a W W ~ / ( ",
"[ ] ' ) ` ~ e e ~ ` ` ! i 7 x V V j @ * W ' ` ~ e e ~ ` ) ' ] [ ",
"*.%.] ( ( / Q Q / ` ` Q ; $ 7 k k 6 + * W ` ` / Q Q / ( ( ] %.*.",
"3.-...[ [ ] ' ( ( ( ( Q e & < 5 5 < & r Q ( ( ( ( ' ] [ [ ..-.3.",
"2.,.=.*.*.%.] ( ( ( ( / ~ a & O O & a ~ / ( ( ( ( ] %.*.*.=.,.2.",
"2.2.2.3.3.=...[ [ [ [ ] ' ~ e % % e ~ ' ] [ [ [ [ ..=.3.3.2.2.2.",
"2.2.2.2.2.,.=.&.&.*.*.%.] / Q R R Q / ] %.*.*.&.&.=.,.2.2.2.2.2.",
"2.2.2.2.2.2.2.2.2.2.3.-...[ { { { { [ ..-.3.2.2.2.2.2.2.2.2.2.2.",
"2.2.2.2.2.2.2.2.2.2.2.,.=.*.*.*.*.*.*.=.,.2.2.2.2.2.2.2.2.2.2.2.",
"2.2.2.2.2.2.2.2.2.2.2.2.2.2.2.2.2.2.2.2.2.2.2.2.2.2.2.2.2.2.2.2."
};
