/* XPM */
static char *up1717057158[] = {
/* columns rows colors chars-per-pixel */
"32 32 137 2 ",
"   c #13162C",
".  c #151D2E",
"X  c #1B192E",
"o  c #171C32",
"O  c #1C1B30",
"+  c #151B3B",
"@  c #1B1F3F",
"#  c #1D2F2F",
"$  c #1D233E",
"%  c #21362E",
"&  c #212135",
"*  c #322436",
"=  c #3D263B",
"-  c #3C2D3C",
";  c #233731",
":  c #333C35",
">  c #45303F",
",  c #413F39",
"<  c #3B4236",
"1  c #335634",
"2  c #3C6936",
"3  c #41433A",
"4  c #4B6F39",
"5  c #5A643E",
"6  c #4D733D",
"7  c #1F2445",
"8  c #1A364F",
"9  c #2A2C41",
"0  c #27314D",
"q  c #3E3643",
"w  c #292E52",
"e  c #353D57",
"r  c #3A3950",
"t  c #333D5E",
"y  c #333B61",
"u  c #483744",
"i  c #4D3648",
"p  c #4A3B4A",
"a  c #593C4E",
"s  c #3B4142",
"d  c #3F4262",
"f  c #3B446C",
"g  c #3D4772",
"h  c #3F4873",
"j  c #4C4F46",
"k  c #41474A",
"l  c #5C564A",
"z  c #474152",
"x  c #484154",
"c  c #41435C",
"v  c #5B4C58",
"b  c #76454C",
"n  c #7B4E4D",
"m  c #60594B",
"M  c #79485A",
"N  c #73585C",
"B  c #5D6640",
"V  c #5F6841",
"C  c #606740",
"Z  c #626940",
"A  c #494567",
"S  c #404B63",
"D  c #424669",
"F  c #53496B",
"G  c #4C526E",
"H  c #575363",
"J  c #404974",
"K  c #47507A",
"L  c #49517B",
"P  c #615C6E",
"I  c #765C68",
"U  c #625E79",
"Y  c #9B5757",
"T  c #A05F5D",
"R  c #A0645F",
"E  c #866066",
"W  c #846671",
"Q  c #9D7D71",
"!  c #A36762",
"~  c #A76A69",
"^  c #4D863A",
"/  c #508C3A",
"(  c #5E8C3F",
")  c #54923B",
"_  c #5DA33E",
"`  c #62AD3F",
"'  c #64B03F",
"]  c #7E874D",
"[  c #66B140",
"{  c #6CB341",
"}  c #76B445",
"|  c #7BB546",
" . c #7FBA47",
".. c #868B4E",
"X. c #888D4F",
"o. c #869C4A",
"O. c #97A24F",
"+. c #8FBD4C",
"@. c #90BD4C",
"#. c #9BA550",
"$. c #9FA951",
"%. c #A1AB52",
"&. c #A6B153",
"*. c #A9B455",
"=. c #A68473",
"-. c #A7867D",
";. c #BC8A7A",
":. c #D28979",
">. c #9DC450",
",. c #B2CB56",
"<. c #B6CD58",
"1. c #BCCC59",
"2. c #B5D057",
"3. c #C0CC5B",
"4. c #C4D35C",
"5. c #C9D55D",
"6. c #CDD95E",
"7. c #D1DD5F",
"8. c #D2DE60",
"9. c #525A85",
"0. c #516A81",
"q. c #59618B",
"w. c #5D6590",
"e. c #497D94",
"r. c #746A81",
"t. c #607287",
"y. c #3C839A",
"u. c #5C8699",
"i. c #6294A5",
"p. c #A98883",
"a. c #C69282",
"s. c #CD9583",
"d. c #CC9C89",
"f. c #E59681",
"g. c #DEAE9C",
"h. c #FFBD9D",
"j. c #FFC9A5",
/* pixels */
"5.5.5.5.4.5.5.5.7.$.3                     3 %.7.6.5.5.5.5.4.5.5.",
"5.5.5.5.5.5.5.1.&...< @ @ 7 $ 7 $ $ $ $ $ s ] *.3.5.5.5.5.5.5.5.",
"5.5.5.4.5.5.7.*.Z k e y y y y d f y y d y e s Z *.6.6.5.5.4.4.5.",
"5.5.5.5.5.3.*.] k w y J J J J J h h h h J f w k ] *.3.5.5.5.5.5.",
"5.5.5.5.5.*.C k G 9.K J J J J J h J J J J J L G k Z &.6.5.5.5.5.",
"5.5.5.5.6.#.: 7 L w.9.K J J J J J h J J L 9.q.L 9 : #.6.5.5.5.5.",
"5.5.5.5.6.#.3 @ y 9.w.q.L J J J J h h K q.q.9.f @ : #.5.5.5.5.5.",
"5.5.5.6.6.%.< + y L q.9.K J J J J J h L q.q.L y @ < $.6.5.5.5.4.",
"5.5.5.5.8.$.< @ y K K K J J J J J J J J J 9.J y + < $.8.5.5.5.5.",
"5.5.5.1.*.X.l x f h h h f J J J J J J J h h h D x m X.*.3.5.5.5.",
"5.5.5.&.V l =.p.U g h J J J J J J J J J h h g U p.=.m B &.6.5.5.",
"5.5.6.O.: p d.g.r.g h h h J J h h J h h h g g r.g.d.p : O.5.5.5.",
"5.5.6.O.: p d.g.r.g h h h J J J J J h J J h g r.g.d.p : O.6.5.5.",
"5.5.5.&.B l =.p.U g h J J h J h J J J J h h g U p.=.l B &.5.5.5.",
"5.5.5.1.*.X.m p D h h h J h J J J h h J J J h D x m X.*.1.5.5.5.",
"5.5.5.6.8.%.< + y h J J J J J J J J J J J J J y + < $.8.6.5.5.5.",
"5.5.5.6.7.$.: + y J J J h J J h J J J J h J J t + : $.8.6.5.5.5.",
"5.5.6.3.*.X.m z d f J J J J J J J h J h h h f S p m ..&.1.5.5.5.",
"4.5.6.&.5 l =.-.H t f J J J J J J J J J h f d H p.=.l 5 &.8.5.5.",
"5.3.&...l N s.a.v 0 t f g J J J J J J f f t 8 v a.s.N l ..*.3.5.",
"7.&.Z l =.a.:.! u $ 0 t J J J J h h J f y 0 $ u R :.a.=.l V &.6.",
"2.o.: p d.h.f.! - o 9 r y A F F F F A d r 9 o - R f.h.d.p : o.2.",
" .( ; p d.j.h.;.u X - u i a b E M M a i i - X u ;.h.j.d.p % ( +.",
"_ / 1 j Q d.d.Q q X * > p a I W W I v i > * X q Q d.d.=.j 1 / _ ",
"` _ ) 6 j p p q &   X 9 S 0.u.i.i.u.0.D * X   $ q p p j 6 ) _ _ ",
"| } { / 1 % % # . O * p P t.e.y.y.e.t.P k * X o # % % 1 ) [ }  .",
",.>.} _ / ^ ^ 2 # * b R ~ E c 8 8 c E ~ T b * # 2 ^ ^ / _ } >.,.",
"6.1.>.{ [ ' ' ) 1 , n Y Y n , % % 3 n Y Y n , 1 ) ' ' [ } @.2.6.",
"5.5.<.>.} _ ' _ ) 6 3 = > , 4 ^ / 6 , = = 3 6 ) _ ` _ } >.1.5.5.",
"5.5.5.<.+.| | | } ) 1 ; % 1 ( { ' ) 1 % ; 1 ) { } |  .@.<.5.5.5.",
"5.5.5.4.<.,.2.>.{ ) / ^ ^ / _ ` ` ` ) ^ ^ / _ | >.,.<.<.1.5.5.5.",
"5.5.5.5.5.6.6.,.+.` ' ' ' ` ` ` ` ` ' ' [ [ ` | ,.6.5.5.5.5.5.5."
};
